<?xml version="1.0" encoding="UTF-8"?>
<svg width="232px" height="75px" viewBox="0 0 232 75" version="1.1" xmlns="http://www.w3.org/2000/svg" xmlns:xlink="http://www.w3.org/1999/xlink">
    <!-- Generator: Sketch 52.5 (67469) - http://www.bohemiancoding.com/sketch -->
    <title>codeflair-farbig-vector</title>
    <desc>Created with Sketch.</desc>
    <defs>
        <path d="M2.14370968,1.15675248 C4.74451613,12.5060594 3.38080645,27.6601109 0.122741935,39.5072396 C2.87395161,39.6981307 6.29733871,39.6818931 9.95056452,39.0652594 C11.7291935,38.7646653 13.2904839,38.4343683 14.6497581,38.0977347 C18.8787903,36.3706059 22.4102419,34.5531802 24.8485484,32.7761505 C24.8437097,28.2106059 23.6291935,22.8442693 21.1654839,16.5813069 C19.2239516,11.6462574 16.4465323,5.86447525 12.8691129,0.412594059 C12.1457258,0.34209901 11.3662903,0.307247525 10.5368548,0.307247525 C8.11709677,0.307247525 5.27072581,0.60150495 2.14370968,1.15675248" id="path-1"></path>
        <linearGradient x1="47.6117091%" y1="72.5795808%" x2="37.5751794%" y2="0.765178655%" id="linearGradient-3">
            <stop stop-color="#D8232A" offset="0%"></stop>
            <stop stop-color="#4F1A22" offset="100%"></stop>
        </linearGradient>
        <path d="M11.831924,2.27262528 C9.615524,3.44188917 7.872724,4.49152806 6.738724,5.21048639 C1.210724,10.9259031 -1.423676,17.1814447 1.228724,23.4039586 C2.998724,26.0856531 6.399924,27.7869864 10.830724,28.7149864 C10.685924,21.5088892 12.555124,10.8642781 15.799524,0.359841667 C14.818724,0.779125278 13.497124,1.39336139 11.831924,2.27262528" id="path-4"></path>
        <linearGradient x1="72.240296%" y1="18.7836528%" x2="12.3764869%" y2="111.443944%" id="linearGradient-6">
            <stop stop-color="#D8232A" offset="0%"></stop>
            <stop stop-color="#4F1A22" offset="100%"></stop>
        </linearGradient>
    </defs>
    <g id="Page-1" stroke="none" stroke-width="1" fill="none" fill-rule="evenodd">
        <g id="Homepage-08" transform="translate(-50.000000, -12.000000)">
            <g id="NAVIGATION">
                <g id="codeflair-farbig-vector" style="mix-blend-mode: multiply;" transform="translate(50.000000, 12.000000)">
                    <g id="Group-4" transform="translate(46.000000, 73.000000)" fill="#8A8B8A">
                        <path d="M0.48236,1.0709936 L0.39316,1.1877936 C1.29716,1.1029936 2.18116,1.0077936 3.04716,0.904592 C2.21716,0.963792 1.36156,1.0201936 0.48236,1.0709936" id="Fill-3"></path>
                    </g>
                    <g id="Group-7" transform="translate(53.000000, 20.000000)">
                        <mask id="mask-2" fill="white">
                            <use xlink:href="#path-1"></use>
                        </mask>
                        <g id="Clip-6"></g>
                        <path d="M2.14370968,1.15675248 C4.74451613,12.5060594 3.38080645,27.6601109 0.122741935,39.5072396 C2.87395161,39.6981307 6.29733871,39.6818931 9.95056452,39.0652594 C11.7291935,38.7646653 13.2904839,38.4343683 14.6497581,38.0977347 C18.8787903,36.3706059 22.4102419,34.5531802 24.8485484,32.7761505 C24.8437097,28.2106059 23.6291935,22.8442693 21.1654839,16.5813069 C19.2239516,11.6462574 16.4465323,5.86447525 12.8691129,0.412594059 C12.1457258,0.34209901 11.3662903,0.307247525 10.5368548,0.307247525 C8.11709677,0.307247525 5.27072581,0.60150495 2.14370968,1.15675248" id="Fill-5" fill="url(#linearGradient-3)" mask="url(#mask-2)"></path>
                    </g>
                    <g id="Group-10" transform="translate(0.000000, 38.000000)">
                        <mask id="mask-5" fill="white">
                            <use xlink:href="#path-4"></use>
                        </mask>
                        <g id="Clip-9"></g>
                        <path d="M11.831924,2.27262528 C9.615524,3.44188917 7.872724,4.49152806 6.738724,5.21048639 C1.210724,10.9259031 -1.423676,17.1814447 1.228724,23.4039586 C2.998724,26.0856531 6.399924,27.7869864 10.830724,28.7149864 C10.685924,21.5088892 12.555124,10.8642781 15.799524,0.359841667 C14.818724,0.779125278 13.497124,1.39336139 11.831924,2.27262528" id="Fill-8" fill="url(#linearGradient-6)" mask="url(#mask-5)"></path>
                    </g>
                    <g id="Group-39">
                        <path d="M100.6172,53.8052366 L99.0044,53.8052366 L99.0044,58.9886591 C99.0044,59.2870548 99.038,59.5228837 99.1052,59.6961457 C99.1724,59.8694078 99.2756,60.0017607 99.4148,60.0932045 C99.554,60.1846484 99.722,60.239996 99.9188,60.2592473 C100.1156,60.2784987 100.3436,60.2833115 100.6028,60.2736858 L100.6028,60.7501564 C100.3244,60.7694078 100.0532,60.7670013 99.7892,60.7429372 C99.5252,60.718873 99.2924,60.6466805 99.0908,60.5263596 C98.8892,60.4060388 98.7284,60.2255575 98.6084,59.9849158 C98.4884,59.7442741 98.438,59.4121885 98.4572,58.9886591 L98.4572,53.8052366 L97.0892,53.8052366 L97.0892,53.328766 L98.4572,53.328766 L98.4572,51.0186056 L99.0044,51.0186056 L99.0044,53.328766 L100.6172,53.328766 L100.6172,53.8052366 Z" id="Fill-11" fill="#AAAAAA"></path>
                        <path d="M102.1724,50.4410695 L102.1724,54.9170053 L102.2012,54.9170053 C102.2972,54.637861 102.434,54.39 102.6116,54.1734225 C102.7892,53.9568449 102.9956,53.7715508 103.2308,53.6175401 C103.466,53.4635294 103.7228,53.3480214 104.0012,53.271016 C104.2796,53.1940107 104.5628,53.155508 104.8508,53.155508 C105.2828,53.155508 105.65,53.2084492 105.9524,53.3143316 C106.2548,53.4202139 106.502,53.5597861 106.694,53.7330481 C106.886,53.9063102 107.0372,54.1012299 107.1476,54.3178075 C107.258,54.534385 107.3372,54.753369 107.3852,54.9747594 C107.4332,55.1961497 107.462,55.4103209 107.4716,55.6172727 C107.4812,55.8242246 107.486,56.0047059 107.486,56.1587166 L107.486,60.7501604 L106.9388,60.7501604 L106.9388,56.0576471 C106.9388,55.8747594 106.9244,55.6437433 106.8956,55.3645989 C106.8668,55.0854545 106.7828,54.8183422 106.6436,54.563262 C106.5044,54.3081818 106.2932,54.0891979 106.01,53.9063102 C105.7268,53.7234225 105.3356,53.6319786 104.8364,53.6319786 C104.414,53.6319786 104.0396,53.708984 103.7132,53.8629947 C103.3868,54.0170053 103.1084,54.2311765 102.878,54.505508 C102.6476,54.7798396 102.4724,55.1071123 102.3524,55.4873262 C102.2324,55.8675401 102.1724,56.2838503 102.1724,56.7362567 L102.1724,60.7501604 L101.6252,60.7501604 L101.6252,50.4410695 L102.1724,50.4410695 Z" id="Fill-12" fill="#AAAAAA"></path>
                        <path d="M109.3148,57.1116578 L109.3148,57.1982888 C109.3148,57.6314439 109.3724,58.0453476 109.4876,58.44 C109.6028,58.8346524 109.7732,59.1811765 109.9988,59.4795722 C110.2244,59.7779679 110.5076,60.0137968 110.8484,60.1870588 C111.1892,60.3603209 111.5852,60.4469519 112.0364,60.4469519 C112.7756,60.4469519 113.3612,60.2520321 113.7932,59.8621925 C114.2252,59.4723529 114.5228,58.9309091 114.686,58.237861 L115.2332,58.237861 C115.07,59.1041711 114.7172,59.7683422 114.1748,60.2303743 C113.6324,60.6924064 112.9148,60.9234225 112.022,60.9234225 C111.4748,60.9234225 110.9972,60.8247594 110.5892,60.6274332 C110.1812,60.430107 109.8404,60.1605882 109.5668,59.818877 C109.2932,59.4771658 109.0892,59.0728877 108.9548,58.6060428 C108.8204,58.1391979 108.7532,57.6362567 108.7532,57.0972193 C108.7532,56.5774332 108.8228,56.0793048 108.962,55.6028342 C109.1012,55.1263636 109.31,54.7076471 109.5884,54.3466845 C109.8668,53.9857219 110.2148,53.6969519 110.6324,53.4803743 C111.05,53.2637968 111.542,53.155508 112.1084,53.155508 C112.6268,53.155508 113.0852,53.2517647 113.4836,53.4442781 C113.882,53.6367914 114.2156,53.8990909 114.4844,54.2311765 C114.7532,54.563262 114.9572,54.9482888 115.0964,55.3862567 C115.2356,55.8242246 115.3052,56.2934759 115.3052,56.7940107 C115.3052,56.842139 115.3028,56.8974866 115.298,56.9600535 C115.2932,57.0226203 115.2908,57.0731551 115.2908,57.1116578 L109.3148,57.1116578 Z M114.7436,56.6351872 C114.7244,56.2309091 114.6572,55.8482888 114.542,55.4873262 C114.4268,55.1263636 114.2564,54.8087166 114.0308,54.534385 C113.8052,54.2600535 113.5316,54.0410695 113.21,53.8774332 C112.8884,53.7137968 112.5212,53.6319786 112.1084,53.6319786 C111.6668,53.6319786 111.278,53.7162032 110.942,53.8846524 C110.606,54.0531016 110.3228,54.274492 110.0924,54.5488235 C109.862,54.8231551 109.6844,55.1432086 109.5596,55.508984 C109.4348,55.8747594 109.358,56.2501604 109.3292,56.6351872 L114.7436,56.6351872 Z" id="Fill-13" fill="#AAAAAA"></path>
                        <path d="M120.8348,58.2811765 C120.854,58.6277005 120.9308,58.9333155 121.0652,59.1980214 C121.1996,59.4627273 121.3748,59.6889305 121.5908,59.876631 C121.8068,60.0643316 122.0588,60.2063102 122.3468,60.3025668 C122.6348,60.3988235 122.9468,60.4469519 123.2828,60.4469519 C123.5228,60.4469519 123.7796,60.4252941 124.0532,60.3819786 C124.3268,60.3386631 124.5812,60.2592513 124.8164,60.1437433 C125.0516,60.0282353 125.246,59.8670053 125.3996,59.6600535 C125.5532,59.4531016 125.63,59.1908021 125.63,58.8731551 C125.63,58.4592513 125.5052,58.1464171 125.2556,57.9346524 C125.006,57.7228877 124.6916,57.5592513 124.3124,57.4437433 C123.9332,57.3282353 123.5252,57.234385 123.0884,57.1621925 C122.6516,57.09 122.2436,56.9817112 121.8644,56.8373262 C121.4852,56.6929412 121.1708,56.4883957 120.9212,56.2236898 C120.6716,55.958984 120.5468,55.5715508 120.5468,55.0613904 C120.5468,54.695615 120.6284,54.39 120.7916,54.1445455 C120.9548,53.8990909 121.1636,53.7041711 121.418,53.5597861 C121.6724,53.4154011 121.958,53.3119251 122.2748,53.2493583 C122.5916,53.1867914 122.9084,53.155508 123.2252,53.155508 C123.6092,53.155508 123.9692,53.1988235 124.3052,53.2854545 C124.6412,53.3720856 124.9316,53.5116578 125.1764,53.7041711 C125.4212,53.8966845 125.6132,54.142139 125.7524,54.4405348 C125.8916,54.7389305 125.9612,55.099893 125.9612,55.5234225 L125.414,55.5234225 C125.414,55.1865241 125.3588,54.897754 125.2484,54.6571123 C125.138,54.4164706 124.9844,54.2215508 124.7876,54.0723529 C124.5908,53.9231551 124.358,53.8124599 124.0892,53.7402674 C123.8204,53.6680749 123.5324,53.6319786 123.2252,53.6319786 C122.9756,53.6319786 122.7236,53.6560428 122.4692,53.7041711 C122.2148,53.7522995 121.9868,53.8341176 121.7852,53.9496257 C121.5836,54.0651337 121.418,54.2143316 121.2884,54.3972193 C121.1588,54.580107 121.094,54.8014973 121.094,55.0613904 C121.094,55.3597861 121.166,55.6004278 121.31,55.7833155 C121.454,55.9662032 121.6436,56.1129947 121.8788,56.2236898 C122.114,56.334385 122.378,56.4234225 122.6708,56.4908021 C122.9636,56.5581818 123.2588,56.6255615 123.5564,56.6929412 C123.9212,56.7603209 124.2644,56.8397326 124.586,56.9311765 C124.9076,57.0226203 125.186,57.147754 125.4212,57.3065775 C125.6564,57.4654011 125.8412,57.6699465 125.9756,57.9202139 C126.11,58.1704813 126.1772,58.4881283 126.1772,58.8731551 C126.1772,59.2774332 126.086,59.6095187 125.9036,59.8694118 C125.7212,60.1293048 125.4908,60.3386631 125.2124,60.4974866 C124.934,60.6563102 124.6244,60.7670053 124.2836,60.8295722 C123.9428,60.892139 123.6092,60.9234225 123.2828,60.9234225 C122.8604,60.9234225 122.4692,60.8680749 122.1092,60.7573797 C121.7492,60.6466845 121.4348,60.4782353 121.166,60.2520321 C120.8972,60.0258289 120.686,59.7490909 120.5324,59.4218182 C120.3788,59.0945455 120.2972,58.7143316 120.2876,58.2811765 L120.8348,58.2811765 Z" id="Fill-14" fill="#AAAAAA"></path>
                        <path d="M127.1564,57.0394652 C127.1564,56.5100535 127.2308,56.0119251 127.3796,55.5450802 C127.5284,55.0782353 127.7468,54.666738 128.0348,54.3105882 C128.3228,53.9544385 128.678,53.6728877 129.1004,53.4659358 C129.5228,53.258984 130.0076,53.155508 130.5548,53.155508 C131.102,53.155508 131.5868,53.258984 132.0092,53.4659358 C132.4316,53.6728877 132.7868,53.9544385 133.0748,54.3105882 C133.3628,54.666738 133.5812,55.0782353 133.73,55.5450802 C133.8788,56.0119251 133.9532,56.5100535 133.9532,57.0394652 C133.9532,57.568877 133.8788,58.0694118 133.73,58.5410695 C133.5812,59.0127273 133.3628,59.4242246 133.0748,59.7755615 C132.7868,60.1268984 132.4316,60.4060428 132.0092,60.6129947 C131.5868,60.8199465 131.102,60.9234225 130.5548,60.9234225 C130.0076,60.9234225 129.5228,60.8199465 129.1004,60.6129947 C128.678,60.4060428 128.3228,60.1268984 128.0348,59.7755615 C127.7468,59.4242246 127.5284,59.0127273 127.3796,58.5410695 C127.2308,58.0694118 127.1564,57.568877 127.1564,57.0394652 Z M127.7036,57.0394652 C127.7036,57.482246 127.766,57.9081818 127.8908,58.3172727 C128.0156,58.7263636 128.198,59.0897326 128.438,59.4073797 C128.678,59.7250267 128.9756,59.9777005 129.3308,60.1654011 C129.686,60.3531016 130.094,60.4469519 130.5548,60.4469519 C131.0156,60.4469519 131.4236,60.3531016 131.7788,60.1654011 C132.134,59.9777005 132.4316,59.7250267 132.6716,59.4073797 C132.9116,59.0897326 133.094,58.7263636 133.2188,58.3172727 C133.3436,57.9081818 133.406,57.482246 133.406,57.0394652 C133.406,56.5966845 133.3436,56.1707487 133.2188,55.7616578 C133.094,55.3525668 132.9116,54.9891979 132.6716,54.6715508 C132.4316,54.3539037 132.134,54.1012299 131.7788,53.9135294 C131.4236,53.7258289 131.0156,53.6319786 130.5548,53.6319786 C130.094,53.6319786 129.686,53.7258289 129.3308,53.9135294 C128.9756,54.1012299 128.678,54.3539037 128.438,54.6715508 C128.198,54.9891979 128.0156,55.3525668 127.8908,55.7616578 C127.766,56.1707487 127.7036,56.5966845 127.7036,57.0394652 Z" id="Fill-15" fill="#AAAAAA"></path>
                        <path d="M134.4284,53.8052406 L134.4284,53.3287701 L135.7532,53.3287701 L135.7532,51.7982888 C135.7532,51.5383957 135.7964,51.3145989 135.8828,51.1268984 C135.9692,50.9391979 136.0868,50.7875936 136.2356,50.6720856 C136.3844,50.5565775 136.5572,50.4699465 136.754,50.4121925 C136.9508,50.3544385 137.1596,50.3255615 137.3804,50.3255615 C137.5436,50.3255615 137.7596,50.3496257 138.0284,50.397754 L138.0284,50.8742246 C137.7596,50.8260963 137.5436,50.8020321 137.3804,50.8020321 C137.0732,50.8020321 136.8164,50.8718182 136.61,51.0113904 C136.4036,51.1509626 136.3004,51.4277005 136.3004,51.8416043 L136.3004,53.3287701 L137.8412,53.3287701 L137.8412,53.8052406 L136.3004,53.8052406 L136.3004,60.7501604 L135.7532,60.7501604 L135.7532,53.8052406 L134.4284,53.8052406 Z" id="Fill-16" fill="#AAAAAA"></path>
                        <path d="M141.4268,53.8052366 L139.814,53.8052366 L139.814,58.9886591 C139.814,59.2870548 139.8476,59.5228837 139.9148,59.6961457 C139.982,59.8694078 140.0852,60.0017607 140.2244,60.0932045 C140.3636,60.1846484 140.5316,60.239996 140.7284,60.2592473 C140.9252,60.2784987 141.1532,60.2833115 141.4124,60.2736858 L141.4124,60.7501564 C141.134,60.7694078 140.8628,60.7670013 140.5988,60.7429372 C140.3348,60.718873 140.102,60.6466805 139.9004,60.5263596 C139.6988,60.4060388 139.538,60.2255575 139.418,59.9849158 C139.298,59.7442741 139.2476,59.4121885 139.2668,58.9886591 L139.2668,53.8052366 L137.8988,53.8052366 L137.8988,53.328766 L139.2668,53.328766 L139.2668,51.0186056 L139.814,51.0186056 L139.814,53.328766 L141.4268,53.328766 L141.4268,53.8052366 Z" id="Fill-17" fill="#AAAAAA"></path>
                        <polygon id="Fill-18" fill="#AAAAAA" points="144.278 60.1148663 144.3068 60.1148663 146.3228 53.3287701 147.0572 53.3287701 149.0876 60.1148663 149.1164 60.1148663 151.19 53.3287701 151.7948 53.3287701 149.4188 60.7501604 148.742 60.7501604 146.7116 54.0218182 146.6828 54.0218182 144.638 60.7501604 143.9468 60.7501604 141.5996 53.3287701 142.19 53.3287701"></polygon>
                        <path d="M157.4828,59.2774332 L157.454,59.2774332 C157.3676,59.4988235 157.2428,59.7081818 157.0796,59.905508 C156.9164,60.1028342 156.7172,60.2785027 156.482,60.4325134 C156.2468,60.5865241 155.9804,60.7068449 155.6828,60.7934759 C155.3852,60.880107 155.0588,60.9234225 154.7036,60.9234225 C153.9164,60.9234225 153.3068,60.7525668 152.8748,60.4108556 C152.4428,60.0691444 152.2268,59.542139 152.2268,58.8298396 C152.2268,58.3966845 152.3132,58.0429412 152.486,57.7686096 C152.6588,57.4942781 152.8772,57.2777005 153.1412,57.118877 C153.4052,56.9600535 153.698,56.8469519 154.0196,56.7795722 C154.3412,56.7121925 154.6508,56.6640642 154.9484,56.6351872 L155.798,56.5629947 C156.1916,56.5341176 156.5012,56.4883957 156.7268,56.4258289 C156.9524,56.363262 157.1228,56.276631 157.238,56.1659358 C157.3532,56.0552406 157.4252,55.913262 157.454,55.74 C157.4828,55.566738 157.4972,55.3501604 157.4972,55.0902674 C157.4972,54.8881283 157.4588,54.7004278 157.382,54.5271658 C157.3052,54.3539037 157.1852,54.199893 157.022,54.0651337 C156.8588,53.9303743 156.6476,53.824492 156.3884,53.7474866 C156.1292,53.6704813 155.8124,53.6319786 155.438,53.6319786 C154.7756,53.6319786 154.2404,53.795615 153.8324,54.1228877 C153.4244,54.4501604 153.2012,54.9458824 153.1628,55.6100535 L152.6156,55.6100535 C152.654,54.7918717 152.9156,54.1782353 153.4004,53.7691444 C153.8852,53.3600535 154.574,53.155508 155.4668,53.155508 C156.3596,53.155508 157.01,53.3311765 157.418,53.6825134 C157.826,54.0338503 158.03,54.4934759 158.03,55.0613904 L158.03,59.3785027 C158.03,59.484385 158.0324,59.5902674 158.0372,59.6961497 C158.042,59.8020321 158.0588,59.8982888 158.0876,59.9849198 C158.1164,60.0715508 158.1644,60.1413369 158.2316,60.1942781 C158.2988,60.2472193 158.3948,60.2736898 158.5196,60.2736898 C158.6156,60.2736898 158.75,60.2592513 158.9228,60.2303743 L158.9228,60.6924064 C158.7788,60.7309091 158.63,60.7501604 158.4764,60.7501604 C158.2556,60.7501604 158.0804,60.7212834 157.9508,60.6635294 C157.8212,60.6057754 157.7228,60.5287701 157.6556,60.4325134 C157.5884,60.3362567 157.5428,60.2231551 157.5188,60.0932086 C157.4948,59.963262 157.4828,59.8212834 157.4828,59.6672727 L157.4828,59.2774332 Z M157.4828,56.5341176 C157.3484,56.697754 157.1444,56.8084492 156.8708,56.8662032 C156.5972,56.9239572 156.2924,56.9672727 155.9564,56.9961497 L155.0348,57.0827807 C154.766,57.1116578 154.4972,57.1525668 154.2284,57.205508 C153.9596,57.2584492 153.7172,57.3474866 153.5012,57.4726203 C153.2852,57.597754 153.11,57.7686096 152.9756,57.9851872 C152.8412,58.2017647 152.774,58.4833155 152.774,58.8298396 C152.774,59.3785027 152.9468,59.7851872 153.2924,60.049893 C153.638,60.3145989 154.1132,60.4469519 154.718,60.4469519 C155.342,60.4469519 155.8364,60.3338503 156.2012,60.1076471 C156.566,59.8814439 156.8444,59.6215508 157.0364,59.3279679 C157.2284,59.034385 157.3508,58.7504278 157.4036,58.4760963 C157.4564,58.2017647 157.4828,58.0164706 157.4828,57.9202139 L157.4828,56.5341176 Z" id="Fill-19" fill="#AAAAAA"></path>
                        <path d="M160.3196,54.9747594 L160.3628,54.9747594 C160.43,54.7341176 160.5524,54.5079144 160.73,54.2961497 C160.9076,54.084385 161.1236,53.9014973 161.378,53.7474866 C161.6324,53.5934759 161.9156,53.4755615 162.2276,53.3937433 C162.5396,53.3119251 162.8636,53.2758289 163.1996,53.2854545 L163.1996,53.8341176 C162.9116,53.795615 162.5828,53.824492 162.2132,53.9207487 C161.8436,54.0170053 161.4908,54.2287701 161.1548,54.5560428 C161.0204,54.7004278 160.9028,54.84 160.802,54.9747594 C160.7012,55.1095187 160.6172,55.2587166 160.55,55.4223529 C160.4828,55.5859893 160.43,55.768877 160.3916,55.971016 C160.3532,56.1731551 160.3292,56.4137968 160.3196,56.6929412 L160.3196,60.7501604 L159.7724,60.7501604 L159.7724,53.3287701 L160.3196,53.3287701 L160.3196,54.9747594 Z" id="Fill-20" fill="#AAAAAA"></path>
                        <path d="M163.8188,57.1116578 L163.8188,57.1982888 C163.8188,57.6314439 163.8764,58.0453476 163.9916,58.44 C164.1068,58.8346524 164.2772,59.1811765 164.5028,59.4795722 C164.7284,59.7779679 165.0116,60.0137968 165.3524,60.1870588 C165.6932,60.3603209 166.0892,60.4469519 166.5404,60.4469519 C167.2796,60.4469519 167.8652,60.2520321 168.2972,59.8621925 C168.7292,59.4723529 169.0268,58.9309091 169.19,58.237861 L169.7372,58.237861 C169.574,59.1041711 169.2212,59.7683422 168.6788,60.2303743 C168.1364,60.6924064 167.4188,60.9234225 166.526,60.9234225 C165.9788,60.9234225 165.5012,60.8247594 165.0932,60.6274332 C164.6852,60.430107 164.3444,60.1605882 164.0708,59.818877 C163.7972,59.4771658 163.5932,59.0728877 163.4588,58.6060428 C163.3244,58.1391979 163.2572,57.6362567 163.2572,57.0972193 C163.2572,56.5774332 163.3268,56.0793048 163.466,55.6028342 C163.6052,55.1263636 163.814,54.7076471 164.0924,54.3466845 C164.3708,53.9857219 164.7188,53.6969519 165.1364,53.4803743 C165.554,53.2637968 166.046,53.155508 166.6124,53.155508 C167.1308,53.155508 167.5892,53.2517647 167.9876,53.4442781 C168.386,53.6367914 168.7196,53.8990909 168.9884,54.2311765 C169.2572,54.563262 169.4612,54.9482888 169.6004,55.3862567 C169.7396,55.8242246 169.8092,56.2934759 169.8092,56.7940107 C169.8092,56.842139 169.8068,56.8974866 169.802,56.9600535 C169.7972,57.0226203 169.7948,57.0731551 169.7948,57.1116578 L163.8188,57.1116578 Z M169.2476,56.6351872 C169.2284,56.2309091 169.1612,55.8482888 169.046,55.4873262 C168.9308,55.1263636 168.7604,54.8087166 168.5348,54.534385 C168.3092,54.2600535 168.0356,54.0410695 167.714,53.8774332 C167.3924,53.7137968 167.0252,53.6319786 166.6124,53.6319786 C166.1708,53.6319786 165.782,53.7162032 165.446,53.8846524 C165.11,54.0531016 164.8268,54.274492 164.5964,54.5488235 C164.366,54.8231551 164.1884,55.1432086 164.0636,55.508984 C163.9388,55.8747594 163.862,56.2501604 163.8332,56.6351872 L169.2476,56.6351872 Z" id="Fill-21" fill="#AAAAAA"></path>
                        <path d="M175.2956,57.1116578 L175.2956,57.1982888 C175.2956,57.6314439 175.3532,58.0453476 175.4684,58.44 C175.5836,58.8346524 175.754,59.1811765 175.9796,59.4795722 C176.2052,59.7779679 176.4884,60.0137968 176.8292,60.1870588 C177.17,60.3603209 177.566,60.4469519 178.0172,60.4469519 C178.7564,60.4469519 179.342,60.2520321 179.774,59.8621925 C180.206,59.4723529 180.5036,58.9309091 180.6668,58.237861 L181.214,58.237861 C181.0508,59.1041711 180.698,59.7683422 180.1556,60.2303743 C179.6132,60.6924064 178.8956,60.9234225 178.0028,60.9234225 C177.4556,60.9234225 176.978,60.8247594 176.57,60.6274332 C176.162,60.430107 175.8212,60.1605882 175.5476,59.818877 C175.274,59.4771658 175.07,59.0728877 174.9356,58.6060428 C174.8012,58.1391979 174.734,57.6362567 174.734,57.0972193 C174.734,56.5774332 174.8036,56.0793048 174.9428,55.6028342 C175.082,55.1263636 175.2908,54.7076471 175.5692,54.3466845 C175.8476,53.9857219 176.1956,53.6969519 176.6132,53.4803743 C177.0308,53.2637968 177.5228,53.155508 178.0892,53.155508 C178.6076,53.155508 179.066,53.2517647 179.4644,53.4442781 C179.8628,53.6367914 180.1964,53.8990909 180.4652,54.2311765 C180.734,54.563262 180.938,54.9482888 181.0772,55.3862567 C181.2164,55.8242246 181.286,56.2934759 181.286,56.7940107 C181.286,56.842139 181.2836,56.8974866 181.2788,56.9600535 C181.274,57.0226203 181.2716,57.0731551 181.2716,57.1116578 L175.2956,57.1116578 Z M180.7244,56.6351872 C180.7052,56.2309091 180.638,55.8482888 180.5228,55.4873262 C180.4076,55.1263636 180.2372,54.8087166 180.0116,54.534385 C179.786,54.2600535 179.5124,54.0410695 179.1908,53.8774332 C178.8692,53.7137968 178.502,53.6319786 178.0892,53.6319786 C177.6476,53.6319786 177.2588,53.7162032 176.9228,53.8846524 C176.5868,54.0531016 176.3036,54.274492 176.0732,54.5488235 C175.8428,54.8231551 175.6652,55.1432086 175.5404,55.508984 C175.4156,55.8747594 175.3388,56.2501604 175.31,56.6351872 L180.7244,56.6351872 Z" id="Fill-22" fill="#AAAAAA"></path>
                        <polygon id="Fill-23" fill="#AAAAAA" points="184.3964 56.8517647 181.6892 53.3287701 182.4524 53.3287701 184.7708 56.4330481 187.1036 53.3287701 187.8092 53.3287701 185.1308 56.8517647 188.054 60.7501604 187.3052 60.7501604 184.7708 57.2704813 182.1788 60.7501604 181.4876 60.7501604"></polygon>
                        <path d="M189.4508,55.0325134 L189.4796,55.0325134 C189.5372,54.8496257 189.6332,54.6474866 189.7676,54.4260963 C189.902,54.2047059 190.0796,54.0001604 190.3004,53.8124599 C190.5212,53.6247594 190.7876,53.4683422 191.0996,53.3432086 C191.4116,53.2180749 191.7692,53.155508 192.1724,53.155508 C192.7388,53.155508 193.2308,53.2613904 193.6484,53.4731551 C194.066,53.6849198 194.4116,53.968877 194.6852,54.3250267 C194.9588,54.6811765 195.1628,55.0950802 195.2972,55.566738 C195.4316,56.0383957 195.4988,56.5341176 195.4988,57.0539037 C195.4988,57.6218182 195.4316,58.1416043 195.2972,58.613262 C195.1628,59.0849198 194.9588,59.4916043 194.6852,59.8333155 C194.4116,60.1750267 194.066,60.442139 193.6484,60.6346524 C193.2308,60.8271658 192.7388,60.9234225 192.1724,60.9234225 C191.558,60.9234225 191.0108,60.7886631 190.5308,60.5191444 C190.0508,60.2496257 189.7004,59.8116578 189.4796,59.2052406 L189.4508,59.2052406 L189.4508,63.4068449 L188.9036,63.4068449 L188.9036,53.3287701 L189.4508,53.3287701 L189.4508,55.0325134 Z M192.1724,60.4469519 C192.6524,60.4469519 193.0676,60.355508 193.418,60.1726203 C193.7684,59.9897326 194.0564,59.7442781 194.282,59.4362567 C194.5076,59.1282353 194.6756,58.7696791 194.786,58.3605882 C194.8964,57.9514973 194.9516,57.5159358 194.9516,57.0539037 C194.9516,56.6303743 194.8988,56.2140642 194.7932,55.8049733 C194.6876,55.3958824 194.5244,55.030107 194.3036,54.7076471 C194.0828,54.3851872 193.7972,54.1252941 193.4468,53.9279679 C193.0964,53.7306417 192.6716,53.6319786 192.1724,53.6319786 C191.6828,53.6319786 191.2652,53.7282353 190.9196,53.9207487 C190.574,54.113262 190.2932,54.3683422 190.0772,54.6859893 C189.8612,55.0036364 189.7052,55.3670053 189.6092,55.7760963 C189.5132,56.1851872 189.4652,56.611123 189.4652,57.0539037 C189.4652,57.4966845 189.5084,57.9226203 189.5948,58.3317112 C189.6812,58.7408021 189.8276,59.1017647 190.034,59.4145989 C190.2404,59.7274332 190.5188,59.9777005 190.8692,60.1654011 C191.2196,60.3531016 191.654,60.4469519 192.1724,60.4469519 Z" id="Fill-24" fill="#AAAAAA"></path>
                        <path d="M196.9964,57.1116578 L196.9964,57.1982888 C196.9964,57.6314439 197.054,58.0453476 197.1692,58.44 C197.2844,58.8346524 197.4548,59.1811765 197.6804,59.4795722 C197.906,59.7779679 198.1892,60.0137968 198.53,60.1870588 C198.8708,60.3603209 199.2668,60.4469519 199.718,60.4469519 C200.4572,60.4469519 201.0428,60.2520321 201.4748,59.8621925 C201.9068,59.4723529 202.2044,58.9309091 202.3676,58.237861 L202.9148,58.237861 C202.7516,59.1041711 202.3988,59.7683422 201.8564,60.2303743 C201.314,60.6924064 200.5964,60.9234225 199.7036,60.9234225 C199.1564,60.9234225 198.6788,60.8247594 198.2708,60.6274332 C197.8628,60.430107 197.522,60.1605882 197.2484,59.818877 C196.9748,59.4771658 196.7708,59.0728877 196.6364,58.6060428 C196.502,58.1391979 196.4348,57.6362567 196.4348,57.0972193 C196.4348,56.5774332 196.5044,56.0793048 196.6436,55.6028342 C196.7828,55.1263636 196.9916,54.7076471 197.27,54.3466845 C197.5484,53.9857219 197.8964,53.6969519 198.314,53.4803743 C198.7316,53.2637968 199.2236,53.155508 199.79,53.155508 C200.3084,53.155508 200.7668,53.2517647 201.1652,53.4442781 C201.5636,53.6367914 201.8972,53.8990909 202.166,54.2311765 C202.4348,54.563262 202.6388,54.9482888 202.778,55.3862567 C202.9172,55.8242246 202.9868,56.2934759 202.9868,56.7940107 C202.9868,56.842139 202.9844,56.8974866 202.9796,56.9600535 C202.9748,57.0226203 202.9724,57.0731551 202.9724,57.1116578 L196.9964,57.1116578 Z M202.4252,56.6351872 C202.406,56.2309091 202.3388,55.8482888 202.2236,55.4873262 C202.1084,55.1263636 201.938,54.8087166 201.7124,54.534385 C201.4868,54.2600535 201.2132,54.0410695 200.8916,53.8774332 C200.57,53.7137968 200.2028,53.6319786 199.79,53.6319786 C199.3484,53.6319786 198.9596,53.7162032 198.6236,53.8846524 C198.2876,54.0531016 198.0044,54.274492 197.774,54.5488235 C197.5436,54.8231551 197.366,55.1432086 197.2412,55.508984 C197.1164,55.8747594 197.0396,56.2501604 197.0108,56.6351872 L202.4252,56.6351872 Z" id="Fill-25" fill="#AAAAAA"></path>
                        <path d="M204.8012,54.9747594 L204.8444,54.9747594 C204.9116,54.7341176 205.034,54.5079144 205.2116,54.2961497 C205.3892,54.084385 205.6052,53.9014973 205.8596,53.7474866 C206.114,53.5934759 206.3972,53.4755615 206.7092,53.3937433 C207.0212,53.3119251 207.3452,53.2758289 207.6812,53.2854545 L207.6812,53.8341176 C207.3932,53.795615 207.0644,53.824492 206.6948,53.9207487 C206.3252,54.0170053 205.9724,54.2287701 205.6364,54.5560428 C205.502,54.7004278 205.3844,54.84 205.2836,54.9747594 C205.1828,55.1095187 205.0988,55.2587166 205.0316,55.4223529 C204.9644,55.5859893 204.9116,55.768877 204.8732,55.971016 C204.8348,56.1731551 204.8108,56.4137968 204.8012,56.6929412 L204.8012,60.7501604 L204.254,60.7501604 L204.254,53.3287701 L204.8012,53.3287701 L204.8012,54.9747594 Z" id="Fill-26" fill="#AAAAAA"></path>
                        <path d="M211.35324,53.8052366 L209.74044,53.8052366 L209.74044,58.9886591 C209.74044,59.2870548 209.77404,59.5228837 209.84124,59.6961457 C209.90844,59.8694078 210.01164,60.0017607 210.15084,60.0932045 C210.29004,60.1846484 210.45804,60.239996 210.65484,60.2592473 C210.85164,60.2784987 211.07964,60.2833115 211.33884,60.2736858 L211.33884,60.7501564 C211.06044,60.7694078 210.78924,60.7670013 210.52524,60.7429372 C210.26124,60.718873 210.02844,60.6466805 209.82684,60.5263596 C209.62524,60.4060388 209.46444,60.2255575 209.34444,59.9849158 C209.22444,59.7442741 209.17404,59.4121885 209.19324,58.9886591 L209.19324,53.8052366 L207.82524,53.8052366 L207.82524,53.328766 L209.19324,53.328766 L209.19324,51.0186056 L209.74044,51.0186056 L209.74044,53.328766 L211.35324,53.328766 L211.35324,53.8052366 Z" id="Fill-27" fill="#AAAAAA"></path>
                        <path d="M212.6204,58.2811765 C212.6396,58.6277005 212.7164,58.9333155 212.8508,59.1980214 C212.9852,59.4627273 213.1604,59.6889305 213.3764,59.876631 C213.5924,60.0643316 213.8444,60.2063102 214.1324,60.3025668 C214.4204,60.3988235 214.7324,60.4469519 215.0684,60.4469519 C215.3084,60.4469519 215.5652,60.4252941 215.8388,60.3819786 C216.1124,60.3386631 216.3668,60.2592513 216.602,60.1437433 C216.8372,60.0282353 217.0316,59.8670053 217.1852,59.6600535 C217.3388,59.4531016 217.4156,59.1908021 217.4156,58.8731551 C217.4156,58.4592513 217.2908,58.1464171 217.0412,57.9346524 C216.7916,57.7228877 216.4772,57.5592513 216.098,57.4437433 C215.7188,57.3282353 215.3108,57.234385 214.874,57.1621925 C214.4372,57.09 214.0292,56.9817112 213.65,56.8373262 C213.2708,56.6929412 212.9564,56.4883957 212.7068,56.2236898 C212.4572,55.958984 212.3324,55.5715508 212.3324,55.0613904 C212.3324,54.695615 212.414,54.39 212.5772,54.1445455 C212.7404,53.8990909 212.9492,53.7041711 213.2036,53.5597861 C213.458,53.4154011 213.7436,53.3119251 214.0604,53.2493583 C214.3772,53.1867914 214.694,53.155508 215.0108,53.155508 C215.3948,53.155508 215.7548,53.1988235 216.0908,53.2854545 C216.4268,53.3720856 216.7172,53.5116578 216.962,53.7041711 C217.2068,53.8966845 217.3988,54.142139 217.538,54.4405348 C217.6772,54.7389305 217.7468,55.099893 217.7468,55.5234225 L217.1996,55.5234225 C217.1996,55.1865241 217.1444,54.897754 217.034,54.6571123 C216.9236,54.4164706 216.77,54.2215508 216.5732,54.0723529 C216.3764,53.9231551 216.1436,53.8124599 215.8748,53.7402674 C215.606,53.6680749 215.318,53.6319786 215.0108,53.6319786 C214.7612,53.6319786 214.5092,53.6560428 214.2548,53.7041711 C214.0004,53.7522995 213.7724,53.8341176 213.5708,53.9496257 C213.3692,54.0651337 213.2036,54.2143316 213.074,54.3972193 C212.9444,54.580107 212.8796,54.8014973 212.8796,55.0613904 C212.8796,55.3597861 212.9516,55.6004278 213.0956,55.7833155 C213.2396,55.9662032 213.4292,56.1129947 213.6644,56.2236898 C213.8996,56.334385 214.1636,56.4234225 214.4564,56.4908021 C214.7492,56.5581818 215.0444,56.6255615 215.342,56.6929412 C215.7068,56.7603209 216.05,56.8397326 216.3716,56.9311765 C216.6932,57.0226203 216.9716,57.147754 217.2068,57.3065775 C217.442,57.4654011 217.6268,57.6699465 217.7612,57.9202139 C217.8956,58.1704813 217.9628,58.4881283 217.9628,58.8731551 C217.9628,59.2774332 217.8716,59.6095187 217.6892,59.8694118 C217.5068,60.1293048 217.2764,60.3386631 216.998,60.4974866 C216.7196,60.6563102 216.41,60.7670053 216.0692,60.8295722 C215.7284,60.892139 215.3948,60.9234225 215.0684,60.9234225 C214.646,60.9234225 214.2548,60.8680749 213.8948,60.7573797 C213.5348,60.6466845 213.2204,60.4782353 212.9516,60.2520321 C212.6828,60.0258289 212.4716,59.7490909 212.318,59.4218182 C212.1644,59.0945455 212.0828,58.7143316 212.0732,58.2811765 L212.6204,58.2811765 Z" id="Fill-28" fill="#AAAAAA"></path>
                        <path d="M1.34524,64.5399826 C11.65004,80.8683249 62.15924,73.1465334 62.15924,73.1465334 C73.29484,71.3192607 77.97444,62.8374425 77.84724,52.3935922 C63.58444,63.0516136 11.15964,75.1831644 2.02844,61.4064265 C-7.2411592,39.7498757 47.99644,17.6702005 66.12004,19.6627139 C55.36964,3.53811497 39.01284,-6.84677807 25.92924,5.95054813 C25.92924,5.95054813 -6.67915912,46.876881 1.34524,64.5399826" id="Fill-29" fill="#D8232A"></path>
                        <path d="M109.8444,32.5250535 L112.0368,32.5250535 C111.7816,30.4547326 110.987,28.9078075 109.653,27.8842781 C108.319,26.8607487 106.6892,26.348984 104.7636,26.348984 C103.3948,26.348984 102.1826,26.6048663 101.127,27.116631 C100.0714,27.6283957 99.184,28.3146257 98.4648,29.1753209 C97.7456,30.036016 97.2004,31.0420989 96.8292,32.1935695 C96.458,33.3450401 96.2724,34.5721123 96.2724,35.8747861 C96.2724,37.1774599 96.458,38.4045321 96.8292,39.5559987 C97.2004,40.7074693 97.7456,41.7135521 98.4648,42.5742473 C99.184,43.4349425 100.0714,44.115357 101.127,44.6154866 C102.1826,45.1156203 103.3948,45.3656872 104.7636,45.3656872 C106.8052,45.3656872 108.4756,44.7550588 109.7748,43.5338021 C111.074,42.3125455 111.8744,40.6086016 112.176,38.4219786 L109.9836,38.4219786 C109.914,39.1663596 109.7284,39.8525896 109.4268,40.4806644 C109.1252,41.1087393 108.7424,41.6495816 108.2784,42.1031912 C107.8144,42.5568008 107.2808,42.9115468 106.6776,43.1674251 C106.0744,43.4233075 105.4364,43.5512487 104.7636,43.5512487 C103.7196,43.5512487 102.8032,43.3302594 102.0144,42.8882807 C101.2256,42.4463021 100.5702,41.8647513 100.0482,41.1436324 C99.5262,40.4225094 99.1318,39.6025227 98.865,38.6836725 C98.5982,37.7648262 98.4648,36.8285294 98.4648,35.8747861 C98.4648,34.9210428 98.5982,33.984746 98.865,33.0658957 C99.1318,32.1470455 99.5262,31.3270588 100.0482,30.6059358 C100.5702,29.8848128 101.2256,29.303262 102.0144,28.8612834 C102.8032,28.4193048 103.7196,28.1983155 104.7636,28.1983155 C106.2252,28.1983155 107.362,28.582139 108.174,29.3497861 C108.986,30.1174332 109.5428,31.1758556 109.8444,32.5250535 Z" id="Fill-30" fill="#1A1919"></path>
                        <path d="M122.8248,28.1983155 C123.8688,28.1983155 124.7852,28.4193048 125.574,28.8612834 C126.3628,29.303262 127.0182,29.8848128 127.5402,30.6059358 C128.0622,31.3270588 128.4566,32.1470455 128.7234,33.0658957 C128.9902,33.984746 129.1236,34.9210428 129.1236,35.8747861 C129.1236,36.8285294 128.9902,37.7648262 128.7234,38.6836725 C128.4566,39.6025227 128.0622,40.4225094 127.5402,41.1436324 C127.0182,41.8647553 126.3628,42.4463061 125.574,42.8882807 C124.7852,43.3302594 123.8688,43.5512487 122.8248,43.5512487 C121.7808,43.5512487 120.8644,43.3302594 120.0756,42.8882807 C119.2868,42.4463021 118.6314,41.8647513 118.1094,41.1436324 C117.5874,40.4225094 117.193,39.6025227 116.9262,38.6836725 C116.6594,37.7648262 116.526,36.8285294 116.526,35.8747861 C116.526,34.9210428 116.6594,33.984746 116.9262,33.0658957 C117.193,32.1470455 117.5874,31.3270588 118.1094,30.6059358 C118.6314,29.8848128 119.2868,29.303262 120.0756,28.8612834 C120.8644,28.4193048 121.7808,28.1983155 122.8248,28.1983155 Z M122.8248,26.348984 C121.456,26.348984 120.2438,26.6048663 119.1882,27.116631 C118.1326,27.6283957 117.2452,28.3146257 116.526,29.1753209 C115.8068,30.036016 115.2616,31.0420989 114.8904,32.1935695 C114.5192,33.3450401 114.3336,34.5721123 114.3336,35.8747861 C114.3336,37.1774599 114.5192,38.4045321 114.8904,39.5559987 C115.2616,40.7074693 115.8068,41.7135521 116.526,42.5742473 C117.2452,43.4349425 118.1326,44.115357 119.1882,44.6154866 C120.2438,45.1156203 121.456,45.3656872 122.8248,45.3656872 C124.1936,45.3656872 125.4058,45.1156203 126.4614,44.6154866 C127.517,44.1153529 128.4044,43.4349385 129.1236,42.5742473 C129.8428,41.7135481 130.388,40.7074652 130.7592,39.5559987 C131.1304,38.4045321 131.316,37.1774599 131.316,35.8747861 C131.316,34.5721123 131.1304,33.3450401 130.7592,32.1935695 C130.388,31.0420989 129.8428,30.036016 129.1236,29.1753209 C128.4044,28.3146257 127.517,27.6283957 126.4614,27.116631 C125.4058,26.6048663 124.1936,26.348984 122.8248,26.348984 Z" id="Fill-31" fill="#1A1919"></path>
                        <path d="M150.3864,44.8771845 L150.3864,19.9635561 L148.194,19.9635561 L148.194,30.2918984 L148.1244,30.2918984 C147.8924,29.6405615 147.5618,29.0706417 147.1326,28.582139 C146.7034,28.0936364 146.2104,27.6807353 145.6536,27.3434358 C145.0968,27.0061364 144.4994,26.7560695 143.8614,26.5932353 C143.2234,26.4304011 142.568,26.348984 141.8952,26.348984 C140.5264,26.348984 139.3374,26.6048663 138.3282,27.116631 C137.319,27.6283957 136.478,28.3204412 135.8052,29.1927674 C135.1324,30.0650936 134.6336,31.076992 134.3088,32.2284626 C133.984,33.3799332 133.8216,34.5953743 133.8216,35.8747861 C133.8216,37.1541979 133.984,38.369639 134.3088,39.5211016 C134.6336,40.6725722 135.1324,41.6844706 135.8052,42.5567968 C136.478,43.429123 137.319,44.1153529 138.3282,44.6154866 C139.3374,45.1156203 140.5264,45.3656872 141.8952,45.3656872 C142.5448,45.3656872 143.2002,45.272639 143.8614,45.0865428 C144.5226,44.9004465 145.1432,44.6387487 145.7232,44.3014492 C146.3032,43.9641497 146.8194,43.5512487 147.2718,43.062746 C147.7242,42.5742433 148.0664,42.0392166 148.2984,41.4576658 L148.368,41.4576658 L148.368,44.8771845 L150.3864,44.8771845 Z M136.014,35.8747861 C136.014,34.9443048 136.1242,34.019639 136.3446,33.1007888 C136.565,32.1819385 136.913,31.3619519 137.3886,30.6408289 C137.8642,29.9197059 138.4732,29.3323396 139.2156,28.8787299 C139.958,28.4251203 140.8512,28.1983155 141.8952,28.1983155 C143.0552,28.1983155 144.0354,28.4251203 144.8358,28.8787299 C145.6362,29.3323396 146.2858,29.9197059 146.7846,30.6408289 C147.2834,31.3619519 147.643,32.1819385 147.8634,33.1007888 C148.0838,34.019639 148.194,34.9443048 148.194,35.8747861 C148.194,36.8052674 148.0838,37.7299332 147.8634,38.6487754 C147.643,39.5676257 147.2834,40.3876123 146.7846,41.1087353 C146.2858,41.8298583 145.6362,42.4172246 144.8358,42.8708342 C144.0354,43.3244439 143.0552,43.5512487 141.8952,43.5512487 C140.8512,43.5512487 139.958,43.3244439 139.2156,42.8708342 C138.4732,42.4172246 137.8642,41.8298583 137.3886,41.1087353 C136.913,40.3876123 136.565,39.5676257 136.3446,38.6487754 C136.1242,37.7299332 136.014,36.8052674 136.014,35.8747861 Z" id="Fill-32" fill="#1A1919"></path>
                        <path d="M167.4732,34.6186364 L155.85,34.6186364 C155.9428,33.8044652 156.1342,33.0077406 156.4242,32.2284626 C156.7142,31.4491845 157.1028,30.7629545 157.59,30.1697727 C158.0772,29.5765909 158.6688,29.0997193 159.3648,28.7391578 C160.0608,28.3785963 160.8612,28.1983155 161.766,28.1983155 C162.6476,28.1983155 163.4364,28.3785963 164.1324,28.7391578 C164.8284,29.0997193 165.42,29.5765909 165.9072,30.1697727 C166.3944,30.7629545 166.7714,31.443369 167.0382,32.211016 C167.305,32.9786631 167.45,33.7812032 167.4732,34.6186364 Z M155.85,36.4679679 L169.6656,36.4679679 C169.712,35.2118182 169.596,33.973115 169.3176,32.7518583 C169.0392,31.5306016 168.581,30.4489171 167.943,29.5068048 C167.305,28.5646925 166.4756,27.802861 165.4548,27.2213102 C164.434,26.6397594 163.2044,26.348984 161.766,26.348984 C160.3508,26.348984 159.127,26.6223128 158.0946,27.1689706 C157.0622,27.7156283 156.2212,28.4367513 155.5716,29.3323396 C154.922,30.2279278 154.4406,31.2456417 154.1274,32.3854813 C153.8142,33.5253209 153.6576,34.6884225 153.6576,35.8747861 C153.6576,37.1541979 153.8142,38.369639 154.1274,39.5211056 C154.4406,40.6725762 154.922,41.6844746 155.5716,42.5568008 C156.2212,43.429127 157.0622,44.115357 158.0946,44.6154866 C159.127,45.1156203 160.3508,45.3656872 161.766,45.3656872 C164.0396,45.3656872 165.797,44.8073984 167.0382,43.6908209 C168.2794,42.5742433 169.132,40.9924251 169.596,38.9453703 L167.4036,38.9453703 C167.0556,40.3410922 166.4292,41.4576698 165.5244,42.2951029 C164.6196,43.1325361 163.3668,43.5512527 161.766,43.5512487 C160.722,43.5512487 159.8288,43.3302594 159.0864,42.8882807 C158.344,42.4463021 157.7292,41.8880134 157.242,41.2134184 C156.7548,40.5388195 156.401,39.776988 156.1806,38.9279238 C155.9602,38.0788636 155.85,37.258877 155.85,36.4679679 Z" id="Fill-33" fill="#1A1919"></path>
                        <path d="M174.3636,29.8033957 L171.4056,29.8033957 L171.9972,26.8374866 L174.9552,26.8374866 C175.164,25.7906952 175.3844,24.8485829 175.6164,24.0111497 C175.8484,23.1737166 176.1848,22.4525936 176.6256,21.8477807 C177.0664,21.2429679 177.658,20.7777273 178.4004,20.4520588 C179.1428,20.1263904 180.1172,19.9635561 181.3236,19.9635561 C181.8572,19.9635561 182.3676,19.9926337 182.8548,20.0507888 C183.342,20.1089439 183.8176,20.1612834 184.2816,20.2078075 L183.6204,23.2435027 C183.226,23.1504545 182.7156,23.1039305 182.0892,23.1039305 C181.4164,23.1039305 180.9002,23.1969786 180.5406,23.3830749 C180.181,23.5691711 179.9026,23.830869 179.7054,24.1681684 C179.5082,24.5054679 179.3632,24.9009225 179.2704,25.3545321 C179.1776,25.8081417 179.0616,26.3024599 178.9224,26.8374866 L182.4024,26.8374866 L181.8108,29.8033957 L178.3308,29.8033957 L175.1988,44.8771845 L171.2316,44.8771845 L174.3636,29.8033957 Z" id="Fill-34" fill="#1A1919"></path>
                        <polygon id="Fill-35" fill="#1A1919" points="186.2304 19.9635561 190.1976 19.9635561 185.0472 44.8771845 181.08 44.8771845"></polygon>
                        <path d="M193.5384,39.9223757 C193.5384,40.3643543 193.637,40.7307313 193.8342,41.0215067 C194.0314,41.3122821 194.2808,41.5449024 194.5824,41.7193676 C194.884,41.8938329 195.2204,42.0217741 195.5916,42.1031912 C195.9628,42.1846083 196.334,42.2253168 196.7052,42.2253168 C197.6796,42.2253168 198.4974,42.0624826 199.1586,41.7368142 C199.8198,41.4111457 200.365,40.9691671 200.7942,40.4108783 C201.2234,39.8525896 201.5598,39.1954372 201.8034,38.4394251 C202.047,37.6834091 202.2384,36.8750535 202.3776,36.0143583 L202.308,35.9445722 C202.0296,36.2237166 201.6584,36.4214439 201.1944,36.537754 C200.7304,36.6540642 200.278,36.7354813 199.8372,36.7820053 C199.2804,36.8285294 198.6366,36.8750535 197.9058,36.9215775 C197.175,36.9681016 196.4906,37.0902273 195.8526,37.2879545 C195.2146,37.4856818 194.6694,37.7880882 194.217,38.1951738 C193.7646,38.6022553 193.5384,39.1779906 193.5384,39.9223757 Z M205.4748,39.6432313 C205.4052,39.9688997 205.3298,40.2829372 205.2486,40.5853436 C205.1674,40.88775 205.1268,41.1668944 205.1268,41.4227767 C205.1268,41.6786591 205.1848,41.8763864 205.3008,42.0159586 C205.4168,42.1555307 205.6372,42.2253168 205.962,42.2253168 C206.194,42.2253168 206.426,42.1962393 206.658,42.1380842 C206.89,42.0799291 207.122,42.0392206 207.354,42.0159586 L206.7276,44.8771845 C206.2172,44.9934947 205.7068,45.1039893 205.1964,45.2086684 C204.686,45.3133476 204.164,45.3656872 203.6304,45.3656872 C202.9576,45.3656872 202.4008,45.1563289 201.96,44.7376123 C201.5192,44.3188957 201.2756,43.760607 201.2292,43.062746 C200.4404,43.8536551 199.5124,44.4352059 198.4452,44.8073984 C197.378,45.1795909 196.2876,45.3656872 195.174,45.3656872 C194.4316,45.3656872 193.724,45.261008 193.0512,45.0516497 C192.3784,44.8422914 191.781,44.539885 191.259,44.1444305 C190.737,43.7489759 190.3252,43.2488422 190.0236,42.6440294 C189.722,42.0392166 189.5712,41.3413556 189.5712,40.5504505 C189.5712,39.433873 189.78,38.4975802 190.1976,37.7415642 C190.6152,36.9855481 191.172,36.3632888 191.868,35.8747861 C192.564,35.3862834 193.3644,35.0257219 194.2692,34.7931016 C195.174,34.5604813 196.1252,34.4092781 197.1228,34.339492 C198.4684,34.2464439 199.7908,34.1417647 201.09,34.0254545 C201.8092,33.9789305 202.337,33.7404947 202.6734,33.3101471 C203.0098,32.8797995 203.178,32.3273262 203.178,31.6527273 C203.178,30.7920321 202.8764,30.2162968 202.2732,29.9255214 C201.67,29.634746 200.9624,29.4893583 200.1504,29.4893583 C199.0368,29.4893583 198.0798,29.6812701 197.2794,30.0650936 C196.479,30.4489171 195.9396,31.1991176 195.6612,32.3156952 L191.9028,32.3156952 C192.1116,31.1991176 192.4712,30.2628209 192.9816,29.5068048 C193.492,28.7507888 194.1184,28.1343449 194.8608,27.6574733 C195.6032,27.1806016 196.4442,26.8433021 197.3838,26.6455749 C198.3234,26.4478476 199.3268,26.348984 200.394,26.348984 C202.018,26.348984 203.2882,26.5060027 204.2046,26.8200401 C205.121,27.1340775 205.7938,27.5120856 206.223,27.9540642 C206.6522,28.3960428 206.9132,28.8554679 207.006,29.3323396 C207.0988,29.8092112 207.1452,30.2104813 207.1452,30.5361497 C207.1452,31.3270588 207.0292,32.2342781 206.7972,33.2578075 L205.4748,39.6432313 Z" id="Fill-36" fill="#1A1919"></path>
                        <path d="M213.966,19.9635561 L217.8984,19.9635561 L217.1328,23.7320053 L213.2004,23.7320053 L213.966,19.9635561 Z M212.5392,26.8374866 L216.5064,26.8374866 L212.7828,44.8771845 L208.8156,44.8771845 L212.5392,26.8374866 Z" id="Fill-37" fill="#1A1919"></path>
                        <path d="M220.926,26.8374866 L224.6844,26.8374866 L223.9536,30.3616845 L224.0232,30.4314706 C224.3016,29.9429679 224.6438,29.4544652 225.0498,28.9659626 C225.4558,28.4774599 225.9024,28.0412968 226.3896,27.6574733 C226.8768,27.2736497 227.4046,26.9596123 227.973,26.715361 C228.5414,26.4711096 229.1388,26.348984 229.7652,26.348984 C230.09,26.348984 230.409,26.3547995 230.7222,26.3664305 C231.0354,26.3780615 231.3544,26.407139 231.6792,26.4536631 L230.844,30.2570053 C230.612,30.2104813 230.38,30.1755882 230.148,30.1523262 C229.916,30.1290642 229.684,30.1174332 229.452,30.1174332 C228.4312,30.1174332 227.5438,30.2977139 226.7898,30.6582754 C226.0358,31.0188369 225.3978,31.5131551 224.8758,32.1412299 C224.3538,32.7693048 223.9304,33.4904278 223.6056,34.3045989 C223.2808,35.1187701 223.0256,35.9794652 222.84,36.8866845 L221.1696,44.8771885 L217.2024,44.8771885 L220.926,26.8374866 Z" id="Fill-38" fill="#1A1919"></path>
                    </g>
                </g>
            </g>
        </g>
    </g>
</svg>