<?xml version="1.0" encoding="UTF-8"?>
<svg width="45px" height="56px" viewBox="0 0 45 56" version="1.1" xmlns="http://www.w3.org/2000/svg" xmlns:xlink="http://www.w3.org/1999/xlink">
    <!-- Generator: Sketch 52.5 (67469) - http://www.bohemiancoding.com/sketch -->
    <title>ribbon</title>
    <desc>Created with Sketch.</desc>
    <g id="Page-1" stroke="none" stroke-width="1" fill="none" fill-rule="evenodd">
        <g id="Location-(inner)-001" transform="translate(-852.000000, -1074.000000)" fill-rule="nonzero">
            <g id="CAREERS-MIDMAIN" transform="translate(-320.000000, 399.000000)">
                <g id="Options" transform="translate(370.000000, 410.000000)">
                    <g id="row-2" transform="translate(101.000000, 261.000000)">
                        <g id="sss-3" transform="translate(613.333333, 4.000000)">
                            <g id="ribbon" transform="translate(88.000000, 0.000000)">
                                <path d="M37,20.4997885 C37,12.5046333 30.4953667,6 22.5002116,6 C14.5046333,6 8,12.5046333 8,20.4997885 C8,28.4953667 14.5046333,35 22.5002116,35 C30.4953667,35 37,28.4953667 37,20.4997885 Z M22.5002116,33.3748997 C15.4009778,33.3748997 9.62510033,27.5990222 9.62510033,20.4997885 C9.62510033,13.4009778 15.4009778,7.62510033 22.5002116,7.62510033 C29.5994455,7.62510033 35.3748997,13.4009778 35.3748997,20.4997885 C35.3748997,27.5990222 29.5994455,33.3748997 22.5002116,33.3748997 Z" id="Shape" fill="#08415C"></path>
                                <path d="M32.9418401,18.175653 C32.7834248,17.7137224 32.3322479,17.4036991 31.8189302,17.4036991 L25.5575915,17.4036991 L23.6229132,11.77154 C23.4640604,11.3100233 23.0128835,11 22.5000034,11 C21.9871232,11 21.5359462,11.3100233 21.3770934,11.77154 L19.4424151,17.404113 L13.1810765,17.404113 C12.6677588,17.404113 12.2165818,17.7141363 12.0581665,18.175653 C11.8997514,18.6371696 12.0721701,19.1388363 12.4870254,19.4240246 L17.552373,22.9050606 L15.6176947,28.5372197 C15.4592795,28.9987364 15.6312606,29.5008169 16.0465535,29.7860052 C16.4614087,30.0711935 17.0193628,30.0711935 17.4346557,29.7860052 L22.5000034,26.3049692 L27.565351,29.7860052 C27.7732162,29.9288063 28.0160903,30 28.2594021,30 C28.5027138,30 28.7460255,29.9288063 28.9534531,29.7860052 C29.3687461,29.5008169 29.5407272,28.9987364 29.382312,28.5372197 L27.447196,22.9050606 L32.5125437,19.4240246 C32.9278365,19.1388363 33.1002553,18.6371696 32.9418401,18.175653 Z M26.1658709,21.8210139 C25.7510157,22.1062022 25.5785969,22.6078688 25.7370121,23.0697993 L27.3084733,27.6448162 L23.1940544,24.8173539 C22.9861892,24.6745528 22.7433151,24.6033592 22.5000034,24.6033592 C22.2566916,24.6033592 22.0133799,24.6745528 21.8059522,24.8173539 L17.6915334,27.6448162 L19.2629945,23.0693855 C19.4214097,22.6078688 19.2489909,22.1062022 18.8341358,21.8210139 L14.7192793,18.9931377 L19.8056322,18.9931377 C20.3185124,18.9931377 20.7696893,18.6831143 20.9285421,18.2215977 L22.5000034,13.6461669 L24.0714646,18.2215977 C24.2303173,18.6831143 24.6814943,18.9931377 25.1943744,18.9931377 L30.2807274,18.9931377 L26.1658709,21.8210139 Z" id="Shape" fill="#CE2128"></path>
                                <path d="M43.8314775,48.0279949 L36.1281737,34.5244206 L37.4777389,34.0920465 C39.1037209,33.5716593 40.176869,32.0190431 40.0878679,30.3164632 L39.9856021,28.3609528 C39.9543662,27.7692154 40.1751574,27.1873047 40.5914944,26.7647573 L41.9671608,25.3689407 C43.1643969,24.1534225 43.3920344,22.2807982 42.5208504,20.8144859 L41.5200156,19.1307047 C41.2170696,18.6209989 41.1421888,18.0031994 41.3137727,17.4358151 L41.8820106,15.5614818 C42.3766515,13.9298248 41.7065758,12.1661485 40.2530334,11.2723474 L38.5829787,10.2452452 C38.0776406,9.93463644 37.7233477,9.42279438 37.6116684,8.84045644 L37.2423993,6.91741692 C36.921054,5.2430352 35.5068775,3.99205546 33.8034474,3.87498979 L31.8467064,3.74083412 C31.2545067,3.70024561 30.7029564,3.4109993 30.3332594,2.94743614 L29.1107777,1.41575492 C28.0470432,0.0827437255 26.2122509,-0.368429295 24.6500245,0.318156948 L22.8550259,1.10728251 C22.8550259,1.10728251 22.8550259,1.10728251 22.854598,1.10728251 C22.3116056,1.34611371 21.6885978,1.34611371 21.1451774,1.10728251 L19.3501789,0.318156948 C17.7875245,-0.368429295 15.9531602,0.0827437255 14.8889977,1.41618225 L13.6669439,2.94743614 C13.2972469,3.4109993 12.7456967,3.70024561 12.153497,3.74083412 L10.196756,3.87498979 C8.49332583,3.99205546 7.0791494,5.2430352 6.75780398,6.91741692 L6.38853488,8.84045644 C6.27642776,9.42236716 5.9225627,9.93463644 5.41722463,10.2452452 L3.74716993,11.2719202 C2.29362761,12.1657213 1.62355182,13.9298248 2.11819277,15.5614818 L2.68600272,17.4358151 C2.85801456,18.0031994 2.78313378,18.6205716 2.48018766,19.1302775 L1.47935291,20.8144859 C0.608168868,22.2803709 0.835806349,24.1534225 2.03304263,25.3685135 L3.40870902,26.7647573 C3.82461799,27.1873047 4.0458372,27.7687882 4.01460126,28.3605255 L3.91233552,30.3164632 C3.8233344,32.0186159 4.89648253,33.5712321 6.52203656,34.0920465 L7.87202955,34.5239934 L0.168725808,48.0279949 C-0.0640462982,48.436016 -0.0554884982,48.9376042 0.191404061,49.3375076 C0.438296565,49.7374109 0.88544159,49.9715423 1.35312533,49.9459075 L7.79158623,49.613082 L10.7889558,55.3129865 C11.0076075,55.7282708 11.4354975,55.9918823 11.9057486,55.9995728 C11.9130227,55.9995728 11.9202968,56 11.927571,56 C12.3892643,56 12.8162986,55.7530512 13.0452197,55.3514387 L20.8845924,41.608606 C21.2474432,41.7209721 21.6235585,41.7795049 22.0001017,41.7795049 C22.3766449,41.7795049 22.7523323,41.7209721 23.115611,41.608606 L30.9549837,55.3514387 C31.1839048,55.7530512 31.6105112,56 32.0722044,56 C32.0794786,56 32.0871806,56 32.0944548,55.9995728 C32.5647058,55.9918823 32.9925958,55.728698 33.2112476,55.3129865 L36.2081892,49.613082 L42.647078,49.9459075 C43.1186127,49.9706878 43.5619068,49.7369836 43.8083715,49.3375076 C44.055264,48.9376042 44.0642496,48.436016 43.8314775,48.0279949 Z M11.9404077,53.9735666 L9.21046948,48.7825134 L10.8223311,45.9575551 C11.0469734,45.5636331 10.9096207,45.0628995 10.5151062,44.8385947 C10.1214474,44.6147172 9.61953232,44.7518635 9.39489009,45.1453581 L7.78302843,47.9707438 L1.91922384,48.2740892 L9.32257671,35.2964563 C9.4620688,35.4524015 9.58016644,35.6288545 9.66916756,35.8219703 L10.4890048,37.6014547 C10.9143275,38.5247359 11.6811064,39.2091859 12.5869495,39.5488474 L11.3032795,41.7995856 C11.0786373,42.1930802 11.2164178,42.6942411 11.6105046,42.9185459 C11.7388715,42.9911779 11.8787915,43.0257849 12.0165722,43.0257849 C12.3019748,43.0257849 12.5796754,42.8771029 12.7311484,42.6113552 L14.3567026,39.7620437 C14.4234534,39.7539261 14.4902042,39.7449538 14.5569551,39.732991 L16.4893063,39.3958929 C17.0733762,39.2937808 17.6784127,39.4428901 18.1486638,39.8043412 L19.4515888,40.8062359 L11.9404077,53.9735666 Z M23.0681151,39.8496294 C23.0651199,39.8513384 23.0625525,39.8521929 23.0599852,39.8539019 C23.0557063,39.8564654 23.0514274,39.8594561 23.0471486,39.8620196 C22.3988952,40.2298794 21.6013082,40.2298794 20.9530548,39.8620196 C20.948776,39.8594561 20.9449249,39.8564654 20.9402181,39.8539019 C20.9376508,39.8521929 20.9350835,39.8513384 20.9325161,39.8496294 C20.8546401,39.8043412 20.7784757,39.7556351 20.7057345,39.6996656 L19.151638,38.5046553 C18.4896921,37.9953767 17.677129,37.7236475 16.8513013,37.7236475 C16.6365005,37.7236475 16.4208439,37.7424464 16.2064711,37.7796168 L14.2741198,38.1167149 C14.1496038,38.1385044 14.0250878,38.1483311 13.9018555,38.1479039 C13.8915861,38.1474767 13.8817446,38.1470495 13.8719032,38.1470495 C13.0696094,38.1329502 12.3267924,37.6642601 11.981913,36.9152958 L11.1620759,35.1362386 C10.8116339,34.3753113 10.2147273,33.7570847 9.48004023,33.3742712 C9.47832867,33.3734166 9.47704497,33.372135 9.47533341,33.3712804 C9.4706266,33.368717 9.46591978,33.3665807 9.46164093,33.3644445 C9.44409747,33.3554723 9.42655401,33.3465001 9.40901044,33.3379552 C9.40473159,33.3358189 9.40130847,33.3341099 9.39702952,33.3324009 C9.23443132,33.2525058 9.06584271,33.1837189 8.89169145,33.1277495 L7.02395162,32.5300308 C6.10783904,32.2365119 5.50280263,31.3615097 5.5532936,30.4023398 L5.65555934,28.4464022 C5.71032926,27.3962287 5.31838201,26.3639995 4.57984392,25.6146079 L3.2046054,24.2183641 C2.5298229,23.5334869 2.4014559,22.4781864 2.89224576,21.6518904 L3.89308039,19.967682 C4.43051023,19.0631997 4.56401191,17.9673107 4.25892637,16.9607163 L3.69068845,15.086383 C3.41170416,14.166947 3.78953106,13.1727428 4.60894044,12.6694457 L6.27899504,11.6423434 C7.17585249,11.0907674 7.80399512,10.1824398 8.00210811,9.14935618 L8.37137721,7.22631655 C8.55237471,6.28295478 9.3495337,5.57799699 10.309291,5.51177365 L12.266032,5.37761809 C13.3165019,5.30541323 14.2955143,4.7922894 14.9518976,3.96983861 L16.1739514,2.43858472 C16.7738532,1.68705691 17.8076354,1.43284481 18.6882331,1.81993081 L20.4828037,2.60862904 C21.4468398,3.03245825 22.5529356,3.03245825 23.5165439,2.60862904 L25.3115423,1.81993081 C26.1925679,1.43284481 27.2259223,1.68705691 27.8253961,2.43858472 L29.047878,3.97026583 C29.7038333,4.79271662 30.6832735,5.30541323 31.7337435,5.37761809 L33.6904844,5.51220098 C34.6502417,5.57799699 35.4474007,6.28295478 35.6283982,7.22631655 L35.9976673,9.1497834 C36.1962083,10.1824398 36.8243508,11.0911946 37.7207804,11.6423434 L39.390835,12.6694457 C40.2102444,13.1731701 40.5880713,14.166947 40.309087,15.086383 L39.7408491,16.9611436 C39.4357635,17.9673107 39.5692652,19.0631997 40.106695,19.9681092 L41.1075298,21.6518904 C41.5983195,22.4781864 41.4703805,23.5334869 40.79517,24.2183641 L39.4199316,25.6146079 C38.6813934,26.3639995 38.2894462,27.3962287 38.3442161,28.4468295 L38.4464818,30.4023398 C38.4969728,31.3615097 37.8919364,32.2365119 36.9758239,32.5300308 L35.108084,33.1277495 C34.9339327,33.1837189 34.7653441,33.2525058 34.6027459,33.3319737 C34.598467,33.3341099 34.594616,33.3358189 34.590765,33.3375279 C34.5732215,33.3465001 34.5552501,33.3554723 34.5377066,33.3644445 C34.5334277,33.3670079 34.528721,33.368717 34.524442,33.3712804 C34.5227305,33.372135 34.5214469,33.3729894 34.5201632,33.3738439 C33.7850481,33.7566573 33.1881415,34.3753113 32.8376997,35.1362386 L32.0178624,36.915723 C31.673411,37.6638329 30.9314497,38.132523 30.1295839,38.1470495 C30.1180308,38.1470495 30.1060499,38.1474767 30.0944968,38.1483311 C29.9721204,38.1483311 29.848888,38.1385044 29.7252277,38.1167149 L27.7933044,37.7796168 C26.7556711,37.598464 25.6820951,37.86293 24.8477097,38.5046553 L23.2940411,39.6996656 C23.2217277,39.7556351 23.1455632,39.8043412 23.0681151,39.8496294 Z M36.2171749,47.9707438 L34.5920487,45.1222868 C34.3674065,44.7283649 33.8654914,44.5912186 33.4718326,44.8155234 C33.0773181,45.0398282 32.9399654,45.5405619 33.1646076,45.9344837 L34.789306,48.7825134 L32.0597956,53.9735666 L24.5486146,40.8062359 L25.8511117,39.8043412 C26.3213628,39.4428901 26.9263993,39.2937808 27.5108971,39.3958929 L29.4428203,39.732991 C29.5095712,39.7449538 29.5767499,39.7539261 29.6435008,39.7620437 L31.2681992,42.6105006 C31.4196722,42.8758211 31.6973729,43.0249305 31.9827754,43.0249305 C32.120556,43.0249305 32.260476,42.9903235 32.3888431,42.9172642 C32.7829298,42.6929594 32.9202824,42.1922256 32.6960681,41.7983038 L31.4128259,39.5488474 C32.318669,39.2087587 33.0854479,38.5247359 33.5107706,37.6014547 L34.3306079,35.8219703 C34.419609,35.6288545 34.5377066,35.4524015 34.6771987,35.2964563 L42.0805516,48.2740892 L36.2171749,47.9707438 Z" id="Shape" fill="#08415C"></path>
                            </g>
                        </g>
                    </g>
                </g>
            </g>
        </g>
    </g>
</svg>