<?xml version="1.0" encoding="UTF-8"?>
<svg width="50px" height="53px" viewBox="0 0 50 53" version="1.1" xmlns="http://www.w3.org/2000/svg" xmlns:xlink="http://www.w3.org/1999/xlink">
    <!-- Generator: Sketch 52.5 (67469) - http://www.bohemiancoding.com/sketch -->
    <title>coin</title>
    <desc>Created with Sketch.</desc>
    <g id="Page-1" stroke="none" stroke-width="1" fill="none" fill-rule="evenodd">
        <g id="Job-Page-(inner)-002" transform="translate(-1052.000000, -909.000000)">
            <g id="CAREERS-MIDMAIN" transform="translate(0.000000, 399.000000)">
                <g id="Compensation" transform="translate(739.000000, 454.000000)">
                    <g id="row1" transform="translate(1.000000, 56.000000)">
                        <g id="sss-2" transform="translate(246.000000, 0.000000)">
                            <g id="coin" transform="translate(66.000000, 0.000000)">
                                <path d="M27.6315789,0.5 C26.7359649,0.5 25.854386,0.568137931 24.9868421,0.688275862 C24.0815789,0.564551724 23.2210526,0.5 22.3684211,0.5 C18.0850877,0.5 14.0798246,1.90937931 10.6754386,4.3462069 C10.6745614,4.34710345 10.672807,4.348 10.6719298,4.34889655 C8.94561404,5.58524138 7.3754386,7.08786207 6,8.80475862 C5.95877193,8.84331034 5.92807018,8.88813793 5.89473684,8.93386207 C4.59298246,10.5817241 3.47368421,12.4268276 2.56929825,14.4225517 C2.54473684,14.4673793 2.5245614,14.5122069 2.50789474,14.5615172 C1.88508772,15.9565517 1.36491228,17.4224138 0.964912281,18.9501379 C0.925438596,19.0362069 0.907894737,19.1303448 0.896491228,19.2289655 C0.316666667,21.5375862 0,23.9762069 0,26.5 C0,30.4475172 0.764035088,34.1897241 2.1245614,37.5446207 C2.13684211,37.5822759 2.14912281,37.6172414 2.16666667,37.6522069 C2.98070175,39.6371724 4.00614035,41.4831724 5.20701754,43.1534483 C5.23947368,43.1991724 5.26578947,43.2475862 5.30614035,43.2861379 C6.5245614,44.9573103 7.92192982,46.4455862 9.4622807,47.7151034 C9.50701754,47.7662069 9.56140351,47.8038621 9.61666667,47.8433103 C13.2368421,50.7750345 17.6315789,52.5 22.3684211,52.5 C23.2210526,52.5 24.0815789,52.4354483 24.9868421,52.3117241 C25.854386,52.4318621 26.7359649,52.5 27.6315789,52.5 C39.9657895,52.5 50,40.8367586 50,26.5 C50,12.1632414 39.9657895,0.5 27.6315789,0.5 Z M18.3622807,2.84717241 C18.0763158,2.99958621 17.7929825,3.15827586 17.5131579,3.32413793 C17.3517544,3.41917241 17.1894737,3.51241379 17.0307018,3.61193103 C16.7885965,3.76344828 16.5517544,3.92393103 16.3157895,4.0862069 L14.627193,4.0862069 C15.9096491,3.47296552 17.2482456,2.98972414 18.6429825,2.68937931 C18.5473684,2.7377931 18.4570175,2.79696552 18.3622807,2.84717241 Z M9.52631579,41.7413793 L6.37982456,41.7413793 C5.60614035,40.6242759 4.91929825,39.4237931 4.32280702,38.1551724 L7.64561404,38.1551724 C7.78333333,38.4725517 7.9245614,38.7872414 8.07280702,39.0974483 C8.13684211,39.2310345 8.20350877,39.361931 8.26929825,39.4937241 C8.44912281,39.8541379 8.63596491,40.2091724 8.82982456,40.5588276 C8.90175439,40.6888276 8.97105263,40.8206207 9.04473684,40.9488276 C9.20087719,41.2177931 9.36315789,41.4795862 9.52631579,41.7413793 Z M3.91929825,15.7413793 L7.27631579,15.7413793 C7.12280702,16.1331724 6.97719298,16.5294483 6.83947368,16.9311034 C6.80175439,17.0422759 6.76315789,17.1525517 6.72631579,17.2637241 C6.6,17.6492414 6.48245614,18.0383448 6.37105263,18.4310345 L2.94473684,18.4310345 C3.22368421,17.5066897 3.55,16.6101379 3.91929825,15.7413793 Z M1.75438596,26.5 C1.75438596,25.8957241 1.78596491,25.3004138 1.82280702,24.7068966 L5.32017544,24.7068966 C5.31929825,24.7212414 5.31929825,24.7355862 5.31842105,24.749931 C5.28596491,25.3291034 5.26315789,25.9109655 5.26315789,26.5 C5.26315789,26.8003448 5.27368421,27.098 5.28245614,27.3965517 L1.78859649,27.3965517 C1.77894737,27.0971034 1.75438596,26.8021379 1.75438596,26.5 Z M5.38245614,29.1896552 C5.41578947,29.5671034 5.45877193,29.9409655 5.50614035,30.313931 C5.50964912,30.3417241 5.51140351,30.3695172 5.51491228,30.3973103 C5.57982456,30.8966897 5.65877193,31.3897931 5.74736842,31.8793103 L2.2877193,31.8793103 C2.11666667,30.9988966 1.98157895,30.1032414 1.89473684,29.1896552 L5.38245614,29.1896552 Z M5.92631579,20.2241379 C5.90350877,20.329931 5.88421053,20.4375172 5.8622807,20.5442069 C5.83859649,20.6616552 5.81403509,20.7791034 5.79210526,20.8974483 C5.68508772,21.4604828 5.59035088,22.0271034 5.51491228,22.6026897 C5.51140351,22.6304828 5.50964912,22.6582759 5.50614035,22.686069 C5.49649123,22.7613793 5.49035088,22.8384828 5.48070175,22.9137931 L1.99912281,22.9137931 C2.11491228,22.0011034 2.26140351,21.1009655 2.4622807,20.2241379 L5.92631579,20.2241379 Z M6.13596491,33.6724138 C6.16315789,33.7817931 6.18859649,33.8929655 6.21666667,34.0014483 C6.22719298,34.0408966 6.23596491,34.0821379 6.24649123,34.1215862 C6.39122807,34.6675862 6.55350877,35.2046207 6.72719298,35.7353793 C6.76403509,35.8474483 6.80263158,35.9577241 6.84035088,36.068 C6.87280702,36.1666207 6.90526316,36.2652414 6.93947368,36.362069 L3.55964912,36.362069 C3.22719298,35.4915172 2.94122807,34.5931724 2.69736842,33.6724138 L6.13596491,33.6724138 Z M9.04561404,12.0511724 C8.97192982,12.1793793 8.90263158,12.3111724 8.83070175,12.4411724 C8.63684211,12.7908276 8.45,13.1458621 8.27017544,13.5062759 C8.20438596,13.638069 8.1377193,13.7689655 8.07368421,13.9025517 C8.06578947,13.9177931 8.05789474,13.9330345 8.05087719,13.9482759 L4.7622807,13.9482759 C5.42631579,12.6688966 6.19122807,11.472 7.03947368,10.362069 L10.1122807,10.362069 C10.0052632,10.5189655 9.89736842,10.6749655 9.79385965,10.8345517 C9.53508772,11.2317241 9.28508772,11.6369655 9.04561404,12.0511724 Z M11.6070175,5.87931034 L14.0307018,5.87931034 C13.8131579,6.07386207 13.595614,6.26931034 13.3850877,6.47193103 C13.2078947,6.64227586 13.0359649,6.8197931 12.8640351,6.99731034 C12.6912281,7.17482759 12.5201754,7.35503448 12.3517544,7.53882759 C12.1894737,7.71634483 12.0254386,7.89206897 11.8675439,8.07496552 C11.727193,8.23634483 11.5929825,8.40310345 11.4570175,8.56896552 L8.56052632,8.56896552 C9.50263158,7.56751724 10.5192982,6.66468966 11.6070175,5.87931034 Z M7.74035088,43.5344828 L10.7508772,43.5344828 C10.85,43.6671724 10.9482456,43.7998621 11.05,43.9307586 C11.3149123,44.2705517 11.5868421,44.6022759 11.8666667,44.9250345 C12.0245614,45.107931 12.1877193,45.2836552 12.3508772,45.4611724 C12.5192982,45.6449655 12.6903509,45.8251724 12.8631579,46.0026897 C12.9342105,46.0753103 13.0008772,46.1524138 13.072807,46.2241379 L10.4342105,46.2241379 C9.47105263,45.4181379 8.57017544,44.518 7.74035088,43.5344828 Z M18.6429825,50.3106207 C16.6315789,49.8775862 14.7307018,49.0832414 12.9684211,48.0172414 L15.0903509,48.0172414 C15.2017544,48.1051034 15.3166667,48.1875862 15.4289474,48.2736552 C15.6122807,48.4126207 15.7947368,48.5524828 15.9815789,48.686069 C16.3254386,48.9308276 16.6754386,49.1657241 17.0307018,49.3889655 C17.1894737,49.4884828 17.3517544,49.5808276 17.5131579,49.6767586 C17.7929825,49.8426207 18.0763158,50.0013103 18.3622807,50.1537241 C18.4570175,50.2030345 18.5473684,50.2622069 18.6429825,50.3106207 Z M27.6315789,50.7068966 C26.9350877,50.7068966 26.2464912,50.6647586 25.5675439,50.5849655 L25.2184211,50.5347586 C25.1754386,50.5284828 25.1324561,50.5213103 25.0894737,50.515931 C24.7850877,50.472 24.4824561,50.42 24.1815789,50.3608276 C24.1587719,50.3563448 24.1359649,50.3509655 24.1122807,50.3464828 C23.8201754,50.2873103 23.5307018,50.2218621 23.2429825,50.1492414 C23.2026316,50.1393793 23.1631579,50.1268276 23.122807,50.1169655 C22.854386,50.0470345 22.5868421,49.9717241 22.322807,49.8892414 C22.245614,49.8650345 22.1701754,49.8372414 22.0929825,49.8121379 C21.8666667,49.7386207 21.6403509,49.6633103 21.4175439,49.5808276 C21.2421053,49.5153793 21.0684211,49.4436552 20.8947368,49.3728276 C20.7719298,49.3235172 20.6473684,49.2768966 20.5254386,49.224 C15.8078947,47.1834483 11.895614,43.1722759 9.51578947,38.0448966 C9.49736842,38.0063448 9.48157895,37.966 9.46315789,37.9274483 C9.33157895,37.6405517 9.20438596,37.350069 9.08245614,37.056 C9.0377193,36.9484138 8.99649123,36.8381379 8.95350877,36.7296552 C8.8622807,36.5010345 8.77280702,36.2724138 8.6877193,36.0402069 C8.63596491,35.8985517 8.58684211,35.7551034 8.5377193,35.6125517 C8.46666667,35.4090345 8.39736842,35.2055172 8.33157895,34.9993103 C8.27982456,34.837931 8.23070175,34.6747586 8.18157895,34.5115862 C8.12368421,34.3188276 8.06754386,34.126069 8.01403509,33.9315172 C7.96666667,33.7584828 7.92105263,33.5845517 7.87631579,33.4097241 C7.82807018,33.2196552 7.78157895,33.0277931 7.73684211,32.835931 C7.69561404,32.6566207 7.65526316,32.4764138 7.61754386,32.2962069 C7.57719298,32.1043448 7.53947368,31.9106897 7.50350877,31.7170345 C7.46929825,31.5350345 7.43508772,31.3530345 7.40438596,31.1692414 C7.37105263,30.9693103 7.34122807,30.7675862 7.3122807,30.5649655 C7.28596491,30.3856552 7.25964912,30.2063448 7.23684211,30.0261379 C7.20964912,29.810069 7.18859649,29.5922069 7.16578947,29.3743448 C7.14824561,29.2057931 7.12982456,29.0372414 7.11491228,28.8677931 C7.09385965,28.6185517 7.07982456,28.3666207 7.06578947,28.1146897 C7.05789474,27.973931 7.04649123,27.834069 7.04035088,27.6924138 C7.02719298,27.2970345 7.01754386,26.8998621 7.01754386,26.5 C7.01754386,26.1001379 7.02719298,25.7029655 7.04298246,25.3075862 C7.04912281,25.165931 7.06052632,25.026069 7.06842105,24.8853103 C7.08245614,24.6333793 7.09649123,24.3823448 7.11754386,24.1322069 C7.13157895,23.9627586 7.15087719,23.7942069 7.16842105,23.6256552 C7.19035088,23.4077931 7.2122807,23.189931 7.23947368,22.9738621 C7.2622807,22.7936552 7.28859649,22.6143448 7.31491228,22.4350345 C7.34385965,22.2333103 7.37368421,22.0315862 7.40701754,21.8307586 C7.4377193,21.6469655 7.47192982,21.4649655 7.50614035,21.2829655 C7.54298246,21.0893103 7.57982456,20.8956552 7.62017544,20.7037931 C7.65789474,20.5226897 7.69824561,20.3433793 7.73947368,20.164069 C7.78421053,19.9722069 7.82982456,19.7803448 7.87894737,19.5902759 C7.92368421,19.4154483 7.96929825,19.2415172 8.01666667,19.0684828 C8.07017544,18.873931 8.12631579,18.6811724 8.18421053,18.4884138 C8.23157895,18.3252414 8.28070175,18.162069 8.33245614,18.0006897 C8.39824561,17.7944828 8.46842105,17.5909655 8.53859649,17.3874483 C8.5877193,17.2448966 8.63684211,17.1014483 8.68859649,16.9597931 C8.77368421,16.7275862 8.86315789,16.4989655 8.95438596,16.2703448 C8.99736842,16.1618621 9.03947368,16.0515862 9.08333333,15.944 C9.20526316,15.649931 9.33245614,15.3594483 9.46403509,15.0725517 C9.48157895,15.0331034 9.49824561,14.9936552 9.51666667,14.9551034 C11.8964912,9.82682759 15.8087719,5.81655172 20.5263158,3.776 C20.6482456,3.724 20.7719298,3.67737931 20.895614,3.62717241 C21.0692982,3.55634483 21.2421053,3.48462069 21.4184211,3.41917241 C21.6412281,3.33668966 21.8675439,3.26137931 22.0938596,3.18786207 C22.1701754,3.16275862 22.2464912,3.13496552 22.3236842,3.11075862 C22.5877193,3.02827586 22.8552632,2.95296552 23.1236842,2.88303448 C23.1640351,2.87227586 23.2035088,2.86062069 23.2438596,2.85075862 C23.5315789,2.77813793 23.8210526,2.71268966 24.1131579,2.65351724 C24.1359649,2.64903448 24.1587719,2.64365517 24.1824561,2.63917241 C24.4824561,2.58 24.7850877,2.528 25.0903509,2.48406897 C25.1333333,2.4777931 25.1763158,2.47062069 25.2192982,2.46524138 L25.5684211,2.41503448 C26.2464912,2.33524138 26.9350877,2.29310345 27.6315789,2.29310345 C38.9982456,2.29310345 48.245614,13.1521379 48.245614,26.5 C48.245614,39.8478621 38.9982456,50.7068966 27.6315789,50.7068966 Z" id="Shape" fill="#08415C" fill-rule="nonzero"></path>
                                <path d="M32.8522647,42.6190598 C32.415493,42.9239495 31.9637688,43.1967455 31.5096836,43.4288896 C31.102817,43.6364286 30.8974162,44.2536965 31.0508765,44.8067771 C31.1689229,45.2357623 31.4687608,45.5 31.7874861,45.5 C31.8795623,45.5 31.9732125,45.4775344 32.0652887,45.4304638 C32.5752491,45.1694354 33.0828487,44.8634759 33.5723478,44.5222134 C33.958753,44.2526267 34.1114264,43.6075443 33.9131084,43.0822781 C33.7140035,42.557012 33.2402439,42.3473335 32.8522647,42.6190598 Z" id="Path" fill="#08415C"></path>
                                <path d="M38.3969512,39.8171527 C38.0385209,40.2385333 37.6566167,40.6460981 37.2602668,41.0294854 C36.9099622,41.3688349 36.9135736,41.9154208 37.2692953,42.2504529 C37.4444476,42.416242 37.6737707,42.5 37.9030939,42.5 C38.1360284,42.5 38.3689629,42.414515 38.5459209,42.243545 C38.9810931,41.8213009 39.4018198,41.3722888 39.7972668,40.9085975 C40.1123603,40.5381625 40.0536753,39.9941671 39.666354,39.6936743 C39.2790326,39.3931816 38.7111419,39.4484446 38.3969512,39.8171527 Z" id="Path" fill="#08415C"></path>
                                <path d="M26.22146,42.6636211 C25.7579189,42.6636211 25.2906456,42.6111743 24.8353154,42.5076982 C24.415068,42.4283193 24.0537896,42.9712144 24.0052708,43.7479939 C23.956752,44.5247733 24.2486112,45.2306787 24.657662,45.3242324 C25.1727076,45.4404658 25.6996964,45.5 26.2222064,45.5 L26.2849076,45.5 C26.6976906,45.5 27,44.8649686 27,44.0825193 C27,43.30007 26.6342429,42.6636211 26.22146,42.6636211 Z" id="Path" fill="#08415C"></path>
                                <path d="M41.8378313,12.1945339 C41.4734787,11.7170059 41.0799401,11.2495135 40.6685135,10.8046013 C40.3371126,10.448337 39.7458633,10.3973227 39.3429099,10.6900281 C38.9418396,10.9835698 38.8844093,11.5104395 39.2139272,11.8675401 C39.5886362,12.2723099 39.94734,12.6979872 40.2787408,13.1328638 C40.4604464,13.3720459 40.757954,13.5 41.0592276,13.5 C41.2409332,13.5 41.4245217,13.4531671 41.5864562,13.3561562 C42.0167125,13.0960665 42.1296901,12.5767235 41.8378313,12.1945339 Z" id="Path" fill="#08415C"></path>
                                <path d="M44.2478199,29.5676781 C43.6719107,29.3403523 43.0418373,29.7040737 42.8472884,30.3834533 C42.6239992,31.1602582 42.3697591,31.9331662 42.0923057,32.682692 C41.8480141,33.3399886 42.1055704,34.1064015 42.6648987,34.3921826 C42.8085996,34.4662259 42.9589329,34.5 43.1048447,34.5 C43.5326313,34.5 43.9383101,34.2077239 44.1195944,33.719298 C44.4213664,32.9022239 44.6977144,32.0591697 44.9409006,31.2122184 C45.1376603,30.5341378 44.8270452,29.797602 44.2478199,29.5676781 Z" id="Path" fill="#08415C"></path>
                                <path d="M44.5176264,24.5 C44.2508738,24.5 44.0352528,25.1066363 44.0352528,25.8069909 C44.0352528,26.5896657 44.0241582,27.3723404 44.0014867,28.1360182 C43.9807446,28.8338399 44.1794825,29.4430091 44.4452704,29.4962006 C44.4578121,29.4987335 44.4708362,29.5 44.4828955,29.5 C44.732765,29.5 44.9435623,28.9959473 44.9633396,28.3310537 C44.9879407,27.5027862 45,26.6529889 45,25.8057244 L45,25.7246707 C45,25.026849 44.784379,24.5 44.5176264,24.5 Z" id="Path" fill="#08415C"></path>
                                <path d="M13.9018194,13.5 C14.1633864,13.5 14.4231496,13.3919894 14.6008348,13.1828808 C14.960715,12.7603433 15.3431441,12.3533593 15.7382005,11.9722978 C16.0890612,11.6335765 16.0872573,11.0866107 15.7327888,10.7504817 C15.3792223,10.4152167 14.8091865,10.4160808 14.4574239,10.7556662 C14.0226814,11.1756115 13.6005663,11.6249357 13.2037059,12.0898134 C12.8880215,12.4596417 12.9457466,13.0040152 13.3317836,13.3055809 C13.4995473,13.4369218 13.7024872,13.5 13.9018194,13.5 Z" id="Path" fill="#08415C"></path>
                                <path d="M21.7878621,8.5 C21.9074603,8.5 22.0302058,8.46249169 22.1442962,8.38318841 C22.5833476,8.07883528 23.035775,7.80663213 23.4889893,7.57622395 C23.8957805,7.36939242 24.1019301,6.75104116 23.9500718,6.19698987 C23.7982136,5.6418669 23.3481466,5.36001876 22.9374212,5.56899362 C22.4291288,5.82833678 21.9216233,6.13268991 21.4298543,6.47455135 C21.0427338,6.74246784 20.888515,7.38868241 21.0860095,7.91594206 C21.2252784,8.28673848 21.5014559,8.5 21.7878621,8.5 Z" id="Path" fill="#08415C"></path>
                                <path d="M20.5569538,43.6041867 C20.1111701,43.323474 19.6710395,43.0066697 19.2502907,42.6637991 C18.8771892,42.3600279 18.3764901,42.4913613 18.1317936,42.9535348 C17.8879047,43.4167107 17.9920824,44.0382888 18.365184,44.3410576 C18.8360026,44.7240299 19.3270108,45.0769259 19.8269023,45.3917251 C19.9440012,45.4659135 20.0683684,45.5 20.1911205,45.5 C20.4858869,45.5 20.7701547,45.2994909 20.9122887,44.9516077 C21.1141835,44.4583554 20.9558979,43.854823 20.5569538,43.6041867 Z" id="Path" fill="#08415C"></path>
                                <path d="M10.9628862,25.2283317 C10.9628862,24.4431491 10.9749223,23.6453631 10.998513,22.8589201 C11.019215,22.1644809 10.8213419,21.5582644 10.5560668,21.5028101 C10.2936803,21.4574384 10.0592175,21.9666098 10.0385154,22.6597887 C10.012999,23.5117686 10,24.3763518 10,25.2270714 L10,25.2535383 C10,25.9492378 10.2152051,26.5 10.4814431,26.5 C10.7476811,26.5 10.9628862,25.9240313 10.9628862,25.2283317 Z" id="Path" fill="#08415C"></path>
                                <path d="M12.3087077,30.4726157 C12.1517252,29.7857948 11.5155947,29.3667828 10.8888363,29.538488 C10.2609064,29.7089119 9.87899384,30.4047024 10.0348048,31.0915233 C10.2292756,31.9449238 10.4600633,32.7996058 10.7201387,33.6325042 C10.8864933,34.1655592 11.3410396,34.5 11.8283882,34.5 C11.9537398,34.5 12.0814345,34.4769351 12.2067862,34.4308054 C12.818315,34.2014379 13.146338,33.4736128 12.9366376,32.8034499 C12.6988208,32.0410275 12.4879489,31.2568216 12.3087077,30.4726157 Z" id="Path" fill="#08415C"></path>
                                <path d="M12.3386071,16.6120359 C11.7765872,16.3186283 11.1284423,16.622422 10.8844219,17.2793436 C10.5818807,18.0920569 10.3036311,18.9346303 10.0585065,19.783695 C9.86306934,20.462687 10.1733397,21.200101 10.7497138,21.431192 C10.8667553,21.4779295 10.9871092,21.5 11.1041507,21.5 C11.5645875,21.5 11.9941076,21.1585566 12.1497949,20.6184787 C12.3739404,19.8395203 12.6290025,19.0670532 12.907252,18.3231479 C13.1512725,17.6662263 12.8973146,16.9002506 12.3386071,16.6120359 Z" id="Path" fill="#08415C"></path>
                                <path d="M14.7235129,36.8680102 C14.431311,36.4853272 13.8469071,36.385061 13.4142597,36.6432466 C12.9834974,36.9022679 12.870387,37.4211458 13.1616464,37.8038288 C13.5311404,38.2876136 13.9232566,38.7555229 14.328569,39.1941879 C14.5152012,39.395556 14.784781,39.5 15.0581313,39.5 C15.2683281,39.5 15.4794676,39.4381691 15.6547888,39.3103296 C16.058216,39.0170508 16.1157138,38.4914884 15.786751,38.133872 C15.4191421,37.7353135 15.060959,37.3091818 14.7235129,36.8680102 Z" id="Path" fill="#08415C"></path>
                                <path d="M42.6951395,20.5296598 C42.8273365,21.1116076 43.3046493,21.5 43.8287576,21.5 C43.9235182,21.5 44.0182788,21.4871818 44.1142094,21.4615453 C44.7412674,21.2884992 45.1214799,20.5924692 44.9647154,19.9066937 C44.7693447,19.0542813 44.5388774,18.1993052 44.2779932,17.3661201 C44.0685839,16.6970084 43.4040895,16.3393797 42.79107,16.5701079 C42.1803904,16.7995542 41.8539926,17.5289116 42.0634019,18.1993052 C42.3032282,18.9632718 42.5149773,19.7477476 42.6951395,20.5296598 Z" id="Path" fill="#08415C"></path>
                                <path d="M26.7750587,8.34090909 C27.2346336,8.34090909 27.6995171,8.39204545 28.1537834,8.49005682 C28.1841184,8.49715909 28.213695,8.5 28.2425132,8.5 C28.6224588,8.5 28.9500765,7.96732955 28.9948206,7.24431818 C29.0433566,6.46590909 28.7453154,5.75994318 28.3297263,5.66903409 C27.8170651,5.55681818 27.3150213,5.5 26.7523074,5.5 L26.7424486,6.92045455 L26.7424486,5.5 C26.3230675,5.5 26,6.13494318 26,6.92045455 C26.0007584,7.70596591 26.3556776,8.34090909 26.7750587,8.34090909 Z" id="Path" fill="#08415C"></path>
                                <path d="M31.4443362,9.40010042 C31.8898462,9.67908954 32.3297066,9.99420676 32.7518111,10.33642 C32.8874011,10.4468114 33.0399399,10.5 33.1916715,10.5 C33.4547807,10.5 33.7130473,10.3394307 33.8688144,10.0443847 C34.1125536,9.58074086 34.0068256,8.95853489 33.6331461,8.65546037 C33.1610024,8.27210121 32.6694887,7.91985234 32.1707112,7.6077458 C31.772012,7.35785985 31.286955,7.5575679 31.0867983,8.052322 C30.8858346,8.5470761 31.0456371,9.15021447 31.4443362,9.40010042 Z" id="Path" fill="#08415C"></path>
                                <path d="M36.0991284,32.4705846 C35.8810887,32.4705846 35.6711246,32.5779077 35.469236,32.7994462 C33.8765596,34.6288615 31.7410272,35.5573538 29.1218595,35.5573538 C27.0258076,35.5573538 25.2303452,34.8907692 23.7848231,33.5763077 C22.4703042,32.38 21.5586652,30.7987077 21.0714408,28.8688615 L28.2479063,28.8688615 C28.7862759,28.8688615 29.1335242,28.4878154 29.1335242,27.8980308 C29.1335242,27.3082462 28.7853786,26.9262154 28.2479063,26.9262154 L20.7457272,26.9262154 C20.7053495,26.5126769 20.684712,26.0459692 20.684712,25.532 C20.684712,25.0072 20.7062468,24.5188308 20.7484191,24.0747692 L28.83114,24.0747692 C29.3695095,24.0747692 29.7167578,23.6927385 29.7167578,23.1029538 C29.7167578,22.5131692 29.3686122,22.1321231 28.83114,22.1321231 L21.0723381,22.1321231 C21.5541788,20.2160615 22.4254401,18.6357538 23.6663818,17.4296 C25.0221757,16.1121846 26.5987011,15.4436308 28.3510938,15.4436308 C30.1214322,15.4436308 31.7840967,16.0373538 33.2888395,17.2041231 C33.9079645,17.6964308 34.462485,18.2379692 34.9371475,18.8149538 L34.9371475,20.8659077 C34.9371475,21.4566769 35.2852931,21.8377231 35.8236626,21.8377231 C36.3611348,21.8377231 36.7083832,21.4556923 36.7083832,20.8659077 L36.7083832,14.7918154 C36.7083832,14.2010462 36.3611348,13.82 35.8236626,13.82 C35.2843958,13.82 34.9371475,14.2020308 34.9371475,14.7918154 L34.9371475,16.0846154 C33.0115792,14.3694154 30.8805332,13.5 28.5987438,13.5 C26.2029995,13.5 24.1311742,14.3487385 22.4415912,16.0235692 C20.8489147,17.6038769 19.7802512,19.6568 19.2634165,22.1311385 L17.4679542,22.1311385 C16.9295847,22.1311385 16.5823364,22.5121846 16.5823364,23.1019692 C16.5823364,23.6917538 16.9295847,24.0737846 17.4679542,24.0737846 L18.972697,24.0737846 C18.9332165,24.5227692 18.9134763,25.0111385 18.9134763,25.5310154 C18.9134763,26.0390769 18.9323193,26.5048 18.9700051,26.9252308 L16.8856178,26.9252308 C16.3472483,26.9252308 16,27.3072615 16,27.8970462 C16,28.4868308 16.3472483,28.8678769 16.8856178,28.8678769 L19.2607247,28.8678769 C19.7829431,31.3884923 20.8991625,33.4552 22.5833618,35.0177846 C24.3572894,36.6650462 26.5574261,37.5 29.1227568,37.5 C32.1062212,37.5 34.6616818,36.3765538 36.7218424,34.1611692 C36.9515467,33.9110769 37,33.6580308 37,33.4906462 C37,33.1647385 36.7918305,32.8988923 36.6366006,32.7285538 C36.440993,32.5158769 36.2364126,32.4705846 36.0991284,32.4705846 Z" id="Path" fill="#CE2128"></path>
                            </g>
                        </g>
                    </g>
                </g>
            </g>
        </g>
    </g>
</svg>