<?xml version="1.0" encoding="UTF-8"?>
<svg width="54px" height="54px" viewBox="0 0 54 54" version="1.1" xmlns="http://www.w3.org/2000/svg" xmlns:xlink="http://www.w3.org/1999/xlink">
    <!-- Generator: Sketch 52.5 (67469) - http://www.bohemiancoding.com/sketch -->
    <title>coffee-machine</title>
    <desc>Created with Sketch.</desc>
    <g id="Page-1" stroke="none" stroke-width="1" fill="none" fill-rule="evenodd">
        <g id="Job-Page-(inner)-002" transform="translate(-1049.000000, -1058.000000)">
            <g id="CAREERS-MIDMAIN" transform="translate(0.000000, 399.000000)">
                <g id="Compensation" transform="translate(739.000000, 454.000000)">
                    <g id="row2" transform="translate(13.000000, 205.000000)">
                        <g id="sss-5" transform="translate(237.000000, 0.000000)">
                            <g id="coffee-machine" transform="translate(60.000000, 0.000000)">
                                <path d="M51.3,17.0999648 L44.0999648,17.0999648 C42.8880234,17.0999648 41.9027344,17.8343438 41.5450898,18.9 L39.5999297,18.9 L39.5999297,16.2 L46.7999648,16.2 C48.7799297,16.2 50.3999297,14.58 50.3999297,12.6000352 L50.3999297,3.59996484 C50.4000352,1.62 48.7800352,0 46.7999648,0 L3.59996484,0 C1.62,0 0,1.62 0,3.59996484 L0,50.3999297 C0,52.38 1.62,54 3.59996484,54 L46.7999648,54 C48.7799297,54 50.3999297,52.38 50.3999297,50.4000352 C50.3999297,48.4200703 48.7799297,46.8000703 46.7999648,46.8000703 L36.8521523,46.8000703 C37.6533984,46.2942422 38.3885156,45.6940195 39.0417891,45.0142734 C39.2106445,45.0129023 39.3732773,45.0000352 39.5099648,45.0000352 C39.69,45.0000352 39.96,45.0000352 40.1399297,45.0000352 C41.8498945,45.0000352 43.3799297,44.82 44.7299297,42.8400352 C46.0799297,41.04 45.8998945,39.69 45.5399297,38.88 C45.0152227,37.8305859 43.8645586,37.1574844 42.2991914,36.961207 C42.2992969,36.9407461 42.2999297,36.9203906 42.2999297,36.8999297 C42.2999297,36.3599297 41.9399648,35.9999648 41.3999648,35.9999648 L19.7999648,35.9999648 C19.2599648,35.9999648 18.9,36.3599297 18.9,36.8999297 C18.9,41.0774414 21.0699141,44.7307734 24.3478828,46.7999648 L18.0000352,46.7999648 C17.01,46.7999648 16.2,45.9899648 16.2,44.9999297 L16.2,17.9999297 C16.2,17.0098945 17.01,16.1998945 18.0000352,16.1998945 L21.6,16.1998945 L21.6,20.6999297 C21.6,22.2299648 22.7699648,23.3999297 24.3,23.3999297 L27,23.3999297 L27,24.2998945 C27,24.8398945 27.3599648,25.1998594 27.8999648,25.1998594 C28.4399648,25.1998594 28.7999297,24.8398945 28.7999297,24.2998945 L28.7999297,23.3999297 L32.4,23.3999297 L32.4,24.2998945 C32.4,24.8398945 32.7599648,25.1998594 33.2999648,25.1998594 C33.8399648,25.1998594 34.1999297,24.8398945 34.1999297,24.2998945 L34.1999297,23.3999297 L36.8999297,23.3999297 C38.4299648,23.3999297 39.5999297,22.2299648 39.5999297,20.6999297 L41.5450898,20.6999297 C41.9027344,21.7654805 42.8881289,22.4999648 44.0999648,22.4999648 L51.3,22.4999648 C52.8300352,22.4999648 54,21.33 54,19.7999648 C54,18.2699297 52.8300352,17.0999648 51.3,17.0999648 Z M44.01,39.69 C44.3699648,40.3199648 43.74,41.2200352 43.3800352,41.7600352 C42.4948359,42.9108047 41.6956992,43.1902969 40.4707852,43.1991563 C41.3224453,41.8639219 41.9103281,40.3427461 42.162082,38.7080859 C43.1274375,38.8880156 43.7439023,39.1578047 44.01,39.69 Z M20.7000352,37.8 L40.4008594,37.8 C40.2060586,39.9248789 39.3999609,41.8726758 37.9800352,43.47 C37.9380586,43.5119766 37.9067344,43.5591211 37.8820547,43.6097461 C36.0801211,45.5698828 33.5081602,46.7999648 30.6000703,46.7999648 C25.38,46.7999648 21.1499648,42.8400352 20.7000352,37.8 Z M18.0000352,14.3999648 C16.0200703,14.3999648 14.4000703,16.0199648 14.4000703,17.9999297 L14.4000703,44.9999297 C14.4000703,46.9798945 16.0200703,48.5998945 18.0000352,48.5998945 L46.8000703,48.5998945 C47.7901055,48.5998945 48.6001055,49.4098945 48.6001055,50.3999297 C48.6001055,51.3899648 47.7901055,52.1999648 46.8000703,52.1999648 L3.60007031,52.1999648 C2.61003516,52.1999648 1.80003516,51.3899648 1.80003516,50.3999297 L1.80003516,48.6 L6.30007031,48.6 C6.84007031,48.6 7.20003516,48.2400352 7.20003516,47.7000352 C7.20003516,47.1600352 6.84007031,46.8000703 6.30007031,46.8000703 L1.80003516,46.8000703 L1.80003516,45.0000352 L6.30007031,45.0000352 C6.84007031,45.0000352 7.20003516,44.6400703 7.20003516,44.1000703 C7.20003516,43.5600703 6.84007031,43.2001055 6.30007031,43.2001055 L1.80003516,43.2001055 L1.80003516,41.4000703 L6.30007031,41.4000703 C6.84007031,41.4000703 7.20003516,41.0401055 7.20003516,40.5001055 C7.20003516,39.9601055 6.84007031,39.6001406 6.30007031,39.6001406 L1.80003516,39.6001406 L1.80003516,37.8 L6.30007031,37.8 C6.84007031,37.8 7.20003516,37.4400352 7.20003516,36.9000352 C7.20003516,36.3600352 6.84007031,36.0000703 6.30007031,36.0000703 L1.80003516,36.0000703 L1.80003516,3.60007031 C1.80003516,2.61003516 2.61003516,1.80003516 3.60007031,1.80003516 L46.8000703,1.80003516 C47.7901055,1.80003516 48.6001055,2.61003516 48.6001055,3.60007031 L48.6001055,12.6000352 C48.6001055,13.5900703 47.7901055,14.4000703 46.8000703,14.4000703 L39.6000352,14.4000703 L21.6,14.4000703 L18.0000352,14.4000703 L18.0000352,14.3999648 Z M37.8,20.7000352 C37.8,21.2400352 37.4400352,21.6 36.9000352,21.6 L33.3000703,21.6 L27.9000703,21.6 L24.3,21.6 C23.76,21.6 23.4000352,21.2400352 23.4000352,20.7000352 L23.4000352,16.2 L37.8,16.2 L37.8,20.7000352 Z M51.3,20.7000352 L44.0999648,20.7000352 C43.5599648,20.7000352 43.2,20.3400703 43.2,19.8000703 C43.2,19.2600703 43.5599648,18.9001055 44.0999648,18.9001055 L51.3,18.9001055 C51.84,18.9001055 52.1999648,19.2600703 52.1999648,19.8000703 C52.1999648,20.3400703 51.84,20.7000352 51.3,20.7000352 Z" id="Shape" fill="#08415C" fill-rule="nonzero"></path>
                                <path d="M30,28 C30,27.3999766 29.4000703,27 28.5000879,27 C27.6001055,27 27,27.3999766 27,28 L27,29 C27,29.6000234 27.5999297,30 28.4999121,30 C29.3998945,30 29.9998242,29.6000234 29.9998242,29 L29.9998242,28 L30,28 Z" id="Path" fill="#08415C"></path>
                                <path d="M28.5,33 C27.5999648,33 27,33.3999766 27,34 L27,35 C27,35.6000234 27.5999648,36 28.5,36 C29.4000351,36 30,35.6000234 30,35 L30,34 C30.0001757,33.3999766 29.4000351,33 28.5,33 Z" id="Path" fill="#08415C"></path>
                                <path d="M36,28 C36,27.3999766 35.4000352,27 34.5,27 C33.5999648,27 33,27.3999766 33,28 L33,29 C33,29.6000234 33.5999648,30 34.5,30 C35.4000352,30 36,29.6000234 36,29 L36,28 Z" id="Path" fill="#08415C"></path>
                                <path d="M34.5,33 C33.5999648,33 33,33.3999766 33,34 L33,35 C33,35.6000234 33.5999648,36 34.5,36 C35.4000351,36 36,35.6000234 36,35 L36,34 C36.0001757,33.3999766 35.4000351,33 34.5,33 Z" id="Path" fill="#08415C"></path>
                                <path d="M9.5,5 C6.98005484,5 5,6.97994938 5,9.5 C5,12.0199452 6.97994938,14 9.5,14 C12.0199452,14 14,12.0200506 14,9.5 C14,6.98005484 12.0199452,5 9.5,5 Z M9.5,12.1999789 C7.9699768,12.1999789 6.80002109,11.0300232 6.80002109,9.5 C6.80002109,7.9699768 7.9699768,6.80002109 9.5,6.80002109 C11.0300232,6.80002109 12.1999789,7.9699768 12.1999789,9.5 C12.1999789,11.0300232 11.0300232,12.1999789 9.5,12.1999789 Z" id="Shape" fill="#CE2128" fill-rule="nonzero"></path>
                                <path d="M17.5,5 C14.9800548,5 13,6.97994938 13,9.5 C13,12.0199452 14.9799494,14 17.5,14 C20.0200506,14 22,12.0200506 22,9.5 C22,6.98005484 20.0199452,5 17.5,5 Z M17.5,12.1999789 C15.9699768,12.1999789 14.8000211,11.0300232 14.8000211,9.5 C14.8000211,7.9699768 15.9699768,6.80002109 17.5,6.80002109 C19.0300232,6.80002109 20.1999789,7.9699768 20.1999789,9.5 C20.1999789,11.0300232 19.0300232,12.1999789 17.5,12.1999789 Z" id="Shape" fill="#CE2128" fill-rule="nonzero"></path>
                            </g>
                        </g>
                    </g>
                </g>
            </g>
        </g>
    </g>
</svg>