<?xml version="1.0" encoding="UTF-8"?>
<svg width="50px" height="48px" viewBox="0 0 50 48" version="1.1" xmlns="http://www.w3.org/2000/svg" xmlns:xlink="http://www.w3.org/1999/xlink">
    <!-- Generator: Sketch 52.5 (67469) - http://www.bohemiancoding.com/sketch -->
    <title>gym</title>
    <desc>Created with Sketch.</desc>
    <g id="Page-1" stroke="none" stroke-width="1" fill="none" fill-rule="evenodd">
        <g id="Job-Page-(inner)-002" transform="translate(-1267.000000, -916.000000)">
            <g id="CAREERS-MIDMAIN" transform="translate(0.000000, 399.000000)">
                <g id="Compensation" transform="translate(739.000000, 454.000000)">
                    <g id="row1" transform="translate(1.000000, 56.000000)">
                        <g id="sss-3" transform="translate(497.000000, 7.000000)">
                            <g id="gym" transform="translate(30.000000, 0.000000)">
                                <path d="M25,33 C25.5520833,33 26,32.7324405 26,32.4019623 L26,31.5980377 C26,31.2678711 25.5520833,31 25,31 C24.4473959,31 24,31.2678711 24,31.5980377 L24,32.4019623 C24,32.7324405 24.4473959,33 25,33 Z" id="Path" fill="#CE2128"></path>
                                <path d="M35,33 C35.5520832,33 36,32.7324405 36,32.4019623 L36,31.5980377 C36,31.2678711 35.5520832,31 35,31 C34.4473957,31 34,31.2678711 34,31.5980377 L34,32.4019623 C34,32.7324405 34.4473957,33 35,33 Z" id="Path" fill="#CE2128"></path>
                                <path d="M30.5,36 C31.3851589,36 32.2170059,35.700965 32.7818348,35.1795993 C33.1026244,34.8838992 33.0653981,34.4344204 32.6981904,34.1757755 C32.3314423,33.9171307 31.7739669,33.9475159 31.4531773,34.2432159 C31.2233853,34.4555418 30.8759398,34.5770827 30.5,34.5770827 C30.1240603,34.5770827 29.7766148,34.4555418 29.5468227,34.2432159 C29.226033,33.9475159 28.6685576,33.9171307 28.3018095,34.1757755 C27.934602,34.4344204 27.8973756,34.8838992 28.2181653,35.1795993 C28.782994,35.700965 29.6148412,36 30.5,36 Z" id="Path" fill="#CE2128"></path>
                                <path d="M31.9383932,3.91980446 C30.4987361,3.91980446 29.3276319,5.07330563 29.3276319,6.49086121 C29.3276319,7.90841689 30.4987361,9.06154237 31.9383932,9.06154237 L33.8968457,9.06154237 C33.9639839,9.47922172 34.072702,10.1425507 34.2489399,11.2029002 L29.7152025,15.7669486 C29.4321539,16.0516617 29.4374944,16.5084046 29.7266466,16.7871078 C30.0157986,17.0654355 30.4792813,17.0605526 30.7623299,16.775464 L34.5293182,12.9832961 L35.264024,17.3174705 L26.7389957,25.9396192 L22.383785,25.2109341 L28.7317802,18.8199142 C29.0144473,18.5352011 29.0094883,18.0784582 28.7203361,17.7997549 C28.431184,17.5214272 27.96732,17.5263101 27.6846528,17.8113989 L20.6263657,24.9168307 L15.5425527,24.066072 C15.0447381,23.9826863 14.539294,23.9402423 14.0399535,23.9402423 C13.8541791,23.9402423 13.668786,23.9470033 13.4841559,23.9586472 L10.8474548,17.4936321 L12.3893451,17.4936321 C14.0983181,17.4936321 15.2282238,15.7004655 14.5614192,14.1841242 C13.9285651,12.7365196 12.4683088,11.7693216 10.8413513,11.7201165 C8.59489116,11.652131 8.06045558,11.3715496 7.49473984,11.0740657 C6.76117845,10.6886889 5.95056073,10.4633223 5.11056998,10.4633223 C2.38193533,10.4633223 0.162177835,12.6505048 0.162177835,15.3387521 C0.162177835,16.5271851 1.14407438,17.4940077 2.35065497,17.4940077 L5.22005108,17.4940077 L6.24924955,20.0177375 L5.00147041,20.0177375 C4.70545189,19.4798626 4.12981785,19.1215298 3.47102412,19.1215298 C3.41265957,19.1215298 3.35315079,19.1245346 3.29478624,19.1305444 L1.5694102,19.3014474 C0.612690637,19.396477 -0.0873016461,20.2400991 0.00882806146,21.1821312 C0.00882806146,21.1821312 0.287299067,23.9041836 0.28768051,23.9079398 C0.382665908,24.8353231 1.25737011,25.5373399 2.19768666,25.4445641 L3.9230627,25.2732855 C4.59673367,25.2064267 5.14146889,24.7680887 5.3722565,24.1862675 L7.94983015,24.1870186 L8.60633513,25.7961359 C8.25614832,26.0658245 7.92503481,26.3621815 7.61719078,26.6837045 C5.93148733,28.4449441 5.08348588,30.7478146 5.22920629,33.168627 C5.34707962,35.1289405 6.12107658,36.9067069 7.33032747,38.3024772 L2.87898707,42.7842667 L2.64629205,42.7842667 C1.30276472,42.7842667 0.209479764,43.8607676 0.209479764,45.1840449 L0.209479764,46.3852486 C0.209479764,47.2754466 0.94494847,47.9996244 1.84902571,47.9996244 L10.9302331,47.9996244 C11.8343104,47.9996244 12.5697791,47.2754466 12.5697791,46.3852486 L12.5697791,45.1840449 C12.5697791,44.4155449 12.2005189,43.7304306 11.6279366,43.2909659 L13.5474794,41.3498086 C13.7134176,41.3588233 13.8801187,41.3648331 14.0483458,41.3648331 C14.3550454,41.3648331 14.6659412,41.3479305 14.9737851,41.3167549 C14.9184724,41.7254195 14.9867551,42.1408452 15.1751998,42.519461 C15.5379751,43.2470193 16.2749697,43.6988793 17.0985573,43.6988793 C17.427382,43.6988793 17.7443812,43.6263864 18.0411627,43.4829031 L23.2069911,40.9858417 C23.5526004,40.8186947 23.8379378,40.5677866 24.0450745,40.2601613 L31.8449337,39.3500561 C33.748455,41.1728959 36.2432502,42.1727722 38.9127575,42.1727722 C39.0992949,42.1727722 39.2869767,42.1667624 39.4746586,42.1566209 L39.581088,42.7842667 L39.0909027,42.7842667 C37.7469938,42.7842667 36.6537089,43.8607676 36.6537089,45.1840449 L36.6537089,46.3852486 C36.6537089,47.2754466 37.3895591,48 38.2936362,48 L47.3744623,48 C48.2789209,48 49.0143896,47.2754466 49.0143896,46.3852486 L49.0143896,45.1840449 C49.0143896,43.8607676 47.9211047,42.7842667 46.5771959,42.7842667 L45.3633674,42.7842667 L44.9288763,40.2267319 C46.0263573,39.4289343 46.9640035,38.4095263 47.6567479,37.2541471 C47.8623588,36.9112144 47.7471557,36.4691202 47.3988762,36.2666659 C47.0505966,36.0638361 46.6012283,36.1776462 46.3956175,36.520579 C45.9309905,37.2950887 45.3381905,37.9986079 44.6515496,38.5954536 L42.217789,24.2692774 C45.4354647,25.5696425 47.5968576,28.6766961 47.5968576,32.1796435 C47.5968576,32.8159284 47.5255232,33.4499597 47.3851433,34.0652103 C47.2962615,34.4535921 47.5442152,34.8393444 47.9386522,34.9268618 C48.3338522,35.0143792 48.725619,34.770232 48.8141194,34.3818504 C48.9785317,33.6629311 49.0616915,32.9222263 49.0616915,32.1796435 C49.0616915,27.7902543 46.1572005,23.9342325 41.9412254,22.6402529 L41.09742,17.6739253 L43.2393582,17.6739253 C43.5578832,18.2223172 44.1548794,18.5802744 44.8300762,18.5802744 C44.9315465,18.5802744 46.6645518,18.3034491 46.6656963,18.3030735 C47.6521704,18.140434 48.3376669,17.1950214 48.1724915,16.2233159 C48.1724915,16.2233159 47.3057981,11.1206415 47.3046538,11.1146317 C47.1406229,10.1496873 46.1724592,9.4690802 45.1924701,9.63096853 C45.1924701,9.63096853 43.6624052,9.88300349 43.6608794,9.88300349 C42.986064,9.99418432 42.4199666,10.4809761 42.2139744,11.1228951 L39.9842987,11.1228951 L39.6344934,9.06191806 L40.0411374,9.06191806 C42.4050895,9.06191806 44.6946554,8.22693495 46.4886955,6.71096926 L49.090683,4.51139169 C50.183205,3.58814 50.3090892,1.96174474 49.3714429,0.88599506 C48.4448591,-0.176608315 46.7679295,-0.301686728 45.6891403,0.609921007 L43.0871528,2.80912299 C42.2399141,3.52541295 41.1580733,3.91980446 40.0411374,3.91980446 L31.9383932,3.91980446 Z M1.62701177,15.3387521 C1.62701177,13.4456731 3.18988275,11.9056683 5.11095152,11.9056683 C5.70909204,11.9056683 6.28014837,12.0709371 6.80542864,12.3466356 C7.49473984,12.7087245 8.20770196,13.0835841 10.7963382,13.1617112 C11.8575799,13.1940138 12.8074332,13.8190304 13.216366,14.7554284 C13.477671,15.3530254 13.0714083,16.0512861 12.3893451,16.0512861 L2.35103651,16.0512861 C1.9520218,16.0512861 1.62701177,15.7316412 1.62701177,15.3387521 Z M9.8552587,24.9881968 L6.79894372,17.4940077 L9.26894358,17.4940077 L11.995671,24.1795065 C11.2521914,24.3560436 10.5304555,24.6287371 9.8552587,24.9881968 Z M3.7765793,23.8380761 L2.05082182,24.0093547 C1.89518322,24.0247547 1.76052533,23.9139496 1.74526664,23.7633295 L1.46641412,21.0375211 C1.45115543,20.8865255 1.56330673,20.7516812 1.71627514,20.7366567 L3.44165118,20.5653781 C3.45156927,20.564627 3.46148737,20.5638757 3.47102412,20.5638757 C3.61407424,20.5638757 3.73271055,20.6701736 3.74720636,20.8114033 L4.02605878,23.5372118 C4.04169901,23.6878317 3.92954761,23.8230517 3.7765793,23.8380761 Z M7.36160773,22.7446727 L5.41726958,22.7439215 L5.28604487,21.4600834 L6.83785333,21.4600834 L7.36160773,22.7446727 Z M47.5499371,45.1840449 L47.5499371,46.384873 C47.5499371,46.4799026 47.4713549,46.5572785 47.3748438,46.5572785 L38.2940177,46.5572785 C38.1975065,46.5572785 38.1189243,46.4799026 38.1189243,46.384873 L38.1189243,45.1840449 C38.1189243,44.6559359 38.5549413,44.2266126 39.0912841,44.2266126 L46.5775773,44.2266126 C47.1135387,44.2266126 47.5499371,44.6559359 47.5499371,45.1840449 Z M41.4342554,28.3991196 L38.5461676,27.9157083 C37.6985475,22.9009268 35.8762788,12.0987323 35.3777012,9.06154237 L38.1490603,9.06154237 L41.4342554,28.3991196 Z M37.0172471,27.6599173 L32.1306526,26.8422123 C33.2281337,25.4930179 34.7208148,24.494644 36.395837,23.9939547 L37.0172471,27.6599173 Z M40.3165567,38.3618237 L43.0718941,38.0403008 L43.8779342,42.7842667 L41.0661396,42.7842667 L40.3165567,38.3618237 Z M35.5691978,19.076832 C35.7469614,20.1304207 35.9418912,21.2888048 36.1566572,22.560999 C33.8689985,23.1972839 31.859048,24.6234786 30.5143762,26.5717725 L28.4933632,26.2333469 L35.5691978,19.076832 Z M11.1049451,46.384873 C11.1049451,46.4799026 11.0267443,46.5572785 10.9302331,46.5572785 L1.84902571,46.5572785 C1.75251445,46.5572785 1.6743137,46.4799026 1.6743137,46.384873 L1.6743137,45.1840449 C1.6743137,44.6559359 2.1103307,44.2266126 2.64629205,44.2266126 L10.1329668,44.2266126 C10.6612988,44.2266126 11.1053266,44.6641994 11.1053266,45.1840449 L11.1053266,46.384873 L11.1049451,46.384873 Z M10.0845204,42.7842667 L4.92784727,42.7842667 L8.36868106,39.3207584 C9.35820695,40.1392146 10.5293111,40.7428214 11.7786161,41.0707297 L10.0845204,42.7842667 Z M14.0483458,39.9198578 C12.1574131,39.9104676 10.2893683,39.1746457 8.92486024,37.8716515 C7.64236756,36.6467843 6.8050472,34.9659254 6.69175147,33.0833634 C6.57006342,31.0633278 7.27730351,29.1420779 8.68301001,27.6730637 C10.0765097,26.2175713 12.0288586,25.3825882 14.0403351,25.3825882 C14.4576601,25.3825882 14.8803257,25.4178957 15.2972693,25.4877593 L41.6898385,29.9053193 L42.8300438,36.6163597 C42.8300438,36.6163597 24.3800027,38.7686104 24.3800027,38.7686104 C24.3914467,38.7671079 24.2823471,38.3892433 24.270903,38.3588188 C23.8375563,37.2071957 22.441005,36.6588038 21.319873,37.2004347 L20.4249511,37.6327629 L19.3480692,36.0345384 C20.0293695,35.0737256 20.4001557,33.9247319 20.4001557,32.7449379 C20.4001557,29.5747817 17.7810021,26.9958372 14.5614192,26.9958372 C11.3418362,26.9958372 8.72230115,29.5747817 8.72230115,32.7449379 C8.72230115,35.9154698 11.3418362,38.4944143 14.5614192,38.4944143 C14.9730223,38.4944143 15.3808106,38.4512191 15.7802068,38.3674579 L16.5481002,39.5066858 C16.5481002,39.5066858 16.1021651,39.7230377 16.0758439,39.7373109 C15.4033172,39.8158136 14.7273574,39.9232383 14.0483458,39.9198578 Z M18.4539102,34.7078806 L16.3459225,31.5794173 C15.7687627,30.7230244 14.5976586,30.3977453 13.65162,30.8360832 C12.4866192,31.3758361 12.065098,32.8538651 12.7772972,33.9108342 L14.8860477,37.0400488 C14.7780925,37.0479366 14.6701373,37.0520684 14.5614192,37.0520684 C12.1497837,37.0520684 10.1875165,35.1199258 10.1875165,32.7449379 C10.1875165,30.3703257 12.1497837,28.4381831 14.5614192,28.4381831 C16.9734361,28.4381831 18.9353218,30.3703257 18.9353218,32.7449379 C18.9357032,33.4315548 18.7682391,34.1042739 18.4539102,34.7078806 Z M13.9979922,33.1134123 C13.7916184,32.8072894 13.8766856,32.3929905 14.1871999,32.1901606 C14.4912292,31.9914624 14.9238129,32.0778529 15.1252276,32.3768393 L19.0989712,38.2739307 L17.8740801,38.8658935 L13.9979922,33.1134123 Z M22.5619301,39.6911108 C22.5619301,39.6911108 17.410216,42.1814112 17.3957202,42.1881722 C17.0630808,42.3489337 16.6530037,42.2099576 16.4904986,41.8839273 C16.3314268,41.5654092 16.4760029,41.1492323 16.7994871,40.992227 C16.7994871,40.992227 21.9580676,38.4989217 21.965697,38.4951656 C22.7461788,38.1176766 23.3431749,39.3132461 22.5619301,39.6911108 Z M33.8331406,39.1183041 L38.8601151,38.5319754 L39.2320455,40.7244165 C37.2613861,40.7954069 35.3841862,40.2259807 33.8331406,39.1183041 Z M43.6643126,11.4545596 C43.7200067,11.377935 43.804311,11.321969 43.9027295,11.3054421 L45.4339388,11.0534071 C45.6338276,11.0211046 45.8264685,11.1551977 45.8596562,11.3523934 L46.727494,16.4614532 C46.7606816,16.6567708 46.6218275,16.8475813 46.423846,16.8802594 L44.8922554,17.1326699 C44.6889334,17.1660993 44.5001072,17.0301281 44.4669195,16.8336836 C44.4669195,16.8336836 43.6040407,11.7550483 43.5987002,11.7242483 C43.5822971,11.626965 43.6089998,11.5308086 43.6643126,11.4545596 Z M42.2563172,12.5648655 L42.8792532,16.2312037 L40.852518,16.2312037 L40.2295822,12.5648655 L42.2563172,12.5648655 Z M44.0412021,3.90365317 C44.0412021,3.90365317 46.6416638,1.70557805 46.6431897,1.7040756 C47.1177348,1.30329882 47.8524407,1.35813797 48.2594661,1.82539796 C48.6710692,2.29754086 48.6161379,3.01120162 48.1366337,3.41686141 L45.5342647,5.6160634 C44.0061071,6.90778939 42.0552841,7.61919643 40.0411374,7.61919643 L31.9383932,7.61919643 C31.3066835,7.61919643 30.7924658,7.1128729 30.7924658,6.49086121 C30.7924658,5.86847394 31.3066835,5.36215041 31.9383932,5.36215041 L40.0411374,5.36215041 C41.5078787,5.36215041 42.9284624,4.84418292 44.0412021,3.90365317 Z" id="Shape" fill="#08415C" fill-rule="nonzero"></path>
                            </g>
                        </g>
                    </g>
                </g>
            </g>
        </g>
    </g>
</svg>