<?xml version="1.0" encoding="UTF-8"?>
<svg width="64px" height="55px" viewBox="0 0 64 55" version="1.1" xmlns="http://www.w3.org/2000/svg" xmlns:xlink="http://www.w3.org/1999/xlink">
    <!-- Generator: Sketch 52.5 (67469) - http://www.bohemiancoding.com/sketch -->
    <title>parking</title>
    <desc>Created with Sketch.</desc>
    <g id="Page-1" stroke="none" stroke-width="1" fill="none" fill-rule="evenodd">
        <g id="Location-(inner)-001" transform="translate(-543.000000, -1075.000000)">
            <g id="CAREERS-MIDMAIN" transform="translate(-320.000000, 399.000000)">
                <g id="Options" transform="translate(370.000000, 410.000000)">
                    <g id="row-2" transform="translate(101.000000, 261.000000)">
                        <g id="sss-2" transform="translate(351.666667, 5.000000)">
                            <g id="parking" transform="translate(40.000000, 0.000000)">
                                <path d="M52.1687742,5.5 L49.2192379,5.5 C48.7788906,5.5 48.500118,5.78597991 48.500118,6.10197379 L48.5,6.10197379 L48.5,15.8830192 C48.5,16.2892971 48.9696173,16.5 49.4538695,16.5 C49.9234868,16.5 50.407739,16.2894181 50.407739,15.8830192 L50.407739,12.3919585 L52.0514584,12.3919585 C53.9884674,12.3919585 55.5,11.4438558 55.5,8.97605373 L55.5,8.88589079 C55.5,6.41796768 54.0324903,5.5 52.1687742,5.5 Z M53.592143,9.12660769 C53.592143,10.3002993 53.0052099,10.8571311 52.0513404,10.8571311 L50.407739,10.8571311 L50.407739,7.21551639 L52.0513404,7.21551639 C53.0052099,7.21551639 53.592143,7.7723482 53.592143,8.94603976 L53.592143,9.12660769 Z" id="Shape" fill="#CE2128" fill-rule="nonzero"></path>
                                <path d="M36.2403854,9.97706609 C33.3714979,7.08996208 29.5572534,5.5 25.5000456,5.5 C21.4428378,5.5 17.6285933,7.08996208 14.7597058,9.97706609 C14.4134314,10.3254169 14.4134314,10.8902638 14.7597058,11.2387369 C15.1058586,11.5870877 15.6671416,11.5870877 16.0132944,11.2387369 C18.5473325,8.68873079 21.9163671,7.28431932 25.499924,7.28431932 C29.083481,7.28431932 32.4526371,8.68873079 34.9865537,11.2387369 C35.1597516,11.4129123 35.3866714,11.5 35.6134695,11.5 C35.8402677,11.5 36.0671874,11.4129123 36.2403854,11.2387369 C36.5865382,10.8903861 36.5865382,10.3254169 36.2403854,9.97706609 Z" id="Path" fill="#08415C"></path>
                                <path d="M32.2348225,13.7967867 C28.2454909,9.40107109 21.7544781,9.40107109 17.7652706,13.7967867 C17.4115765,14.186374 17.4115765,14.8182222 17.7652706,15.2078095 C18.1188405,15.5973968 18.6922743,15.5973968 19.0458443,15.2078095 C22.3290292,11.5903109 27.6710639,11.5903109 30.9542488,15.2078095 C31.1310338,15.4026032 31.3626916,15.5 31.5944736,15.5 C31.8261314,15.5 32.0579134,15.4026032 32.2348225,15.2078095 C32.5883925,14.8182222 32.5883925,14.186374 32.2348225,13.7967867 Z" id="Path" fill="#08415C"></path>
                                <path d="M29.2571737,17.4753799 C27.4611626,16.1748734 24.5388374,16.1748734 22.7428263,17.4753799 C22.4190579,17.709741 22.4190579,18.0897549 22.7428263,18.3241983 C23.0664811,18.5586417 23.5913972,18.5585594 23.915052,18.3241983 C25.0647764,17.4917556 26.9353372,17.4917556 28.0850617,18.3241983 C28.246889,18.4414612 28.4590602,18.4999691 28.6711177,18.4999691 C28.8831752,18.4999691 29.0953463,18.4413789 29.2571737,18.3241983 C29.5809421,18.0897549 29.5809421,17.7098233 29.2571737,17.4753799 Z" id="Path" fill="#08415C"></path>
                                <path d="M44.139953,33.9493402 C43.750522,33.7394257 43.3662735,33.5095712 42.9980663,33.26594 L37.04493,29.3272345 C35.2381972,28.1317977 33.1306303,27.5 30.9502609,27.5 L20.0236121,27.5 C17.1232396,27.5 14.3942612,28.6041959 12.33926,30.6090782 C11.2830087,31.6397979 10.0796718,32.5019336 8.76268927,33.1716779 C7.98382729,33.5678204 7.5,34.3474163 7.5,35.206289 C7.5,36.471093 8.55057524,37.5 9.84201528,37.5 L13.5672756,37.5 C14.0643061,37.5 14.4673104,37.1053077 14.4673104,36.6185285 C14.4673104,36.1317494 14.0643061,35.7370571 13.5672756,35.7370571 L9.84201528,35.7370571 C9.54315538,35.7370571 9.2999461,35.498864 9.2999461,35.2061681 C9.2999461,35.0078552 9.41186432,34.8277904 9.59214273,34.736187 C11.0717584,33.9837821 12.423538,33.0152995 13.6095997,31.8579301 C15.3247742,30.1844153 17.6026247,29.2628221 20.0234887,29.2628221 L22.4697718,29.2628221 L22.4697718,35.7370571 L19.479692,35.7370571 C18.9826615,35.7370571 18.5796572,36.1317494 18.5796572,36.6185285 C18.5796572,37.1053077 18.9826615,37.5 19.479692,37.5 L44.1582153,37.5 C44.8980848,37.5 45.5,36.9104993 45.5,36.1858897 C45.5,35.2580123 44.9787844,34.4009523 44.139953,33.9493402 Z M24.270088,35.7371779 L24.270088,29.2629429 L30.9503843,29.2629429 C32.7703202,29.2629429 34.5294229,29.7903273 36.0374192,30.7880553 L41.9905555,34.7267608 C42.4039249,35.0002417 42.8351864,35.2583748 43.272741,35.4940301 C43.3860166,35.5550587 43.4809064,35.6389278 43.5522281,35.7371779 L24.270088,35.7371779 Z" id="Shape" fill="#08415C" fill-rule="nonzero"></path>
                                <path d="M27.5174578,38.5 L24.4825422,38.5 C23.9399483,38.5 23.5,38.7238826 23.5,39 C23.5,39.2761174 23.9399483,39.5 24.4825422,39.5 L27.5174578,39.5 C28.0600517,39.5 28.5,39.2761174 28.5,39 C28.5,38.7238826 28.0600517,38.5 27.5174578,38.5 Z" id="Path" fill="#CE2128"></path>
                                <path d="M62.725669,39.1564521 L62.4421701,38.6785207 C61.3737583,36.8776541 59.5965992,35.6095861 57.5664568,35.199395 L55.2493701,34.7313372 L55.2493701,22.8021742 L61.245667,22.8021742 C62.4803145,22.8021742 63.4846192,21.7819456 63.4846192,20.5280006 L63.4846192,2.77417361 C63.4846192,1.5201036 62.4801915,0.5 61.245667,0.5 L43.7668036,0.5 C42.5321561,0.5 41.5278515,1.52022858 41.5278515,2.77417361 L41.5278515,9.50883207 C41.5278515,10.0122598 41.9295979,10.4204512 42.4253519,10.4204512 C42.9211058,10.4204512 43.3228523,10.0122598 43.3228523,9.50883207 L43.3228523,2.77417361 C43.3228523,2.52545931 43.5220644,2.32311335 43.7669267,2.32311335 L61.2459131,2.32311335 C61.4907754,2.32311335 61.6899875,2.52545931 61.6899875,2.77417361 L61.6899875,20.5281256 C61.6899875,20.7768399 61.4907754,20.9791859 61.2459131,20.9791859 L43.7668036,20.9791859 C43.5219413,20.9791859 43.3227292,20.7768399 43.3227292,20.5281256 L43.3227292,15.4352315 C43.3227292,14.9318038 42.9209827,14.5236124 42.4252288,14.5236124 C41.9294749,14.5236124 41.5277284,14.9318038 41.5277284,15.4352315 L41.5277284,20.5281256 C41.5277284,21.7821956 42.5321561,22.8022992 43.7666806,22.8022992 L50.5663474,22.8022992 L50.5663474,33.7855979 L49.3752583,33.5450074 C47.7313585,33.2129301 46.1286792,32.2051997 45.0660505,31.4759294 L39.1298003,27.402639 C36.8712837,25.8529864 34.2369834,25.0338539 31.5115058,25.0338539 L20.6157476,25.0338539 C16.9901856,25.0338539 13.5789704,26.4652735 11.010623,29.0642755 C9.38542623,30.7089145 7.33965688,31.8306285 5.09442932,32.3083099 L3.80588748,32.5823956 C1.89030121,32.9898371 0.5,34.7285876 0.5,36.7165523 L0.5,45.5452852 C0.5,46.598384 1.11215581,47.5553717 2.05973609,47.9830603 L5.63447994,49.5968287 C5.85067246,50.7450389 6.3952758,51.8415065 7.26865911,52.7286292 C8.42935574,53.907585 9.95402362,54.4971254 11.4788145,54.4971254 C13.0036055,54.4971254 14.5281503,53.907585 15.68897,52.7286292 C16.4354924,51.970363 16.9404748,51.0588689 17.2068703,50.0931325 L47.0131367,50.0931325 C47.2795321,51.0588689 47.7846376,51.970363 48.53116,52.7286292 C49.6558041,53.8708403 51.1508178,54.5 52.7413155,54.5 C54.3316901,54.5 55.8269499,53.8709653 56.9515939,52.7286292 C57.6981164,51.970363 58.2030988,51.0588689 58.4694943,50.0931325 L60.1720872,50.0931325 C62.0070781,50.0931325 63.5,48.5767251 63.5,46.7128676 L63.5,41.9845462 C63.4997539,40.9879392 63.232005,40.0100796 62.725669,39.1564521 Z M52.3613482,22.8021742 L53.4544924,22.8021742 L53.4544924,34.3687642 L52.3613482,34.1479209 L52.3613482,22.8021742 Z M14.4196234,51.4395642 C13.6340952,52.2374497 12.5896774,52.6768867 11.4786915,52.6768867 C10.3677056,52.6768867 9.3232878,52.2374497 8.53775962,51.4395642 C7.27764149,50.1596229 6.99734181,48.2562711 7.69550705,46.6982447 C7.70116718,46.6857465 7.70658122,46.6731233 7.71224136,46.6606251 C7.73352838,46.6143817 7.75604587,46.5686383 7.77905555,46.5231448 C7.78988363,46.5016479 7.80071172,46.480276 7.81203198,46.459029 C7.83282682,46.4195347 7.85448299,46.3802903 7.87663134,46.3412959 C7.89188909,46.3144248 7.90751599,46.2878036 7.92338897,46.2613074 C7.94393772,46.2269373 7.96473256,46.1926923 7.98638873,46.1588221 C8.0059531,46.1282015 8.02613271,46.0979558 8.04655841,46.0678352 C8.06673802,46.0379645 8.08679458,46.0079688 8.10771247,45.978598 C8.13170652,45.9449778 8.15668493,45.9119825 8.1817864,45.8789873 C8.20135078,45.853241 8.22042297,45.8272447 8.24060258,45.8018733 C8.27013371,45.7647537 8.30101836,45.7285089 8.33177995,45.6922641 C8.34937559,45.671642 8.36623294,45.6505201 8.38419772,45.630148 C8.42997098,45.5785304 8.47709775,45.5279127 8.52557803,45.4782948 C8.5297616,45.4740454 8.53357604,45.469546 8.53775962,45.4652966 C8.5469881,45.455923 8.55670876,45.4471742 8.56606029,45.4379256 C8.60715778,45.3969315 8.64850137,45.3564373 8.69070629,45.3175678 C8.70165742,45.3074443 8.71322378,45.2980706 8.72429795,45.2880721 C8.76637982,45.2502025 8.80870778,45.2125829 8.85202011,45.1767131 C8.85608064,45.1733385 8.86038726,45.170214 8.8644478,45.1668395 C10.3856704,43.9163939 12.5797106,43.9178937 14.0990875,45.1718388 C14.1008102,45.1733385 14.1026558,45.1745884 14.1045015,45.1760882 C14.15089,45.2144576 14.1962942,45.2547019 14.2414522,45.295446 C14.2495732,45.302695 14.2579404,45.309569 14.2659384,45.3169429 C14.3181101,45.3648111 14.3692974,45.414179 14.4195003,45.4651717 C14.4736407,45.5201638 14.5258124,45.5767806 14.5765075,45.6341474 C14.5987789,45.6593938 14.6198198,45.6852651 14.641353,45.7108864 C14.6676849,45.7421319 14.6941399,45.7735024 14.7194874,45.8053728 C14.7479111,45.8412427 14.7753505,45.8777375 14.8024207,45.9142322 C14.8176784,45.9346043 14.8328132,45.9551014 14.8475787,45.9757234 C14.8804321,46.0217168 14.9124242,46.0682101 14.9433088,46.1153284 C14.9485998,46.1233272 14.9537678,46.131451 14.9589357,46.1394499 C16.0146738,47.7773398 15.835026,50.0017706 14.4196234,51.4395642 Z M55.6821243,51.4395642 C54.8964731,52.2374497 53.8520553,52.6768867 52.7410694,52.6768867 C51.6300835,52.6768867 50.5857887,52.2374497 49.8002605,51.4395642 C48.3846118,50.0017706 48.204964,47.7769649 49.2608252,46.1391999 C49.2658701,46.1313261 49.270915,46.1234522 49.2760829,46.1157033 C49.3069676,46.0684601 49.3390827,46.0218418 49.3720591,45.9755984 C49.3867016,45.9551014 49.4017133,45.9348543 49.416848,45.9147321 C49.4440412,45.8779874 49.4716036,45.8413677 49.5002734,45.8052479 C49.5254979,45.7736274 49.5515838,45.7426318 49.5777927,45.7116363 C49.5995719,45.685765 49.6208589,45.6595188 49.6433764,45.6341474 C49.6940715,45.5767806 49.7462432,45.5202888 49.8003836,45.4652966 C50.5859118,44.6674112 51.6302065,44.2279742 52.7411924,44.2279742 C53.8521783,44.2279742 54.8965961,44.6674112 55.6821243,45.4652966 C55.7362647,45.5202888 55.7884364,45.5769056 55.8391315,45.6342724 C55.8615259,45.6595188 55.8825669,45.685515 55.904223,45.7112613 C55.930555,45.7423819 55.9568869,45.7736274 55.9821114,45.8053728 C56.0106582,45.8413677 56.0380975,45.8778624 56.0652908,45.9144822 C56.0804255,45.9348543 56.0955602,45.9552263 56.1103257,45.9758484 C56.1431791,46.0219668 56.1752942,46.0683351 56.2060558,46.1154533 C56.2113468,46.1234522 56.2165148,46.131451 56.2216827,46.1394499 C57.2771747,47.7772148 57.097527,50.0018956 55.6821243,51.4395642 Z M61.7051222,46.7128676 L61.7048762,46.7128676 C61.7048762,47.5714944 61.0171699,48.2700191 60.1718411,48.2700191 L58.6943,48.2700191 C58.6591088,46.9478339 58.1996535,45.6863899 57.3727817,44.6521633 C57.3672447,44.6451644 57.3619537,44.6379154 57.3562935,44.6309164 C57.3051062,44.5675505 57.2520732,44.5054344 57.1981789,44.4436933 C57.1843977,44.4279455 57.1713548,44.4116979 57.1574506,44.3959501 C57.100357,44.3320843 57.0412948,44.2694683 56.9812481,44.2077271 C56.9710353,44.1972286 56.9616837,44.1862302 56.9513478,44.1758567 C56.1781243,43.3905944 55.2298057,42.8477973 54.1958469,42.585335 C53.7258097,42.4659771 53.2381768,42.4046109 52.7410694,42.4046109 C52.3435065,42.4046109 51.9518498,42.4439803 51.570406,42.5207192 C50.4261976,42.7511862 49.374397,43.3192296 48.5309139,44.1758567 C48.5208241,44.1861052 48.5115957,44.1968537 48.5016289,44.2072272 C48.4413362,44.2693433 48.3820278,44.3320843 48.3248112,44.3962001 C48.3112761,44.4113229 48.2987254,44.4270707 48.2854364,44.4423185 C48.2310499,44.5045595 48.1774017,44.5673005 48.1258452,44.6312913 C48.1206773,44.6376654 48.1158785,44.6442895 48.1107105,44.6507885 C47.2832235,45.6851401 46.8232761,46.9473339 46.7879618,48.2701441 L17.4317991,48.2701441 C17.3964848,46.9457092 16.935553,45.6820155 16.1059742,44.6467891 C16.1021598,44.6419148 16.0984684,44.6370405 16.0946539,44.6321662 C16.0405135,44.5649259 15.9842813,44.4990603 15.9270647,44.4338197 C15.9164827,44.4218214 15.906639,44.4094482 15.895934,44.3974499 C15.8288737,44.3223357 15.7599677,44.2483463 15.6887239,44.1759817 C15.3985805,43.881274 15.0855504,43.623311 14.7556631,43.4022177 C13.7656318,42.7390629 12.6221616,42.4074855 11.4786915,42.4074855 C9.95402362,42.4074855 8.4292327,42.9970259 7.26853606,44.1759817 C7.20221405,44.243347 7.13810688,44.3124621 7.07535322,44.3824521 C7.05677322,44.4031991 7.03893149,44.424321 7.02059758,44.4451931 C6.97630087,44.4960608 6.93274245,44.5474284 6.89029144,44.5994209 C6.87146535,44.6225426 6.85263925,44.6457893 6.83418229,44.6692859 C6.79025473,44.7249029 6.74743458,44.7811448 6.70559881,44.8380117 C6.69255589,44.8557591 6.67914383,44.8731316 6.66647005,44.8910041 C6.55400565,45.0473566 6.44966231,45.2085835 6.35319393,45.3739348 C6.35048691,45.3785591 6.34790294,45.3833084 6.34519592,45.3879328 C6.29806915,45.4692961 6.25291112,45.5517842 6.20972184,45.6351473 C6.20849137,45.6375219 6.20726091,45.6400216 6.2059074,45.6423962 C5.89300042,46.2471844 5.68259108,46.9013405 5.58612271,47.5798682 L2.78890903,46.3170494 C2.48892192,46.1815688 2.29512385,45.8786123 2.29512385,45.5452852 L2.29512385,36.7165523 C2.29512385,35.5865894 3.08545084,34.5983563 4.17428838,34.3666395 L5.46283022,34.0925538 C8.04926543,33.5422578 10.40585,32.2500683 12.2778778,30.3557152 C14.5074785,28.099414 17.468713,26.8568423 20.6161167,26.8568423 L31.511875,26.8568423 C33.8779341,26.8568423 36.1647513,27.5679902 38.1253726,28.9131722 L44.0616228,32.9864626 C45.2528349,33.8039703 47.0634626,34.9365577 49.0254374,35.3330008 L57.2166359,36.9875134 C58.752501,37.2978438 60.0967828,38.2570812 60.9050746,39.6193856 L61.1885735,40.0973171 C61.5265819,40.6668603 61.7051222,41.3195166 61.7051222,41.9845462 L61.7051222,46.7128676 Z" id="Shape" fill="#08415C" fill-rule="nonzero"></path>
                                <path d="M12.768776,46.2322525 C12.296312,45.7600027 11.6684678,45.5 11.0005364,45.5 C10.332605,45.5 9.70464785,45.7601156 9.23240963,46.2322525 C8.76017142,46.7043895 8.5,47.3322119 8.5,48 C8.5,48.6677881 8.76017142,49.2956105 9.23240963,49.7677475 C9.70464785,50.2398844 10.332605,50.5 11.0006493,50.5 C11.6685807,50.5 12.2965378,50.2399973 12.768776,49.7677475 C13.7437413,48.7929913 13.7437413,47.2070087 12.768776,46.2322525 Z M11.6038766,48.6032108 C11.4427374,48.7643154 11.2284122,48.8530527 11.0005364,48.8530527 C10.7725476,48.8530527 10.5583353,48.7643154 10.3971962,48.6030979 C10.236057,48.4419933 10.1471877,48.227827 10.1471877,47.9998871 C10.1471877,47.7719473 10.2359441,47.5577809 10.3971962,47.3966763 C10.5583353,47.2355717 10.7725476,47.1467215 11.0005364,47.1467215 C11.2284122,47.1467215 11.4427374,47.2354588 11.6038766,47.3966763 C11.9365437,47.7293849 11.9365437,48.2706151 11.6038766,48.6032108 Z" id="Shape" fill="#CE2128" fill-rule="nonzero"></path>
                                <path d="M53.7676909,46.2323654 C53.2954447,45.7601156 52.6674769,45.5 51.9994213,45.5 C51.3314786,45.5 50.7036237,45.7600027 50.2311517,46.2322525 C49.2562828,47.2070087 49.2562828,48.7929913 50.2311517,49.7677475 C50.7035108,50.2399973 51.3314786,50.5 51.9994213,50.5 C52.6674769,50.5 53.2953317,50.2399973 53.767578,49.7678604 C54.2399371,49.2957234 54.5,48.667901 54.5,48.0001129 C54.5,47.3323248 54.2399371,46.7045023 53.7676909,46.2323654 Z M52.6027717,48.6033237 C52.4416298,48.7644283 52.2274139,48.8531656 51.9994213,48.8531656 C51.7715416,48.8531656 51.5572127,48.7644283 51.3960708,48.6033237 C51.0633981,48.270728 51.0633981,47.7294978 51.3960708,47.3969021 C51.5572127,47.2357975 51.7715416,47.1469473 51.9994213,47.1469473 C52.2274139,47.1469473 52.4416298,47.2356846 52.6028846,47.3969021 C52.7640265,47.5580067 52.8527844,47.772173 52.8527844,48.0001129 C52.8527844,48.227827 52.7641394,48.4421062 52.6027717,48.6033237 Z" id="Shape" fill="#CE2128" fill-rule="nonzero"></path>
                            </g>
                        </g>
                    </g>
                </g>
            </g>
        </g>
    </g>
</svg>