<?xml version="1.0" encoding="UTF-8"?>
<svg width="54px" height="54px" viewBox="0 0 54 54" version="1.1" xmlns="http://www.w3.org/2000/svg" xmlns:xlink="http://www.w3.org/1999/xlink">
    <!-- Generator: Sketch 52.5 (67469) - http://www.bohemiancoding.com/sketch -->
    <title>group</title>
    <desc>Created with Sketch.</desc>
    <g id="Page-1" stroke="none" stroke-width="1" fill="none" fill-rule="evenodd">
        <g id="Location-(inner)-001" transform="translate(-1163.000000, -1074.000000)">
            <g id="CAREERS-MIDMAIN" transform="translate(-320.000000, 399.000000)">
                <g id="Options" transform="translate(370.000000, 410.000000)">
                    <g id="row-2" transform="translate(101.000000, 261.000000)">
                        <g id="sss-4" transform="translate(934.000000, 4.000000)">
                            <g id="group" transform="translate(78.000000, 0.000000)">
                                <path d="M54,27.8709677 L54,20.8823873 C54,18.9443989 52.7526619,17.2679561 50.8967522,16.7112683 L45.2903226,15.0292969 L45.2903226,13.7062594 C46.8676758,12.6030904 47.9032258,10.7765247 47.9032258,8.71052792 L47.9032258,6.09677419 C47.9032258,2.73495781 45.168268,0 41.8064516,0 C38.4446352,0 35.7096774,2.73495781 35.7096774,6.09677419 L35.7096774,8.70967742 C35.7096774,10.7765247 36.7452275,12.6030904 38.3225806,13.7054089 L38.3225806,15.0284463 L33.38171,16.5109627 C31.5275013,14.8528068 29.1650863,13.9354839 26.6568013,13.9354839 C24.1587229,13.9354839 21.8732831,14.8506804 20.1071069,16.3587134 L15.6774194,15.0292969 L15.6774194,13.7062594 C17.2547725,12.6030904 18.2903226,10.7765247 18.2903226,8.71052792 L18.2903226,6.09677419 C18.2903226,2.73495781 15.5553648,0 12.1935484,0 C8.83173201,0 6.09677419,2.73495781 6.09677419,6.09677419 L6.09677419,8.70967742 C6.09677419,10.7765247 7.13232425,12.6030904 8.70967742,13.7054089 L8.70967742,15.0284463 L3.10324783,16.7104177 C1.24733805,17.2679561 0,18.9443989 0,20.8823873 L0,27.8709677 L1.74193548,27.8709677 L1.74193548,20.8823873 C1.74193548,19.7196793 2.48999814,18.7134734 3.60422445,18.3800561 L9.21235515,16.6972342 C9.71928559,17.3555632 10.6999748,18.2903226 12.1935484,18.2903226 C13.687122,18.2903226 14.6678112,17.3555632 15.1747416,16.6972342 L18.746645,17.7685074 C17.612856,19.194462 16.8575637,20.9300183 16.6283392,22.828881 C15.5162393,21.6470356 13.9414378,20.9032258 12.1935484,20.9032258 C8.83173201,20.9032258 6.09677419,23.6381836 6.09677419,27 L6.09677419,29.6129032 C6.09677419,31.6797505 7.13232425,33.5063162 8.70967742,34.6086347 L8.70967742,35.9316721 L3.10324783,37.6136435 C1.24733805,38.171182 0,39.8476247 0,41.7856131 L0,49.6451613 L10.4516129,49.6451613 C10.9313256,49.6451613 11.3225806,50.0364163 11.3225806,50.516129 L11.3225806,54 L42.6774194,54 L42.6774194,50.516129 C42.6774194,50.0364163 43.0686744,49.6451613 43.5483871,49.6451613 L54,49.6451613 L54,41.7856131 C54,39.8476247 52.7526619,38.171182 50.8967522,37.6144941 L45.2903226,35.9325227 L45.2903226,34.6094852 C46.8676758,33.5063162 47.9032258,31.6797505 47.9032258,29.6137537 L47.9032258,27.0008505 C47.9032258,23.6390341 45.168268,20.9040763 41.8064516,20.9040763 C40.10109,20.9040763 38.55946,21.6096112 37.4516129,22.7416992 L37.4516129,21.9162362 C37.4516129,20.1959898 36.5168535,18.6475554 35.0581527,17.8288968 L38.8252584,16.6980847 C39.3321888,17.3555632 40.312878,18.2903226 41.8064516,18.2903226 C43.3000252,18.2903226 44.2807144,17.3555632 44.7876449,16.6972342 L50.3966262,18.3800561 C51.5100019,18.7134734 52.2580645,19.7196793 52.2580645,20.8823872 L52.2580645,27.8709677 L54,27.8709677 Z M12.1935484,1.74193548 C14.5946636,1.74193548 16.5483871,3.69565897 16.5483871,6.09677419 L12.5541835,6.09677419 C12.0008978,6.09677419 11.4582441,5.87222782 11.0674143,5.48097278 L10.4516129,4.86517137 L9.83581149,5.48097278 C9.4449817,5.87222782 8.90232797,6.09677419 8.34904234,6.09677419 L7.83870968,6.09677419 C7.83870968,3.69565897 9.79243316,1.74193548 12.1935484,1.74193548 Z M7.83870968,8.70967742 L7.83870968,7.83870968 L8.34904234,7.83870968 C9.1077369,7.83870968 9.83240927,7.62096774 10.4516129,7.21440272 C11.0708165,7.62096774 11.7954889,7.83870968 12.5541835,7.83870968 L16.5483871,7.83870968 L16.5483871,8.70967742 C16.5483871,11.1107926 14.5946636,13.0645161 12.1935484,13.0645161 C9.79243316,13.0645161 7.83870968,11.1107926 7.83870968,8.70967742 Z M12.1935484,16.5483871 C11.2677199,16.5483871 10.6676537,15.7705551 10.4516129,15.4379883 L10.4516129,14.5504348 C11.0036227,14.715017 11.5883789,14.8064516 12.1935484,14.8064516 C12.7987179,14.8064516 13.3834741,14.715017 13.9354839,14.5495842 L13.9354839,15.4371378 C13.719443,15.7714056 13.1193769,16.5483871 12.1935484,16.5483871 Z M36.1345294,31.8354019 C36.5780934,32.9619613 37.3435924,33.9252142 38.3225806,34.6094852 L38.3225806,35.9325227 L32.7170017,37.6144941 C32.5324313,37.6693548 32.3529644,37.7408014 32.1777502,37.8199029 L31.3548387,37.6302293 L31.3548387,35.9142357 C32.2857705,35.1661731 33.0193737,34.1837828 33.4697423,33.0576487 C34.4729713,32.9696163 35.4136845,32.542638 36.1345294,31.8354019 Z M27,37.4516129 C27.9241274,37.4516129 28.8057271,37.2670426 29.6129032,36.9387285 L29.6129032,37.8870968 L27,39.8467742 L24.3870968,37.8870968 L24.3870968,36.9387285 C25.1942729,37.2670426 26.0758726,37.4516129 27,37.4516129 Z M23.3175245,39.2624432 L25.4409338,40.8555318 L23.25671,42.1662362 L22.7042749,39.4044859 L23.3175245,39.2624432 Z M26.0375976,46.1612903 L27.9624024,46.1612903 L28.639869,52.2580645 L25.360131,52.2580645 L26.0375976,46.1612903 Z M28.1138011,44.4193548 L25.8853484,44.4193548 L25.3852224,42.9194021 L27,41.9510459 L28.6139271,42.9194021 L28.1138011,44.4193548 Z M28.5590662,40.8555318 L30.6824755,39.2624432 L31.2957251,39.4036354 L30.74329,42.1653856 L28.5590662,40.8555318 Z M35.0305097,30.4996062 C34.7289882,30.8304719 34.3458134,31.062248 33.9303175,31.20344 C33.9545583,30.9665606 33.9677419,30.7267043 33.9677419,30.483871 L33.9677419,26.3161542 C34.9050529,26.671686 35.6025076,27.4962985 35.6964938,28.4816658 C35.7679404,29.2314296 35.5319116,29.9471711 35.0305097,30.4996062 Z M32.2258065,30.483871 C32.2258065,33.3659746 29.8821037,35.7096774 27,35.7096774 C24.1178963,35.7096774 21.7741935,33.3659746 21.7741935,30.483871 L21.7741935,26.1290323 L24.731146,26.1290323 C26.6291583,26.1290323 28.4761373,25.6552735 30.1274886,24.7502836 L30.8164378,26.1290323 L32.2258065,26.1290323 L32.2258065,30.483871 Z M20.0696825,31.20344 C19.6541866,31.062248 19.2710118,30.8304719 18.9694903,30.4996062 C18.4680884,29.9480217 18.2320596,29.2314296 18.3035062,28.4825164 C18.3974924,27.497149 19.0949471,26.671686 20.0322581,26.3170047 L20.0322581,30.483871 C20.0322581,30.7267043 20.0454417,30.9665606 20.0696825,31.20344 Z M20.5302577,33.0576487 C20.9797757,34.1837828 21.7133789,35.1661731 22.6451613,35.9142357 L22.6451613,37.6302293 L21.8222498,37.8199029 C21.6461851,37.7408014 21.4675687,37.6702053 21.2838489,37.6144941 L15.6774194,35.9325227 L15.6774194,34.6094852 C16.655557,33.9252142 17.4219066,32.9619613 17.8654706,31.8354019 C18.5863155,32.542638 19.5270287,32.9696163 20.5302577,33.0576487 Z M12.1935484,22.6451613 C14.5946636,22.6451613 16.5483871,24.5988848 16.5483871,27 L16.0380544,27 C15.4847688,27 14.9421151,26.7754536 14.5512853,26.3841986 L13.9354839,25.7683972 L13.3196825,26.3841986 C12.9288527,26.7754536 12.3861989,27 11.8329133,27 L7.83870968,27 C7.83870968,24.5988848 9.79243316,22.6451613 12.1935484,22.6451613 Z M7.83870968,29.6129032 L7.83870968,28.7419355 L11.8329133,28.7419355 C12.5916079,28.7419355 13.3162802,28.5241935 13.9354839,28.1176285 C14.5546875,28.5241935 15.2793599,28.7419355 16.0380544,28.7419355 L16.5483871,28.7419355 L16.5483871,29.6129032 C16.5483871,32.0140185 14.5946636,33.9677419 12.1935484,33.9677419 C9.79243316,33.9677419 7.83870968,32.0140185 7.83870968,29.6129032 Z M12.1935484,35.7096774 C12.7987179,35.7096774 13.3834741,35.6182428 13.9354839,35.45281 L13.9354839,36.3403636 C13.719443,36.6746314 13.1193769,37.4516129 12.1935484,37.4516129 C11.2677199,37.4516129 10.6676537,36.6737809 10.4516129,36.3412141 L10.4516129,35.4536606 C11.0036227,35.6182428 11.5883789,35.7096774 12.1935484,35.7096774 Z M10.4516129,47.9032258 L6.96774194,47.9032258 L6.96774194,41.8064516 L5.22580645,41.8064516 L5.22580645,47.9032258 L1.74193548,47.9032258 L1.74193548,41.7856131 C1.74193548,40.6229051 2.48999814,39.6166992 3.60422445,39.2832819 L9.21235515,37.60046 C9.71928559,38.258789 10.6999748,39.1935484 12.1935484,39.1935484 C13.687122,39.1935484 14.6678112,38.258789 15.1747416,37.60046 L18.4774446,38.5917811 L16.0482611,39.1518713 C13.2656722,39.7944651 11.3225806,42.2376828 11.3225806,45.0925687 L11.3225806,46.1612903 L13.0645161,46.1612903 L13.0645161,45.0925687 C13.0645161,43.0529392 14.4530462,41.308452 16.4403666,40.8491526 L21.0061428,39.7953157 L22.0327621,44.930538 L23.8550749,43.8375756 L24.3705109,45.3843088 L23.6075637,52.2580645 L19.1612903,52.2580645 L19.1612903,45.2903226 L17.4193548,45.2903226 L17.4193548,52.2580645 L13.0645161,52.2580645 L13.0645161,50.516129 C13.0645161,49.0757151 11.8920269,47.9032258 10.4516129,47.9032258 Z M50.3957756,39.2832819 C51.5100019,39.6166992 52.2580645,40.6229051 52.2580645,41.7856131 L52.2580645,47.9032258 L48.7741935,47.9032258 L48.7741935,41.8064516 L47.0322581,41.8064516 L47.0322581,47.9032258 L43.5483871,47.9032258 C42.1079731,47.9032258 40.9354839,49.0757151 40.9354839,50.516129 L40.9354839,52.2580645 L36.5806452,52.2580645 L36.5806452,45.2903226 L34.8387097,45.2903226 L34.8387097,52.2580645 L30.3924363,52.2580645 L29.6286385,45.3843088 L30.1440744,43.8375756 L31.9663874,44.930538 L32.9930066,39.7953157 L37.5596334,40.8491526 C39.5469538,41.308452 40.9354839,43.0529392 40.9354839,45.0925687 L40.9354839,46.1612903 L42.6774194,46.1612903 L42.6774194,45.0925687 C42.6774194,42.2376828 40.7343278,39.7944651 37.9517389,39.1518713 L35.5225554,38.5917811 L38.8252584,37.60046 C39.3321888,38.258789 40.312878,39.1935484 41.8064516,39.1935484 C43.3000252,39.1935484 44.2807144,38.258789 44.7876449,37.60046 L50.3957756,39.2832819 Z M43.5483871,36.3412141 C43.3323463,36.6746314 42.7322801,37.4516129 41.8064516,37.4516129 C40.878922,37.4516129 40.2780053,36.6712292 40.0645161,36.3412141 L40.0645161,35.45281 C40.6165259,35.6182428 41.2012821,35.7096774 41.8064516,35.7096774 C42.4116211,35.7096774 42.9963773,35.6182428 43.5483871,35.45281 L43.5483871,36.3412141 Z M41.8064516,33.9677419 C39.4053364,33.9677419 37.4516129,32.0140185 37.4516129,29.6129032 L37.4516129,28.7419355 L37.9619456,28.7419355 C38.7206401,28.7419355 39.4453125,28.5241935 40.0645161,28.1176285 C40.6837198,28.5241935 41.4083921,28.7419355 42.1670867,28.7419355 L46.1612903,28.7419355 L46.1612903,29.6129032 C46.1612903,32.0140185 44.2075668,33.9677419 41.8064516,33.9677419 Z M41.8064516,22.6451613 C44.2075668,22.6451613 46.1612903,24.5988848 46.1612903,27 L42.1670867,27 C41.6138011,27 41.0711473,26.7754536 40.6803175,26.3841986 L40.0645161,25.7683972 L39.4487147,26.3841986 C39.0578849,26.7754536 38.5152312,27 37.9619456,27 L37.4516129,27 C37.4516129,24.5988848 39.4053364,22.6451613 41.8064516,22.6451613 Z M35.7096774,25.3320628 C34.9390751,24.7485824 33.9817761,24.3870968 32.9470766,24.3870968 L31.8932396,24.3870968 L30.8219664,22.2445501 L30.0011813,22.7914567 C28.43446,23.8359375 26.6125724,24.3870968 24.731146,24.3870968 L21.0529234,24.3870968 C20.0182239,24.3870968 19.0609249,24.7485824 18.2903226,25.3320628 L18.2903226,24.043898 C18.2903226,19.4313414 22.0442446,15.6774194 26.6568013,15.6774194 C28.8916331,15.6774194 30.9933531,16.5475366 32.5732579,18.1274414 L33.4973854,19.0515689 L33.6925875,19.1170615 C34.8986737,19.5193737 35.7096774,20.6438068 35.7096774,21.9153856 L35.7096774,25.3320628 Z M41.8064516,1.74193548 C44.2075668,1.74193548 46.1612903,3.69565897 46.1612903,6.09677419 L45.6509577,6.09677419 C45.097672,6.09677419 44.5550183,5.87222782 44.1641885,5.48097278 L43.5483871,4.86517137 L42.9325857,5.48097278 C42.5417559,5.87222782 41.9991022,6.09677419 41.4458165,6.09677419 L37.4516129,6.09677419 C37.4516129,3.69565897 39.4053364,1.74193548 41.8064516,1.74193548 Z M37.4516129,8.70967742 L37.4516129,7.83870968 L41.4458165,7.83870968 C42.2045111,7.83870968 42.9291835,7.62096774 43.5483871,7.21440272 C44.1675907,7.62096774 44.8922631,7.83870968 45.6509577,7.83870968 L46.1612903,7.83870968 L46.1612903,8.70967742 C46.1612903,11.1107926 44.2075668,13.0645161 41.8064516,13.0645161 C39.4053364,13.0645161 37.4516129,11.1107926 37.4516129,8.70967742 Z M41.8064516,16.5483871 C40.878922,16.5483871 40.2780053,15.7680034 40.0645161,15.4379883 L40.0645161,14.5495842 C40.6165259,14.715017 41.2012821,14.8064516 41.8064516,14.8064516 C42.4116211,14.8064516 42.9963773,14.715017 43.5483871,14.5495842 L43.5483871,15.4371378 C43.3323463,15.7714056 42.7322801,16.5483871 41.8064516,16.5483871 Z" id="Shape" fill="#08415C" fill-rule="nonzero"></path>
                                <polygon id="Path" fill="#CE2128" points="20 0 22 0 22 2 20 2"></polygon>
                                <polygon id="Path" fill="#CE2128" points="20 3 22 3 22 13 20 13"></polygon>
                                <polygon id="Path" fill="#CE2128" points="32 0 34 0 34 2 32 2"></polygon>
                                <polygon id="Path" fill="#CE2128" points="32 3 34 3 34 13 32 13"></polygon>
                                <polygon id="Path" fill="#CE2128" points="23 4 25 4 25 10 23 10"></polygon>
                                <polygon id="Path" fill="#CE2128" points="23 11 25 11 25 13 23 13"></polygon>
                                <polygon id="Path" fill="#CE2128" points="29 4 31 4 31 10 29 10"></polygon>
                                <polygon id="Path" fill="#CE2128" points="29 11 31 11 31 13 29 13"></polygon>
                            </g>
                        </g>
                    </g>
                </g>
            </g>
        </g>
    </g>
</svg>