<?xml version="1.0" encoding="UTF-8"?>
<svg width="60px" height="59px" viewBox="0 0 60 59" version="1.1" xmlns="http://www.w3.org/2000/svg" xmlns:xlink="http://www.w3.org/1999/xlink">
    <!-- Generator: Sketch 52.5 (67469) - http://www.bohemiancoding.com/sketch -->
    <title>puzzle</title>
    <desc>Created with Sketch.</desc>
    <g id="Page-1" stroke="none" stroke-width="1" fill="none" fill-rule="evenodd">
        <g id="Location-(inner)-001" transform="translate(-224.000000, -1070.000000)">
            <g id="CAREERS-MIDMAIN" transform="translate(-320.000000, 399.000000)">
                <g id="Options" transform="translate(370.000000, 410.000000)">
                    <g id="row-2" transform="translate(101.000000, 261.000000)">
                        <g id="sss-1">
                            <g id="puzzle" transform="translate(73.000000, 0.000000)">
                                <path d="M56.5173606,41.0853652 C55.7126182,41.0853652 57.1893525,40.8811894 35.6146574,46.2092728 C35.4402508,45.6158015 35.1179877,45.0554521 34.6478679,44.5894773 L28.1687304,38.1674649 C27.3653613,37.3711789 26.2969491,36.9324276 25.1607882,36.9324276 L12.2363874,36.9324276 C11.992859,34.724152 10.0991051,33 7.80755762,33 L4.45583765,33 C1.998581,33 0,34.9809598 0,37.4165514 L0,52.9307431 C0,55.3667884 1.998581,57.3486557 4.45583765,57.3486557 L7.80755762,57.3486557 C10.263441,57.3486557 12.2633953,55.3667884 12.2633953,52.9307431 L12.2633953,51.3835436 C14.4038818,51.8345454 16.9142387,51.8731119 20.3025795,53.5160474 C27.005104,56.7978345 27.2564144,56.8128074 28.4392667,57.568712 C31.3963975,59.4575659 35.1953492,59.4797983 38.1781144,57.6181679 L54.9596027,49.184796 C55.3940171,48.966101 55.567966,48.4397809 55.3477834,48.0091967 C55.1271429,47.5786123 54.5961411,47.406651 54.1617267,47.6248923 C36.6130325,56.4452908 37.3367513,56.0759593 37.2680873,56.1195168 C34.8611842,57.637678 31.7854936,57.6254275 29.39507,56.0986455 C28.0726008,55.253811 27.6597011,55.1712333 21.0780253,51.9452541 C17.3774919,50.1503211 14.6075851,50.1022264 12.2633953,49.6085745 L12.2633953,38.6815344 L25.1607882,38.6815344 C25.825456,38.6815344 26.4512142,38.9378886 26.9217917,39.4043171 L33.4000137,45.8263295 C34.6762491,47.0899514 33.8179488,49.2124732 32.0505367,49.2124732 C31.5236547,49.2124732 31.0274427,49.0082973 30.6534527,48.6389658 L24.8174682,42.8521673 C24.4727748,42.510513 23.9138495,42.510513 23.5691561,42.8521673 C23.2244627,43.1938216 23.2244627,43.747819 23.5691561,44.0890196 L29.4065139,49.875818 C31.5108375,51.9547824 35.132636,50.89579 35.6993432,47.9915014 L56.3296789,42.8444541 C57.3564349,42.734199 58.2353345,43.5359297 58.2353345,44.54229 C58.2353345,45.6489233 57.3211874,46.0309592 57.3092857,46.0427559 C56.8748713,46.2609973 56.7013802,46.7873173 56.9215628,47.2179017 C57.1417454,47.6489396 57.6727472,47.8209011 58.1076195,47.6026598 L58.3099494,47.5005718 C59.1929689,47.0590982 60,45.866711 60,44.54229 C59.9995423,42.6361946 58.4372068,41.0853652 56.5173606,41.0853652 Z M10.4987297,52.9311969 C10.4987297,54.4026244 9.29070061,55.6000026 7.80755762,55.6000026 L4.45583765,55.6000026 C2.97269467,55.6000026 1.76466552,54.4026244 1.76466552,52.9311969 L1.76466552,37.4165514 C1.76466552,35.9464849 2.97269467,34.748653 4.45583765,34.748653 L7.80755762,34.748653 C9.12361817,34.748653 10.2236159,35.6919457 10.454327,36.9328813 C10.52116,37.2908698 10.4987297,52.9184925 10.4987297,52.9311969 Z" id="Shape" fill="#08415C" fill-rule="nonzero"></path>
                                <path d="M7.1850411,48.0740579 C6.73737253,47.8758816 6.21776556,48.089157 6.02486034,48.5501527 C5.83195499,49.0116204 6.03906479,49.5466962 6.48719142,49.7448725 C7.71793616,50.2898572 7.32891812,52.181025 6.00103356,52.181025 C5.16572171,52.181025 4.57463429,51.3416069 4.82573198,50.5276688 C4.97327466,50.0487428 4.71622042,49.5372593 4.25159821,49.3853242 C3.78605964,49.233389 3.29027945,49.4985678 3.14227848,49.9770218 C2.52782258,51.9701088 3.98171417,54 6.00103356,54 C7.65470351,54 9,52.6146536 9,50.9117532 C9,49.6764545 8.28748769,48.5624209 7.1850411,48.0740579 Z" id="Path" fill="#CE2128"></path>
                                <path d="M10.1455181,22.8340686 C10.6243677,22.7373517 10.9335099,22.2707271 10.8362723,21.7926431 C10.4110869,19.6969575 12.0223879,17.755744 14.1359304,17.7552856 C14.6244119,17.7552856 15.0197837,17.3597089 15.0197837,16.871999 L15.0197837,14.64201 C15.0197837,13.7481808 15.7476899,13.0211998 16.6416339,13.0211998 L18.8794755,13.0211998 C19.3679569,13.0211998 19.7633289,12.6256231 19.7633289,12.1379132 C19.7633289,12.1319544 19.7633289,12.1259956 19.7633289,12.1195783 C19.7702088,10.2695811 21.2783094,8.76703148 23.1308697,8.76703148 C24.9848061,8.76703148 26.493824,10.2723314 26.4979521,12.1246204 L26.4979521,12.1379132 C26.4979521,12.6256231 26.8937825,13.0211998 27.3818054,13.0211998 L29.6191882,13.0211998 C30.5140495,13.0211998 31.2419558,13.7481808 31.2419558,14.64201 L31.2419558,16.0638859 C29.7366073,16.3242423 28.355099,17.2671174 27.5849953,18.7201627 C27.5694007,18.7494986 27.5560992,18.7792929 27.5441739,18.8090873 C27.1919168,19.5044405 26.9919376,20.289635 26.9919376,21.1202085 C26.9919376,21.6963846 27.0882578,22.2501003 27.2643863,22.7676044 C27.271725,22.7973987 27.2804397,22.8267346 27.2909891,22.8560706 C27.9216578,24.6107259 29.4696624,25.8671288 31.2419558,26.1760729 L31.2419558,27.6112417 C31.2419558,28.5055291 30.5140495,29.2329685 29.6191882,29.2329685 L28.1908958,29.2329685 C27.7739666,26.8187131 25.6636348,24.9765083 23.1308697,24.9765083 C20.5999394,24.9765083 18.4905249,26.8159629 18.0713023,29.2329685 L16.6416339,29.2329685 C15.7472313,29.2329685 15.0197837,28.5055291 15.0197837,27.6112417 L15.0197837,25.3688763 C15.0197837,24.8811665 14.6239532,24.4855899 14.1359304,24.4855899 C13.5263604,24.4855899 12.9296333,24.3210336 12.4099624,24.0102562 C11.9907398,23.7599839 11.4481354,23.8956626 11.1972441,24.3146164 C10.9463526,24.7331118 11.082577,25.2758265 11.5017997,25.526557 C12.0411933,25.8492522 12.6347097,26.0688133 13.2516184,26.1760729 L13.2516184,27.6117 C13.2516184,29.4800321 14.7725616,31 16.6416339,31 L18.8794755,31 C19.3674983,31 19.7633289,30.596631 19.7633289,30.1089211 C19.7633289,28.2534235 21.2737228,26.7435397 23.1308697,26.7435397 C24.9870994,26.7435397 26.4974933,28.2534235 26.4974933,30.1167134 C26.4974933,30.6044233 26.8933239,31 27.3813467,31 L29.6191882,31 C30.6112873,31 31.5052313,30.5718787 32.1258092,29.8911935 C32.746387,30.5718787 33.6398724,31 34.6315129,31 L36.8693543,31 C37.3578358,31 37.7536663,30.596631 37.7536663,30.1089211 C37.7536663,28.2534235 39.2640603,26.7435397 41.1212073,26.7435397 C42.9778956,26.7435397 44.4887483,28.2534235 44.4887483,30.1167134 C44.4887483,30.6044233 44.8841201,31 45.3726015,31 L47.6104431,31 C49.4795155,31 51,29.4800321 51,27.6117 L51,25.3693348 C51,24.8816249 50.6032522,24.4860482 50.1152293,24.4860482 C48.2580824,24.4860482 46.7476885,22.9761646 46.7476885,21.1202085 C46.7476885,19.2647109 48.2580824,17.7548273 50.1152293,17.7548273 L50.1161467,17.7548273 C50.6046282,17.7548273 51,17.3592505 51,16.8715407 L51,14.64201 C51,12.7741362 49.4795155,11.2546266 47.6104431,11.2546266 L45.3726015,11.2546266 C44.8845787,11.2546266 44.4892069,11.6492867 44.4887483,12.1369965 C44.4864548,13.9897438 42.9756023,15.4973356 41.1212073,15.4973356 C39.2668123,15.4973356 37.7559597,13.9897438 37.7536663,12.1365382 C37.752749,11.6492867 37.3573771,11.2546266 36.8693543,11.2546266 L34.6319715,11.2546266 C33.6403311,11.2546266 32.746387,11.6822896 32.1262678,12.3629748 C31.50569,11.6822896 30.6117459,11.2546266 29.6196469,11.2546266 L28.1908958,11.2546266 C27.7730492,8.841288 25.6631761,7 23.1308697,7 C20.5981047,7 18.4882316,8.841288 18.070385,11.2546266 L16.6416339,11.2546266 C14.7725616,11.2546266 13.252077,12.7741362 13.252077,14.64201 L13.252077,16.0643443 C10.4225537,16.5575546 8.52687854,19.302756 9.10342427,22.1437576 C9.19974462,22.6172578 9.66162339,22.9317022 10.1455181,22.8340686 Z M32.1262678,17.7552856 C32.6147494,17.7552856 33.0101212,17.3597089 33.0101212,16.871999 L33.0101212,14.64201 C33.0101212,13.7481808 33.7375688,13.0211998 34.6319715,13.0211998 L36.0630159,13.0211998 C36.4859079,15.4285796 38.5944049,17.2643671 41.1216659,17.2643671 C43.648927,17.2643671 45.7569654,15.4285796 46.1798573,13.0211998 L47.6109017,13.0211998 C48.5053045,13.0211998 49.232752,13.7481808 49.232752,14.64201 L49.232752,16.0638859 C46.820158,16.4837563 44.9799817,18.5913596 44.9799817,21.1202085 C44.9799817,23.6490574 46.8196993,25.7566607 49.232752,26.1765312 L49.232752,27.6112417 C49.232752,28.5055291 48.5053045,29.2329685 47.6109017,29.2329685 L46.1821506,29.2329685 C45.7652214,26.8187131 43.6548897,24.9765083 41.1216659,24.9765083 C38.5902768,24.9765083 36.4808625,26.8159629 36.0616398,29.2329685 L34.6319715,29.2329685 C33.7375688,29.2329685 33.0101212,28.5055291 33.0101212,27.6112417 C33.0101212,26.2507879 33.0101212,26.7967111 33.0101212,25.3688763 C33.0101212,24.9040852 32.6450214,24.4874234 32.1120492,24.4851314 C31.4121217,24.4823812 30.6984342,24.2591531 30.0884056,23.795737 C27.5359178,21.8490231 28.9100873,17.7552856 32.1262678,17.7552856 Z" id="Shape" fill="#08415C" fill-rule="nonzero"></path>
                                <path d="M29,34.8782599 L29,37.1221956 C29,37.6068785 29.4477302,38 29.9997406,38 C30.5522698,38 31,37.6068785 31,37.1221956 L31,34.8782599 C31,34.3931215 30.5522698,34 29.9997406,34 C29.4477302,34 29,34.3931215 29,34.8782599 Z" id="Path" fill="#CE2128"></path>
                                <path d="M29.9997406,4 C30.5522698,4 31,3.60733407 31,3.12219573 L31,0.878259886 C31,0.393121544 30.5522698,0 29.9997406,0 C29.4477302,0 29,0.393121544 29,0.878259886 L29,3.12219573 C29,3.60733407 29.4477302,4 29.9997406,4 Z" id="Path" fill="#CE2128"></path>
                                <path d="M3.87815986,17 L6.12184014,17 C6.60692323,17 7,16.5522699 7,15.9997405 C7,15.4477301 6.60692323,15 6.12184014,15 L3.87815986,15 C3.39307677,15 3,15.4477301 3,15.9997405 C3,16.5522699 3.39307677,17 3.87815986,17 Z" id="Path" fill="#CE2128"></path>
                                <path d="M11.2707451,4.45415005 C12.6835434,5.66844126 12.7731949,6 13.2415063,6 C13.9465292,6 14.2697467,5.03865051 13.7290849,4.54558512 L12.2451158,3.19285958 C11.9242576,2.90018212 11.4465092,2.94589965 11.1771614,3.29412181 C10.9082067,3.64234396 10.9502801,4.16189993 11.2707451,4.45415005 Z" id="Path" fill="#CE2128"></path>
                                <path d="M5.91246011,30 C6.21811517,30 6.21052126,29.9201885 8.42319808,28.9656229 C8.89259702,28.7573731 9.12183823,28.1648659 8.93483814,27.6421275 C8.74831264,27.119389 8.21626391,26.8646268 7.74733968,27.0723479 L5.57453091,28.0343134 C4.64332706,28.4465843 4.90721559,30 5.91246011,30 Z" id="Path" fill="#CE2128"></path>
                                <path d="M54.8778043,18 L57.1217401,18 C57.6068785,18 58,17.5522699 58,17.0002595 C58,16.4477301 57.6068785,16 57.1217401,16 L54.8778043,16 C54.3926659,16 54,16.4477301 54,17.0002595 C54,17.5522699 54.3926659,18 54.8778043,18 Z" id="Path" fill="#CE2128"></path>
                                <path d="M51.2708984,33.4542997 L52.7550017,34.8073926 C53.0770687,35.1009115 53.5548603,35.0526326 53.8226595,34.7057076 C54.0916385,34.357501 54.0499547,33.837968 53.7294607,33.5457306 L52.2449641,32.1926378 C51.9244701,31.9004005 51.4462852,31.9456887 51.1773064,32.2943227 C50.9083273,32.6425294 50.9500112,33.1620624 51.2708984,33.4542997 Z" id="Path" fill="#CE2128"></path>
                                <path d="M45.6101649,4.82194599 L47.6168289,3.50061167 C48.0506324,3.21491777 48.1276726,2.68751636 47.7884889,2.32255989 C47.4493053,1.95716782 46.823677,1.89271249 46.3898736,2.1779709 L44.3826923,3.49930511 C43.949406,3.78456353 43.8723657,4.31196494 44.2115494,4.6773569 C44.5512501,5.04362004 45.1773955,5.10676881 45.6101649,4.82194599 Z" id="Path" fill="#CE2128"></path>
                            </g>
                        </g>
                    </g>
                </g>
            </g>
        </g>
    </g>
</svg>