<?xml version="1.0" encoding="UTF-8"?>
<svg width="50px" height="56px" viewBox="0 0 50 56" version="1.1" xmlns="http://www.w3.org/2000/svg" xmlns:xlink="http://www.w3.org/1999/xlink">
    <!-- Generator: Sketch 52.5 (67469) - http://www.bohemiancoding.com/sketch -->
    <title>document</title>
    <desc>Created with Sketch.</desc>
    <g id="Page-1" stroke="none" stroke-width="1" fill="none" fill-rule="evenodd">
        <g id="Job-Page-(inner)-002" transform="translate(-802.000000, -1059.000000)">
            <g id="CAREERS-MIDMAIN" transform="translate(0.000000, 399.000000)">
                <g id="Compensation" transform="translate(739.000000, 454.000000)">
                    <g id="row2" transform="translate(13.000000, 205.000000)">
                        <g id="sss-4" transform="translate(0.000000, 1.000000)">
                            <g id="document" transform="translate(50.000000, 0.000000)">
                                <path d="M1.82608696,5.82258065 L29.2173913,5.82258065 L29.2173913,12.0322581 C29.2173913,12.5230201 29.6253185,12.9193548 30.1304348,12.9193548 L36.5217391,12.9193548 L36.5217391,20.016129 L38.3478261,20.016129 L38.3478261,12.0322581 C38.3478261,11.7866604 38.2448412,11.5648863 38.0794413,11.4041867 L30.7777683,4.31001134 C30.6114768,4.1484454 30.3832159,4.0483871 30.1304348,4.0483871 L5.47826087,4.0483871 L5.47826087,2.27419355 L40.173913,2.27419355 L40.173913,21.7903226 L42,21.7903226 L42,1.38709677 C42,0.896334768 41.5920728,0.5 41.0869565,0.5 L4.56521739,0.5 C4.06010108,0.5 3.65217391,0.896334768 3.65217391,1.38709677 L3.65217391,4.0483871 L0.913043478,4.0483871 C0.407927168,4.0483871 0,4.44472186 0,4.93548387 L0,54.6129032 C0,55.1036652 0.407927168,55.5 0.913043478,55.5 L31.9565217,55.5 L31.9565217,53.7258065 L1.82608696,53.7258065 L1.82608696,5.82258065 Z M31.0434783,7.07699093 L35.2306386,11.1451613 L31.0434783,11.1451613 L31.0434783,7.07699093 Z" id="Shape" fill="#08415C" fill-rule="nonzero"></path>
                                <path d="M49.1666667,24.697308 L47.9117839,24.697308 C44.1906739,24.697308 40.6909179,22.9884878 38.3093261,20.0090824 L38.1408692,19.7978133 C37.825114,19.4007289 37.1756999,19.4007289 36.8599447,19.7978133 L36.6914876,20.008234 C34.3090821,22.9884878 30.8093261,24.697308 27.0882161,24.697308 L25.8333333,24.697308 C25.3723145,24.697308 25,25.0854834 25,25.5661421 L25,39.6376065 C25,43.0590651 26.7700196,46.2391337 29.6191406,47.9360754 L37.0865885,52.3854564 C37.2143554,52.4618189 37.3575846,52.5 37.5,52.5 C37.6424154,52.5 37.7856446,52.4618189 37.9134115,52.3854564 L45.3808594,47.9360754 C48.2299804,46.2391337 50,43.0590651 50,39.6376065 L50,25.5661421 C50,25.0854834 49.6276855,24.697308 49.1666667,24.697308 Z M48.3333333,39.6376065 C48.3333333,42.437136 46.8859864,45.0385476 44.5540365,46.4266458 L37.5,50.631243 L30.4459635,46.4279186 C28.1140136,45.0385476 26.6666667,42.437136 26.6666667,39.6376065 L26.6666667,26.4349763 L27.0882161,26.4349763 C31.06486,26.4349763 34.8201498,24.7121563 37.5,21.6814185 C40.1790365,24.7121563 43.93514,26.4349763 47.9117839,26.4349763 L48.3333333,26.4349763 L48.3333333,39.6376065 Z" id="Shape" fill="#08415C" fill-rule="nonzero"></path>
                                <path d="M36,28.5 C29.9350586,28.5 25,32.7620961 25,38 C25,43.2379039 29.9350586,47.5 36,47.5 C42.0649414,47.5 47,43.2379039 47,38 C47,32.7620961 42.0649414,28.5 36,28.5 Z M36,45.7727273 C31.0371094,45.7727273 27,42.2861328 27,38 C27,33.7138672 31.0371094,30.2272727 36,30.2272727 C40.9628906,30.2272727 45,33.7138672 45,38 C45,42.2861328 40.9628906,45.7727273 36,45.7727273 Z" id="Shape" fill="#CE2128" fill-rule="nonzero"></path>
                                <path d="M35.3711301,39.6824278 L33.4758568,37.9127012 L32,39.2907943 L35.1310995,42.2144835 C35.3283221,42.3995933 35.5953625,42.5 35.8690279,42.5 C35.9536248,42.5 36.0392408,42.4904828 36.1238375,42.4709725 C36.4805708,42.3867451 36.7623901,42.1335872 36.8689005,41.8052431 L40,32.0596124 L38.0002549,31.5 L35.3711301,39.6824278 Z" id="Path" fill="#CE2128" transform="translate(36.000000, 37.000000) rotate(13.000000) translate(-36.000000, -37.000000) "></path>
                                <polygon id="Path" fill="#08415C" points="3 13.5 28 13.5 28 14.5 3 14.5"></polygon>
                                <polygon id="Path" fill="#08415C" points="3 16.5 28 16.5 28 17.5 3 17.5"></polygon>
                                <polygon id="Path" fill="#08415C" points="3 21.5 28 21.5 28 22.5 3 22.5"></polygon>
                                <polygon id="Path" fill="#08415C" points="6 24.5 25 24.5 25 25.5 6 25.5"></polygon>
                                <polygon id="Path" fill="#08415C" points="6 27.5 25 27.5 25 28.5 6 28.5"></polygon>
                                <polygon id="Path" fill="#08415C" points="6 30.5 25 30.5 25 31.5 6 31.5"></polygon>
                                <polygon id="Path" fill="#08415C" points="6 44.5 25 44.5 25 45.5 6 45.5"></polygon>
                                <polygon id="Path" fill="#08415C" points="6 44.5 25 44.5 25 45.5 6 45.5"></polygon>
                                <polygon id="Path" fill="#08415C" points="6 49.5 25 49.5 25 50.5 6 50.5"></polygon>
                                <polygon id="Path" fill="#08415C" points="5 8.5 6 8.5 6 9.5 5 9.5"></polygon>
                                <polygon id="Path" fill="#08415C" points="8 8.5 9 8.5 9 9.5 8 9.5"></polygon>
                                <polygon id="Path" fill="#08415C" points="13 8.5 14 8.5 14 9.5 13 9.5"></polygon>
                                <polygon id="Path" fill="#08415C" points="14 8.5 25 8.5 25 9.5 14 9.5"></polygon>
                            </g>
                        </g>
                    </g>
                </g>
            </g>
        </g>
    </g>
</svg>