<?xml version="1.0" encoding="UTF-8"?>
<svg width="50px" height="46px" viewBox="0 0 50 46" version="1.1" xmlns="http://www.w3.org/2000/svg" xmlns:xlink="http://www.w3.org/1999/xlink">
    <!-- Generator: Sketch 52.5 (67469) - http://www.bohemiancoding.com/sketch -->
    <title>wallet</title>
    <desc>Created with Sketch.</desc>
    <g id="Page-1" stroke="none" stroke-width="1" fill="none" fill-rule="evenodd">
        <g id="Job-Page-(inner)-002" transform="translate(-802.000000, -909.000000)">
            <g id="CAREERS-MIDMAIN" transform="translate(0.000000, 399.000000)">
                <g id="Compensation" transform="translate(739.000000, 454.000000)">
                    <g id="row1" transform="translate(1.000000, 56.000000)">
                        <g id="sss-1">
                            <g id="wallet" transform="translate(62.000000, 0.000000)">
                                <path d="M4.20560138,10.2406322 C4.88844037,10.0918767 5.18905275,9.70667134 4.87619824,9.37992884 C4.56334372,9.05383593 3.7580834,8.90897792 3.07388418,9.05968221 C2.13123992,9.26495186 1.25388704,9.53453066 0.469030273,9.85932439 C-0.0981885666,10.0944751 -0.159399233,10.5050143 0.331646334,10.7758923 C0.600973265,10.9239983 0.980479395,11 1.35998553,11 C1.67556052,11 1.99385598,10.948033 2.25094078,10.8415007 C2.83992341,10.5972558 3.49691789,10.3952341 4.20560138,10.2406322 Z" id="Path" fill="#CE2128"></path>
                                <path d="M5.25,9 L7.75,9 C8.44125,9 9,8.553 9,8 C9,7.447 8.44125,7 7.75,7 L5.25,7 C4.55875,7 4,7.447 4,8 C4,8.553 4.55875,9 5.25,9 Z" id="Path" fill="#CE2128"></path>
                                <path d="M12.25,9 L14.75,9 C15.44125,9 16,8.553 16,8 C16,7.447 15.44125,7 14.75,7 L12.25,7 C11.55875,7 11,7.447 11,8 C11,8.553 11.55875,9 12.25,9 Z" id="Path" fill="#CE2128"></path>
                                <path d="M7.75,19 L5.25,19 C4.55875,19 4,19.447 4,20 C4,20.553 4.55875,21 5.25,21 L7.75,21 C8.44125,21 9,20.553 9,20 C9,19.447 8.44125,19 7.75,19 Z" id="Path" fill="#CE2128"></path>
                                <path d="M19.75,19 L17.25,19 C16.55875,19 16,19.447 16,20 C16,20.553 16.55875,21 17.25,21 L19.75,21 C20.44125,21 21,20.553 21,20 C21,19.447 20.44125,19 19.75,19 Z" id="Path" fill="#CE2128"></path>
                                <path d="M14.75,19 L12.25,19 C11.55875,19 11,19.447 11,20 C11,20.553 11.55875,21 12.25,21 L14.75,21 C15.44125,21 16,20.553 16,20 C16,19.447 15.44125,19 14.75,19 Z" id="Path" fill="#CE2128"></path>
                                <path d="M4.20587851,16.7595096 C3.49827979,16.6048545 2.84102943,16.4027631 2.25181742,16.1584339 C1.68437767,15.9238519 0.825733836,15.9530934 0.331775495,16.2240649 C-0.159461312,16.4950363 -0.0982268067,16.9057172 0.46921294,17.140949 C1.25437537,17.4658549 2.13070918,17.7348769 3.07372055,17.9408671 C3.25742407,17.9811555 3.44929218,18 3.63843877,18 C4.15553014,18 4.64812772,17.8589909 4.87673653,17.62051 C5.18835213,17.2943046 4.88898343,16.9083165 4.20587851,16.7595096 Z" id="Path" fill="#CE2128"></path>
                                <path d="M23.75,19 L21.25,19 C20.55875,19 20,19.447 20,20 C20,20.553 20.55875,21 21.25,21 L23.75,21 C24.44125,21 25,20.553 25,20 C25,19.447 24.44125,19 23.75,19 Z" id="Path" fill="#CE2128"></path>
                                <path d="M39.75,19 L37.25,19 C36.55875,19 36,19.447 36,20 C36,20.553 36.55875,21 37.25,21 L39.75,21 C40.44125,21 41,20.553 41,20 C41,19.447 40.44125,19 39.75,19 Z" id="Path" fill="#CE2128"></path>
                                <path d="M44.75,19 L42.25,19 C41.55875,19 41,19.447 41,20 C41,20.553 41.55875,21 42.25,21 L44.75,21 C45.44125,21 46,20.553 46,20 C46,19.447 45.44125,19 44.75,19 Z" id="Path" fill="#CE2128"></path>
                                <path d="M30.75,19 L28.25,19 C27.55875,19 27,19.447 27,20 C27,20.553 27.55875,21 28.25,21 L30.75,21 C31.44125,21 32,20.553 32,20 C32,19.447 31.44125,19 30.75,19 Z" id="Path" fill="#CE2128"></path>
                                <path d="M35.75,19 L33.25,19 C32.55875,19 32,19.447 32,20 C32,20.553 32.55875,21 33.25,21 L35.75,21 C36.44125,21 37,20.553 37,20 C37,19.447 36.44125,19 35.75,19 Z" id="Path" fill="#CE2128"></path>
                                <path d="M4.20587851,39.7595096 C3.49827979,39.6048545 2.84102943,39.4027631 2.25181742,39.1584339 C1.68437767,38.9238519 0.825733836,38.9530934 0.331775495,39.2240649 C-0.159461312,39.4950363 -0.0982268067,39.9057172 0.46921294,40.140949 C1.25437537,40.4658549 2.13070918,40.7348769 3.07372055,40.9408671 C3.25742407,40.9811555 3.44929218,41 3.63843877,41 C4.15553014,41 4.64812772,40.8589909 4.87673653,40.62051 C5.18835213,40.2943046 4.88898343,39.9083165 4.20587851,39.7595096 Z" id="Path" fill="#CE2128"></path>
                                <path d="M14.75,42 L12.25,42 C11.55875,42 11,42.447 11,43 C11,43.553 11.55875,44 12.25,44 L14.75,44 C15.44125,44 16,43.553 16,43 C16,42.447 15.44125,42 14.75,42 Z" id="Path" fill="#CE2128"></path>
                                <path d="M7.75,42 L5.25,42 C4.55875,42 4,42.447 4,43 C4,43.553 4.55875,44 5.25,44 L7.75,44 C8.44125,44 9,43.553 9,43 C9,42.447 8.44125,42 7.75,42 Z" id="Path" fill="#CE2128"></path>
                                <path d="M30.75,42 L28.25,42 C27.55875,42 27,42.447 27,43 C27,43.553 27.55875,44 28.25,44 L30.75,44 C31.44125,44 32,43.553 32,43 C32,42.447 31.44125,42 30.75,42 Z" id="Path" fill="#CE2128"></path>
                                <path d="M32,43 C32,43.553 32.55875,44 33.25,44 L35.75,44 C36.44125,44 37,43.553 37,43 C37,42.447 36.44125,42 35.75,42 L33.25,42 C32.55875,42 32,42.447 32,43 Z" id="Path" fill="#CE2128"></path>
                                <path d="M37.25,44 L39.75,44 C40.44125,44 41,43.553 41,43 C41,42.447 40.44125,42 39.75,42 L37.25,42 C36.55875,42 36,42.447 36,43 C36,43.553 36.55875,44 37.25,44 Z" id="Path" fill="#CE2128"></path>
                                <path d="M23.75,42 L21.25,42 C20.55875,42 20,42.447 20,43 C20,43.553 20.55875,44 21.25,44 L23.75,44 C24.44125,44 25,43.553 25,43 C25,42.447 24.44125,42 23.75,42 Z" id="Path" fill="#CE2128"></path>
                                <path d="M42.25,44 L44.75,44 C45.44125,44 46,43.553 46,43 C46,42.447 45.44125,42 44.75,42 L42.25,42 C41.55875,42 41,42.447 41,43 C41,43.553 41.55875,44 42.25,44 Z" id="Path" fill="#CE2128"></path>
                                <path d="M19.75,42 L17.25,42 C16.55875,42 16,42.447 16,43 C16,43.553 16.55875,44 17.25,44 L19.75,44 C20.44125,44 21,43.553 21,43 C21,42.447 20.44125,42 19.75,42 Z" id="Path" fill="#CE2128"></path>
                                <path d="M36,28.5 C36,30.43025 37.56975,32 39.5,32 C41.43025,32 43,30.43025 43,28.5 C43,26.56975 41.43025,25 39.5,25 C37.56975,25 36,26.56975 36,28.5 Z M39.5,26.75 C40.465125,26.75 41.25,27.534875 41.25,28.5 C41.25,29.465125 40.465125,30.25 39.5,30.25 C38.534875,30.25 37.75,29.465125 37.75,28.5 C37.75,27.534875 38.534875,26.75 39.5,26.75 Z" id="Shape" fill="#CE2128" fill-rule="nonzero"></path>
                                <path d="M35.785,4.43947246 L31.255,0.25571269 C30.8858333,-0.0852375634 30.2833333,-0.0852375634 29.9141667,0.25571269 L28.2091667,1.8303949 L26.5041667,0.25571269 C26.135,-0.0852375634 25.5325,-0.0852375634 25.1633333,0.25571269 L20.6333333,4.43947246 L6.66666667,4.43947246 C2.99083333,4.43947246 0,7.20170826 0,10.5965877 L0,40.495539 C0,43.5302272 2.67416667,46 5.96,46 L50,46 L50,35.2250484 L50,24.4500968 L50,16.7537028 L50,15.214424 L50,4.43947246 L35.785,4.43947246 Z M30.585,1.81346283 L33.4283333,4.43947246 L45.095,15.214424 L40.6025,15.214424 L31.2133333,6.5421273 C30.8608333,6.22580551 30.3083333,6.22657515 29.9475,6.55059333 L20.5675,15.214424 L16.075,15.214424 L29.3883333,2.91943465 L30.585,1.81346283 Z M38.2466667,15.214424 L22.9241667,15.214424 L30.585,8.13912905 L38.2466667,15.214424 Z M25.8333333,1.81346283 L27.0308333,2.91943465 L13.7183333,15.214424 L11.3233333,15.214424 L22.99,4.43947246 L25.8333333,1.81346283 Z M6.66666667,5.97875126 L18.9666667,5.97875126 L17.2491667,7.56497806 C16.9966667,7.64040272 16.8033333,7.81818942 16.7216667,8.0521598 L8.96666667,15.214424 L6.66666667,15.214424 C3.90916667,15.214424 1.66666667,13.1433244 1.66666667,10.5965877 C1.66666667,8.04985088 3.90916667,5.97875126 6.66666667,5.97875126 Z M48.3333333,33.6857696 L39.1666667,33.6857696 C36.8691667,33.6857696 35,31.9594684 35,29.8375726 C35,27.7156768 36.8691667,25.9893756 39.1666667,25.9893756 L48.3333333,25.9893756 L48.3333333,33.6857696 Z M48.3333333,18.2929816 L47.5,18.2929816 C47.0391667,18.2929816 46.6666667,18.6370105 46.6666667,19.062621 C46.6666667,19.4882316 47.0391667,19.8322604 47.5,19.8322604 L48.3333333,19.8322604 L48.3333333,24.4500968 L39.1666667,24.4500968 C35.9508333,24.4500968 33.3333333,26.8675342 33.3333333,29.8375726 C33.3333333,32.8076111 35.9508333,35.2250484 39.1666667,35.2250484 L48.3333333,35.2250484 L48.3333333,41.3821636 L47.5,41.3821636 C47.0391667,41.3821636 46.6666667,41.7261924 46.6666667,42.151803 C46.6666667,42.5774136 47.0391667,42.9214424 47.5,42.9214424 L48.3333333,42.9214424 L48.3333333,44.4607212 L5.96,44.4607212 C3.59333333,44.4607212 1.66666667,42.6820846 1.66666667,40.495539 L1.66666667,38.7992538 C1.86083333,38.6068439 1.95416667,38.3351612 1.8675,38.0650178 C1.73416667,37.6447947 1.66666667,37.2068699 1.66666667,36.7643272 L1.66666667,15.7100718 C1.86083333,15.517662 1.95416667,15.2459793 1.8675,14.9758358 C1.85166667,14.9258093 1.84583333,14.8742434 1.83166667,14.8242169 C1.90666667,14.8973326 1.9825,14.9689091 2.06083333,15.0381766 C2.1325,15.1020567 2.20666667,15.1628582 2.28166667,15.2236597 C2.375,15.2990844 2.47,15.3722001 2.5675,15.4430069 C2.64583333,15.4999603 2.72583333,15.5546047 2.80666667,15.6084794 C2.9075,15.675438 3.01166667,15.7385485 3.11666667,15.8001196 C3.20083333,15.8493766 3.285,15.8970942 3.37166667,15.9432726 C3.48166667,16.0009955 3.59416667,16.0548703 3.7075,16.1072057 C3.795,16.1479966 3.8825,16.1887875 3.9725,16.2257302 C4.09166667,16.2742175 4.21333333,16.3173173 4.335,16.3596475 C4.425,16.3912027 4.51416667,16.4235275 4.60583333,16.4512346 C4.73666667,16.4904862 4.87,16.5220414 5.00333333,16.5543662 C5.09166667,16.5751465 5.17833333,16.599775 5.26833333,16.6174767 C5.41916667,16.6474926 5.5725,16.6675032 5.72666667,16.6875139 C5.80333333,16.6975192 5.87833333,16.7121423 5.95583333,16.7198387 C6.18916667,16.7429279 6.42583333,16.7560118 6.665,16.7560118 L9.845,16.7560118 L12.2016667,16.7560118 L14.5966667,16.7560118 L16.9533333,16.7560118 L21.0833333,16.7560118 L40.0875,16.7560118 L44.215,16.7560118 L46.5716667,16.7560118 L48.3333333,16.7560118 L48.3333333,18.2929816 Z M47.4516667,15.214424 L40.785,9.05730886 L40.8333333,9.05730886 C41.2941667,9.05730886 41.6666667,8.71328004 41.6666667,8.28766946 C41.6666667,7.86205887 41.2941667,7.51803006 40.8333333,7.51803006 L39.1666667,7.51803006 C39.1525,7.51803006 39.1408333,7.52495681 39.1266667,7.52572645 L37.4516667,5.97875126 L48.3333333,5.97875126 L48.3333333,15.214424 L47.4516667,15.214424 Z" id="Shape" fill="#08415C" fill-rule="nonzero"></path>
                                <path d="M46.75,7 L44.25,7 C43.55875,7 43,7.447 43,8 C43,8.553 43.55875,9 44.25,9 L46.75,9 C47.44125,9 48,8.553 48,8 C48,7.447 47.44125,7 46.75,7 Z" id="Path" fill="#CE2128"></path>
                            </g>
                        </g>
                    </g>
                </g>
            </g>
        </g>
    </g>
</svg>