<?xml version="1.0" encoding="UTF-8"?>
<svg width="63px" height="54px" viewBox="0 0 63 54" version="1.1" xmlns="http://www.w3.org/2000/svg" xmlns:xlink="http://www.w3.org/1999/xlink">
    <!-- Generator: Sketch 52.5 (67469) - http://www.bohemiancoding.com/sketch -->
    <title>business-and-finance</title>
    <desc>Created with Sketch.</desc>
    <g id="Page-1" stroke="none" stroke-width="1" fill="none" fill-rule="evenodd">
        <g id="Location-(inner)-001" transform="translate(-544.000000, -864.000000)">
            <g id="CAREERS-MIDMAIN" transform="translate(-320.000000, 399.000000)">
                <g id="Options" transform="translate(370.000000, 410.000000)">
                    <g id="row-1" transform="translate(104.000000, 55.000000)">
                        <g id="sss-2" transform="translate(336.666667, 0.000000)">
                            <g id="business-and-finance" transform="translate(54.000000, 0.000000)">
                                <path d="M60,38.3225806 L60,19.4041236 L57,18.5331559 L57,6.09677419 L52,6.09677419 L52,3.48387097 L50,3.48387097 L50,6.09677419 L48,6.09677419 L48,1.74193548 L46,1.74193548 L46,6.09677419 L44,6.09677419 L44,0 L42,0 L42,6.09677419 L37,6.09677419 L37,12.7264207 L34,11.855453 L34,38.3225806 L32,38.3225806 L32,54 L62,54 L62,38.3225806 L60,38.3225806 Z M39,11.3225806 L50,11.3225806 L50,9.58064516 L39,9.58064516 L39,7.83870968 L55,7.83870968 L55,9.58064516 L52,9.58064516 L52,11.3225806 L55,11.3225806 L55,17.9530778 L39,13.3081999 L39,11.3225806 Z M36,14.2735793 L58,20.6603925 L58,38.3225806 L56,38.3225806 L56,27.8709677 L54,27.8709677 L54,38.3225806 L52,38.3225806 L52,25.2580645 L50,25.2580645 L50,38.3225806 L48,38.3225806 L48,22.6451613 L46,22.6451613 L46,38.3225806 L44,38.3225806 L44,20.0322581 L42,20.0322581 L42,38.3225806 L40,38.3225806 L40,17.4193548 L38,17.4193548 L38,38.3225806 L36,38.3225806 L36,14.2735793 Z M34,52.2580645 L34,50.516129 L55,50.516129 L55,48.7741935 L34,48.7741935 L34,40.0645161 L60,40.0645161 L60,48.7741935 L57,48.7741935 L57,50.516129 L60,50.516129 L60,52.2580645 L34,52.2580645 Z" id="Shape" fill="#08415C" fill-rule="nonzero"></path>
                                <path d="M35,47 L41,47 L41,42 L35,42 L35,47 Z M37,43.6666667 L39,43.6666667 L39,45.3333333 L37,45.3333333 L37,43.6666667 Z" id="Shape" fill="#08415C" fill-rule="nonzero"></path>
                                <path d="M44,47 L50,47 L50,42 L44,42 L44,47 Z M46,43.6666667 L48,43.6666667 L48,45.3333333 L46,45.3333333 L46,43.6666667 Z" id="Shape" fill="#CE2128" fill-rule="nonzero"></path>
                                <path d="M58,42 L52,42 L52,47 L58,47 L58,42 Z M56,45.3333333 L54,45.3333333 L54,43.6666667 L56,43.6666667 L56,45.3333333 Z" id="Shape" fill="#08415C" fill-rule="nonzero"></path>
                                <path d="M28,8.70967742 L26,8.70967742 L26,5.22580645 L24,5.22580645 L24,0 L6,0 L6,5.22580645 L4,5.22580645 L4,8.70967742 L2,8.70967742 L2,12.1935484 L0,12.1935484 L0,54 L30,54 L30,12.1935484 L28,12.1935484 L28,8.70967742 Z M8,1.74193548 L22,1.74193548 L22,5.22580645 L8,5.22580645 L8,1.74193548 Z M6,6.96774194 L24,6.96774194 L24,8.70967742 L6,8.70967742 L6,6.96774194 Z M4,10.4516129 L26,10.4516129 L26,12.1935484 L4,12.1935484 L4,10.4516129 Z M2,52.2580645 L2,17.4193548 L22,17.4193548 L22,15.6774194 L2,15.6774194 L2,13.9354839 L28,13.9354839 L28,15.6774194 L24,15.6774194 L24,17.4193548 L28,17.4193548 L28,52.2580645 L2,52.2580645 Z" id="Shape" fill="#08415C" fill-rule="nonzero"></path>
                                <polygon id="Path" fill="#CE2128" points="6 20 8 20 8 22 6 22"></polygon>
                                <polygon id="Path" fill="#CE2128" points="10 20 12 20 12 22 10 22"></polygon>
                                <polygon id="Path" fill="#CE2128" points="14 20 16 20 16 22 14 22"></polygon>
                                <polygon id="Path" fill="#CE2128" points="19 20 21 20 21 22 19 22"></polygon>
                                <polygon id="Path" fill="#CE2128" points="22 20 24 20 24 22 22 22"></polygon>
                                <polygon id="Path" fill="#CE2128" points="6 25 8 25 8 27 6 27"></polygon>
                                <polygon id="Path" fill="#CE2128" points="10 25 12 25 12 27 10 27"></polygon>
                                <polygon id="Path" fill="#CE2128" points="14 25 16 25 16 27 14 27"></polygon>
                                <polygon id="Path" fill="#CE2128" points="19 25 21 25 21 27 19 27"></polygon>
                                <polygon id="Path" fill="#CE2128" points="22 25 24 25 24 27 22 27"></polygon>
                                <polygon id="Path" fill="#CE2128" points="6 30 8 30 8 32 6 32"></polygon>
                                <polygon id="Path" fill="#CE2128" points="10 30 12 30 12 32 10 32"></polygon>
                                <polygon id="Path" fill="#CE2128" points="14 30 16 30 16 32 14 32"></polygon>
                                <polygon id="Path" fill="#CE2128" points="19 30 21 30 21 32 19 32"></polygon>
                                <polygon id="Path" fill="#CE2128" points="22 30 24 30 24 32 22 32"></polygon>
                                <polygon id="Path" fill="#CE2128" points="6 36 8 36 8 38 6 38"></polygon>
                                <polygon id="Path" fill="#CE2128" points="10 36 12 36 12 38 10 38"></polygon>
                                <polygon id="Path" fill="#CE2128" points="14 36 16 36 16 38 14 38"></polygon>
                                <polygon id="Path" fill="#CE2128" points="19 36 21 36 21 38 19 38"></polygon>
                                <polygon id="Path" fill="#CE2128" points="22 36 24 36 24 38 22 38"></polygon>
                                <polygon id="Path" fill="#CE2128" points="6 41 8 41 8 43 6 43"></polygon>
                                <polygon id="Path" fill="#CE2128" points="10 41 12 41 12 43 10 43"></polygon>
                                <polygon id="Path" fill="#CE2128" points="14 41 16 41 16 43 14 43"></polygon>
                                <polygon id="Path" fill="#CE2128" points="19 41 21 41 21 43 19 43"></polygon>
                                <polygon id="Path" fill="#CE2128" points="22 41 24 41 24 43 22 43"></polygon>
                                <polygon id="Path" fill="#CE2128" points="6 46 8 46 8 48 6 48"></polygon>
                                <polygon id="Path" fill="#CE2128" points="10 46 12 46 12 48 10 48"></polygon>
                                <polygon id="Path" fill="#CE2128" points="14 46 16 46 16 48 14 48"></polygon>
                                <polygon id="Path" fill="#CE2128" points="19 46 21 46 21 48 19 48"></polygon>
                                <polygon id="Path" fill="#CE2128" points="22 46 24 46 24 48 22 48"></polygon>
                            </g>
                        </g>
                    </g>
                </g>
            </g>
        </g>
    </g>
</svg>