<?xml version="1.0" encoding="UTF-8"?>
<svg width="2499px" height="1406px" viewBox="0 0 2499 1406" version="1.1" xmlns="http://www.w3.org/2000/svg" xmlns:xlink="http://www.w3.org/1999/xlink">
    <!-- Generator: Sketch 52.5 (67469) - http://www.bohemiancoding.com/sketch -->
    <title>trying_to_knockout</title>
    <desc>Created with Sketch.</desc>
    <g id="Page-1" stroke="none" stroke-width="1" fill="none" fill-rule="evenodd">
        <g id="trying_to_knockout" transform="translate(-1.000000, -1.000000)">
            <path d="M1.48104265,1406.25 L1.48104265,1.30208333 L790.184552,1.30208333 C768.064392,95.7194754 800.966827,192.644065 878.317937,260.735883 L1875.2357,1138.51493 C1936.40471,1192.37382 2017.71453,1222.03213 2104.21582,1222.03213 C2190.7171,1222.03213 2272.02692,1192.37382 2333.19594,1138.51493 L2500,991.645131 L2500,1406.25 L1.48104265,1406.25 Z" id="Path" fill="#F8F8F8"></path>
            <path d="M788.4375,1.52853261 C766.701389,95.9001359 799.722222,192.65625 877.013889,260.691236 L1873.83681,1138.3288 C1935.15625,1192.31658 2016.68403,1222.04654 2103.40278,1222.04654 C2190.12153,1222.04654 2271.64931,1192.31658 2332.96875,1138.3288 L2498.28125,992.781929 L2498.28125,1404.72147 L1.73611111,1404.72147 L1.73611111,1.52853261 L788.4375,1.52853261 Z M790.572917,0 L0,0 L0,1406.25 L2500,1406.25 L2500,989.098166 L2331.73611,1137.24355 C2268.68056,1192.75985 2186.04167,1220.518 2103.40278,1220.518 C2020.76389,1220.518 1938.125,1192.75985 1875.06944,1137.24355 L878.229167,259.621264 C798.159722,189.110054 768.958333,90.8101223 790.572917,0 Z" id="Shape" fill-rule="nonzero"></path>
        </g>
    </g>
</svg>