<?xml version="1.0" encoding="UTF-8"?>
<svg width="1919px" height="1079px" viewBox="0 0 1919 1079" version="1.1" xmlns="http://www.w3.org/2000/svg" xmlns:xlink="http://www.w3.org/1999/xlink">
    <!-- Generator: Sketch 52.5 (67469) - http://www.bohemiancoding.com/sketch -->
    <title>trying_to_knockout</title>
    <desc>Created with Sketch.</desc>
    <g id="Page-1" stroke="none" stroke-width="1" fill="none" fill-rule="evenodd">
        <g id="trying_to_knockout" transform="translate(-1.000000, -1.000000)">
            <path d="M1.13744076,1080 L1.13744076,1 L606.861736,1 C589.873453,73.5125571 615.142523,147.950642 674.548175,200.245158 L1440.18102,874.379467 C1487.15882,915.74309 1549.60476,938.520675 1616.03775,938.520675 C1682.47073,938.520675 1744.91668,915.74309 1791.89448,874.379467 L1920,761.58346 L1920,1080 L1.13744076,1080 Z" id="Path" fill="#F8F8F8"></path>
            <path d="M605.52,1.17391304 C588.826667,73.6513043 614.186667,147.96 673.546667,200.21087 L1439.10667,874.236522 C1486.2,915.69913 1548.81333,938.531739 1615.41333,938.531739 C1682.01333,938.531739 1744.62667,915.69913 1791.72,874.236522 L1918.68,762.456522 L1918.68,1078.82609 L1.33333333,1078.82609 L1.33333333,1.17391304 L605.52,1.17391304 Z M607.16,0 L0,0 L0,1080 L1920,1080 L1920,759.627391 L1790.77333,873.403043 C1742.34667,916.039565 1678.88,937.357826 1615.41333,937.357826 C1551.94667,937.357826 1488.48,916.039565 1440.05333,873.403043 L674.48,199.38913 C612.986667,145.236522 590.56,69.7421739 607.16,0 Z" id="Shape" fill-rule="nonzero"></path>
        </g>
    </g>
</svg>