<?xml version="1.0" encoding="UTF-8"?>
<svg width="1440px" height="920px" viewBox="0 0 1440 920" version="1.1" xmlns="http://www.w3.org/2000/svg" xmlns:xlink="http://www.w3.org/1999/xlink">
    <!-- Generator: Sketch 52.5 (67469) - http://www.bohemiancoding.com/sketch -->
    <title>trying_to_knockout</title>
    <desc>Created with Sketch.</desc>
    <g id="Page-1" stroke="none" stroke-width="1" fill="none" fill-rule="evenodd">
        <g id="trying_to_knockout">
            <path d="M0.5,919.5 L0.5,0.5 L454.75,0.5 C442.01,62.26 460.96,125.66 505.51,170.2 L1079.68,744.37 C1114.91,779.6 1161.74,799 1211.56,799 C1261.38,799 1308.21,779.6 1343.44,744.37 L1439.51,648.3 L1439.51,919.5 L0.5,919.5 Z" id="Path" fill="#F8F8F8"></path>
            <path d="M454.14,1 C441.62,62.74 460.64,126.04 505.16,170.55 L1079.33,744.72 C1114.65,780.04 1161.61,799.49 1211.56,799.49 C1261.51,799.49 1308.47,780.04 1343.79,744.72 L1439.01,649.5 L1439.01,919 L1,919 L1,1 L454.14,1 Z M455.37,0 L0,0 L0,920 L1440,920 L1440,647.09 L1343.08,744.01 C1306.76,780.33 1259.16,798.49 1211.56,798.49 C1163.96,798.49 1116.36,780.33 1080.04,744.01 L505.86,169.85 C459.74,123.72 442.92,59.41 455.37,0 Z" id="Shape" fill-rule="nonzero"></path>
        </g>
    </g>
</svg>