<?xml version="1.0" encoding="UTF-8"?>
<svg width="56px" height="62px" viewBox="0 0 56 62" version="1.1" xmlns="http://www.w3.org/2000/svg" xmlns:xlink="http://www.w3.org/1999/xlink">
    <!-- Generator: Sketch 52.5 (67469) - http://www.bohemiancoding.com/sketch -->
    <title>review</title>
    <desc>Created with Sketch.</desc>
    <g id="Page-1" stroke="none" stroke-width="1" fill="none" fill-rule="evenodd">
        <g id="Homepage-08" transform="translate(-1177.000000, -1754.000000)">
            <g id="THREE-BOXES" transform="translate(167.000000, 1060.000000)">
                <g id="UI/UX-text" transform="translate(0.000000, 364.000000)">
                    <g id="row-3" transform="translate(457.000000, 329.000000)">
                        <g id="sq-tab-4" transform="translate(513.000000, 1.000000)">
                            <g id="review" transform="translate(40.000000, 0.000000)">
                                <path d="M33.0664318,25 L21.9335682,25 C21.4179896,25 21,25.4178651 21,25.9335682 L21,37.0664318 C21,37.5821349 21.4179896,38 21.9335682,38 L33.0664318,38 C33.5820104,38 34,37.5821349 34,37.0664318 L34,25.9335682 C34,25.4179896 33.5820104,25 33.0664318,25 Z M32.1328635,36.1328635 L22.8671365,36.1328635 L22.8671365,26.8671365 L32.1328635,26.8671365 L32.1328635,36.1328635 Z" id="Shape" fill="#08415C" fill-rule="nonzero"></path>
                                <path d="M33.0664318,47 L21.9335682,47 C21.4179896,47 21,47.4178651 21,47.9335682 L21,52.1225512 C21,52.6382543 21.4179896,53.0561194 21.9335682,53.0561194 C22.4491469,53.0561194 22.8671365,52.6382543 22.8671365,52.1225512 L22.8671365,48.8671365 L32.1328635,48.8671365 L32.1328635,58.1328635 L22.8671365,58.1328635 L22.8671365,55.8981501 C22.8671365,55.382447 22.4491469,54.9645819 21.9335682,54.9645819 C21.4179896,54.9645819 21,55.382447 21,55.8981501 L21,59.0664318 C21,59.5821349 21.4179896,60 21.9335682,60 L33.0664318,60 C33.5820104,60 34,59.5821349 34,59.0664318 L34,47.9335682 C34,47.4178651 33.5820104,47 33.0664318,47 Z" id="Path" fill="#08415C"></path>
                                <path d="M34.7393924,3.29355216 C34.3920342,2.92908711 33.8286448,2.92908711 33.481168,3.29342768 L33.3898204,3.38927402 L33.3898204,2.93356824 C33.3898204,2.41786514 32.9914499,2 32.500071,2 L21.8897495,2 C21.3983705,2 21,2.41786514 21,2.93356824 L21,14.0664318 C21,14.5821349 21.3983705,15 21.8897495,15 L24.1280032,15 C24.6193821,15 25.0177526,14.5821349 25.0177526,14.0664318 C25.0177526,13.5507287 24.6193821,13.1328635 24.1280032,13.1328635 L22.7794989,13.1328635 L22.7794989,3.86726096 L31.6103215,3.86726096 L31.6103215,5.25653498 L28.1241645,8.91437982 L26.7057853,7.42614757 C26.3583085,7.06168253 25.7949191,7.06168253 25.4475609,7.42614757 C25.1000841,7.79086156 25.1000841,8.3818725 25.4475609,8.74646202 L27.4950524,10.8947893 C27.6687315,11.0770218 27.8965073,11.168138 28.1241645,11.168138 C28.3518218,11.168138 28.5795976,11.0770218 28.7532767,10.8947893 L31.6103215,7.89703939 L31.6103215,13.1328635 L27.7263872,13.1328635 C27.2350083,13.1328635 26.8366378,13.5507287 26.8366378,14.0664318 C26.8366378,14.5821349 27.2350083,15 27.7263872,15 L32.500071,15 C32.9914499,15 33.3898204,14.5821349 33.3898204,14.0664318 L33.3898204,6.02990291 L34.7393924,4.6138666 C35.0868692,4.24915261 35.0868692,3.65814167 34.7393924,3.29355216 Z" id="Path" fill="#D13238"></path>
                                <path d="M11.6221042,34.0197963 C10.0292669,32.6600679 7.97076369,32.6600679 6.37792639,34.0197963 C5.98371556,34.3563326 5.88142326,35.0302724 6.14940838,35.5253233 C6.31636691,35.833827 6.5876889,36 6.8638436,36 C7.0309172,36 7.19960169,35.9391662 7.34814991,35.8124413 C8.36693062,34.9424175 9.6328698,34.9424175 10.6517656,35.8124413 C11.0458613,36.1486887 11.582522,36.0202298 11.8506222,35.5253233 C12.1186073,35.0304169 12.0161999,34.3563326 11.6221042,34.0197963 Z" id="Path" fill="#08415C"></path>
                                <path d="M16.1112621,26.0036934 C14.9118869,24.5051018 13.2322677,23.4466699 11.3818208,23.0233721 C10.8823076,22.9089605 10.3867471,23.2257157 10.2738502,23.7304506 C10.1609533,24.2350605 10.4740754,24.7366728 10.9730945,24.8508345 C14.019705,25.5476709 16.1474533,28.2427128 16.1474533,31.4047687 C16.1474533,35.1111538 13.1655671,38.1264482 9.50024704,38.1264482 C5.83492698,38.1264482 2.85279372,35.1111538 2.85279372,31.4047687 C2.85279372,28.4135807 4.83923563,25.7548858 7.68339752,24.9392662 C8.17562305,24.7981253 8.46157088,24.2802756 8.32187023,23.7824104 C8.1822931,23.2845452 7.66981036,22.9957684 7.17795539,23.1366595 C3.54055075,24.1797283 1,27.5797253 1,31.4047687 C1,36.1442303 4.813173,40 9.5,40 C14.186827,40 18,36.1442303 18,31.4047687 C18,29.4436595 17.3291652,27.5253922 16.1112621,26.0036934 Z" id="Path" fill="#08415C"></path>
                                <path d="M7,29 C6.44773333,29 6,29.5964466 6,30.3325437 L6,30.6674563 C6,31.4033758 6.44773333,32 7,32 C7.55226667,32 8,31.4035534 8,30.6674563 L8,30.3325437 C8,29.5964466 7.55226667,29 7,29 Z" id="Path" fill="#08415C"></path>
                                <path d="M11,29 C10.4477333,29 10,29.5964466 10,30.3325437 L10,30.6674563 C10,31.4035534 10.4477333,32 11,32 C11.5522667,32 12,31.4033758 12,30.6674563 L12,30.3325437 C12,29.5964466 11.5522667,29 11,29 Z" id="Path" fill="#08415C"></path>
                                <path d="M10.850681,10.4746537 C10.5826997,9.97958415 10.0460468,9.85112038 9.65184163,10.1875249 C8.63296049,11.0574371 7.36715457,11.0572926 6.34815837,10.1875249 C5.9539532,9.85126489 5.41730028,9.97972866 5.14931901,10.4746537 C4.8814528,10.9697233 4.98374363,11.6436885 5.3779488,11.9802376 C6.17441354,12.6601274 7.08709171,13 8,13 C8.91267817,13 9.82570152,12.6598383 10.6220512,11.9802376 C11.0162564,11.643833 11.1185472,10.9697233 10.850681,10.4746537 Z" id="Path" fill="#08415C"></path>
                                <path d="M8.5,0 C3.813173,0 0,3.81302178 0,8.49993824 C0,13.1868547 3.81304948,17 8.5,17 C13.1869505,17 17,13.1869782 17,8.50006176 C17,3.81314529 13.186827,0 8.5,0 Z M8.5,15.1470962 C4.83480346,15.1470962 1.85279372,12.1652317 1.85279372,8.49993824 C1.85279372,4.83464481 4.83467994,1.85278026 8.5,1.85278026 C12.1653201,1.85278026 15.1472063,4.83476833 15.1472063,8.49993824 C15.1472063,12.1651082 12.1651965,15.1470962 8.5,15.1470962 Z" id="Shape" fill="#08415C" fill-rule="nonzero"></path>
                                <path d="M6,6 C5.44773333,6 5,6.59644655 5,7.33254368 L5,7.66745632 C5,8.40355345 5.44773333,9 6,9 C6.55226667,9 7,8.40355345 7,7.66745632 L7,7.33254368 C7,6.59644655 6.55226667,6 6,6 Z" id="Path" fill="#08415C"></path>
                                <path d="M10,6 C9.44773333,6 9,6.59644655 9,7.33254368 L9,7.66745632 C9,8.40355345 9.44773333,9 10,9 C10.5522667,9 11,8.40355345 11,7.66745632 L11,7.33254368 C11,6.59644655 10.5522667,6 10,6 Z" id="Path" fill="#08415C"></path>
                                <path d="M9.5,45 C4.81304948,45 1,48.8130218 1,53.4999382 C1,58.1868547 4.81304948,62 9.5,62 C14.1869505,62 18,58.1869782 18,53.5000618 C18,48.8131453 14.1869505,45 9.5,45 Z M9.5,60.1472197 C5.83467994,60.1472197 2.85279372,57.1652317 2.85279372,53.5000618 C2.85279372,49.8348918 5.83480346,46.8529038 9.5,46.8529038 C13.1651965,46.8529038 16.1472063,49.8348918 16.1472063,53.5000618 C16.1472063,57.1652317 13.1653201,60.1472197 9.5,60.1472197 Z" id="Shape" fill="#08415C" fill-rule="nonzero"></path>
                                <path d="M7,51 C6.44773333,51 6,51.5964466 6,52.3325437 L6,52.6674563 C6,53.4035534 6.44773333,54 7,54 C7.55226667,54 8,53.4035534 8,52.6674563 L8,52.3325437 C8,51.5964466 7.55226667,51 7,51 Z" id="Path" fill="#08415C"></path>
                                <path d="M11,51 C10.4477333,51 10,51.5964466 10,52.3325437 L10,52.6674563 C10,53.4035534 10.4477333,54 11,54 C11.5522667,54 12,53.4035534 12,52.6674563 L12,52.3325437 C12,51.5964466 11.5524,51 11,51 Z" id="Path" fill="#08415C"></path>
                                <path d="M11.1339504,56 L6.86593415,56 C6.38770758,56 6,56.4476 6,57 C6,57.5524 6.38770758,58 6.86593415,58 L11.1340658,58 C11.6122924,58 12,57.5524 12,57 C12,56.4476 11.6122924,56 11.1339504,56 Z" id="Path" fill="#08415C"></path>
                                <path d="M45.1112691,2 L41.8887309,2 C41.3979144,2 41,2.4476 41,3 C41,3.5524 41.3979144,4 41.8887309,4 L45.1112691,4 C45.6020856,4 46,3.5524 46,3 C46,2.4476 45.6020856,2 45.1112691,2 Z" id="Path" fill="#08415C"></path>
                                <path d="M55.0821496,7 L41.9178504,7 C41.4109522,7 41,7.4476 41,8 C41,8.5524 41.4109522,9 41.9178504,9 L55.0821496,9 C55.5890478,9 56,8.5524 56,8 C56,7.4476 55.5890478,7 55.0821496,7 Z" id="Path" fill="#08415C"></path>
                                <path d="M55.0821496,9 L41.9178504,9 C41.4109522,9 41,9.4476 41,10 C41,10.5524 41.4109522,11 41.9178504,11 L55.0821496,11 C55.5890478,11 56,10.5524 56,10 C56,9.4476 55.5890478,9 55.0821496,9 Z" id="Path" fill="#08415C"></path>
                                <path d="M55.0821496,12 L41.9178504,12 C41.4109522,12 41,12.4476 41,13 C41,13.5524 41.4109522,14 41.9178504,14 L55.0821496,14 C55.5890478,14 56,13.5524 56,13 C56,12.4476 55.5890478,12 55.0821496,12 Z" id="Path" fill="#08415C"></path>
                                <path d="M45.1112691,25 L41.8887309,25 C41.3979144,25 41,25.4476 41,26 C41,26.5524 41.3979144,27 41.8887309,27 L45.1112691,27 C45.6020856,27 46,26.5524 46,26 C46,25.4476 45.6020856,25 45.1112691,25 Z" id="Path" fill="#08415C"></path>
                                <path d="M55.0821496,30 L41.9178504,30 C41.4109522,30 41,30.4476 41,31 C41,31.5524 41.4109522,32 41.9178504,32 L55.0821496,32 C55.5890478,32 56,31.5524 56,31 C56,30.4476 55.5890478,30 55.0821496,30 Z" id="Path" fill="#08415C"></path>
                                <path d="M55.0821496,32 L41.9178504,32 C41.4109522,32 41,32.4476 41,33 C41,33.5524 41.4109522,34 41.9178504,34 L55.0821496,34 C55.5890478,34 56,33.5524 56,33 C56,32.4476 55.5890478,32 55.0821496,32 Z" id="Path" fill="#08415C"></path>
                                <path d="M55.0821496,35 L41.9178504,35 C41.4109522,35 41,35.4476 41,36 C41,36.5524 41.4109522,37 41.9178504,37 L55.0821496,37 C55.5890478,37 56,36.5524 56,36 C56,35.4476 55.5890478,35 55.0821496,35 Z" id="Path" fill="#08415C"></path>
                                <path d="M45.1112691,49 L41.8887309,49 C41.3979144,49 41,49.4476 41,50 C41,50.5524 41.3979144,51 41.8887309,51 L45.1112691,51 C45.6020856,51 46,50.5524 46,50 C46,49.4476 45.6020856,49 45.1112691,49 Z" id="Path" fill="#08415C"></path>
                                <path d="M55.0821496,53 L41.9178504,53 C41.4109522,53 41,53.4476 41,54 C41,54.5524 41.4109522,55 41.9178504,55 L55.0821496,55 C55.5890478,55 56,54.5524 56,54 C56,53.4476 55.5890478,53 55.0821496,53 Z" id="Path" fill="#08415C"></path>
                                <path d="M55.0821496,55 L41.9178504,55 C41.4109522,55 41,55.4476 41,56 C41,56.5524 41.4109522,57 41.9178504,57 L55.0821496,57 C55.5890478,57 56,56.5524 56,56 C56,55.4476 55.5890478,55 55.0821496,55 Z" id="Path" fill="#08415C"></path>
                                <path d="M55.0821496,58 L41.9178504,58 C41.4109522,58 41,58.4476 41,59 C41,59.5524 41.4109522,60 41.9178504,60 L55.0821496,60 C55.5890478,60 56,59.5524 56,59 C56,58.4476 55.5890478,58 55.0821496,58 Z" id="Path" fill="#08415C"></path>
                            </g>
                        </g>
                    </g>
                </g>
            </g>
        </g>
    </g>
</svg>