<?xml version="1.0" encoding="UTF-8"?>
<svg width="61px" height="70px" viewBox="0 0 61 70" version="1.1" xmlns="http://www.w3.org/2000/svg" xmlns:xlink="http://www.w3.org/1999/xlink">
    <!-- Generator: Sketch 52.5 (67469) - http://www.bohemiancoding.com/sketch -->
    <title>tablet-2</title>
    <desc>Created with Sketch.</desc>
    <g id="Page-1" stroke="none" stroke-width="1" fill="none" fill-rule="evenodd">
        <g id="Homepage-08" transform="translate(-976.000000, -1588.000000)">
            <g id="THREE-BOXES" transform="translate(167.000000, 1060.000000)">
                <g id="UI/UX-text" transform="translate(0.000000, 364.000000)">
                    <g id="row-2" transform="translate(455.000000, 147.500000)">
                        <g id="sq-tab-3" transform="translate(346.666667, 17.000000)">
                            <g id="tablet-2" transform="translate(7.333333, 0.000000)">
                                <path d="M56.7031549,27.8294093 L46.8065733,27.8294093 L46.8065733,7.10422551 C46.8065733,5.94389079 45.8586197,5 44.6932905,5 L42.5097283,5 C41.344399,5 40.3964454,5.94389079 40.3964454,7.10422551 L40.3964454,27.8295449 L38.0723246,27.8295449 L38.0723246,22.3239221 C38.0723246,21.1635874 37.1243709,20.2196966 35.9590417,20.2196966 L33.7754795,20.2196966 C32.6101503,20.2196966 31.6621966,21.1635874 31.6621966,22.3239221 L31.6621966,27.8295449 L4.29684507,27.8295449 C1.92750575,27.8295449 0,29.7487895 0,32.107974 L0,64.7215709 C0,67.0807554 1.92750575,69 4.29684507,69 L56.7031549,69 C59.0724943,69 61,67.0807554 61,64.7215709 L61,32.107974 C61.0001362,29.7487895 59.0724943,27.8294093 56.7031549,27.8294093 Z M42.4394489,7.10422551 C42.4394489,7.06557481 42.4709112,7.0342474 42.5097283,7.0342474 L44.6932905,7.0342474 C44.7321075,7.0342474 44.7635698,7.06557481 44.7635698,7.10422551 L44.7635698,27.8295449 L42.4394489,27.8295449 L42.4394489,7.10422551 Z M44.763706,29.8636567 L44.763706,58.2688025 L42.4395851,58.2688025 L42.4395851,33.1956183 C42.4395851,32.6338948 41.9822248,32.1784946 41.4180834,32.1784946 C40.853942,32.1784946 40.3965816,32.6338948 40.3965816,33.1956183 L40.3965816,58.2688025 L38.0724608,58.2688025 L38.0724608,29.8636567 L44.763706,29.8636567 Z M33.705064,22.3239221 C33.705064,22.2852714 33.7365262,22.253944 33.7753433,22.253944 L35.9589055,22.253944 C35.9977226,22.253944 36.0291848,22.2852714 36.0291848,22.3239221 L36.0291848,27.8295449 L33.705064,27.8295449 L33.705064,22.3239221 Z M2.04286735,64.7215709 L2.04286735,32.107974 C2.04286735,30.8704735 3.05388171,29.8637923 4.29670887,29.8637923 L8.73424878,29.8637923 L8.73424878,61.4602654 C8.73424878,62.0219889 9.19160917,62.4773891 9.75575055,62.4773891 C10.3198919,62.4773891 10.7772523,62.0219889 10.7772523,61.4602654 L10.7772523,29.8636567 L36.0291848,29.8636567 L36.0291848,58.2688025 L33.705064,58.2688025 L33.705064,33.1949402 C33.705064,32.6332167 33.2477036,32.1778165 32.6835622,32.1778165 C32.1194208,32.1778165 31.6620604,32.6332167 31.6620604,33.1949402 L31.6620604,58.2688025 L29.3379396,58.2688025 L29.3379396,39.7178223 C29.3379396,38.5574876 28.3899859,37.6135968 27.2246567,37.6135968 L25.0410945,37.6135968 C23.8757653,37.6135968 22.9278116,38.5574876 22.9278116,39.7178223 L22.9278116,58.2689381 L20.6036908,58.2689381 L20.6036908,47.3276706 C20.6036908,46.1673359 19.6557372,45.2234451 18.4904079,45.2234451 L16.3068457,45.2234451 C15.1415165,45.2234451 14.1935629,46.1673359 14.1935629,47.3276706 L14.1935629,58.2689381 L14.1232835,58.2689381 C13.5591422,58.2689381 13.1017818,58.7243383 13.1017818,59.2860618 C13.1017818,59.8477853 13.5591422,60.3031855 14.1232835,60.3031855 L46.8771251,60.3031855 C47.4412664,60.3031855 47.8986268,59.8477853 47.8986268,59.2860618 C47.8986268,58.7243383 47.4412664,58.2689381 46.8771251,58.2689381 L46.8068457,58.2689381 L46.8068457,29.8636567 L50.2228839,29.8636567 L50.2228839,66.9657526 L10.7772523,66.9657526 L10.7772523,65.8089439 C10.7772523,65.2472204 10.3198919,64.7918202 9.75575055,64.7918202 C9.19160917,64.7918202 8.73424878,65.2472204 8.73424878,65.8089439 L8.73424878,66.9657526 L4.29684507,66.9657526 C3.05401791,66.9657526 2.04286735,65.9590714 2.04286735,64.7215709 Z M24.970679,58.2689381 L24.970679,39.7178223 C24.970679,39.6791716 25.0021412,39.6478442 25.0409583,39.6478442 L27.2245205,39.6478442 C27.2633376,39.6478442 27.2947998,39.6791716 27.2947998,39.7178223 L27.2947998,58.2689381 L24.970679,58.2689381 Z M16.236294,58.2688025 L16.236294,47.327535 C16.236294,47.2888843 16.2677563,47.2575569 16.3065733,47.2575569 L18.4901355,47.2575569 C18.5289526,47.2575569 18.5604149,47.2888843 18.5604149,47.327535 L18.5604149,58.2688025 L16.236294,58.2688025 Z M58.9571327,64.7215709 C58.9571327,65.9590714 57.9461183,66.9657526 56.7032911,66.9657526 L52.2657512,66.9657526 L52.2657512,29.8636567 L56.7032911,29.8636567 C57.9461183,29.8636567 58.9571327,30.8703379 58.9571327,32.1078384 L58.9571327,64.7215709 Z" id="Shape" fill="#08415C" fill-rule="nonzero"></path>
                                <path d="M55.5,45 C54.6716,45 54,45.4280979 54,45.9561448 L54,50.0438552 C54,50.5719021 54.6716,51 55.5,51 C56.3284,51 57,50.5719021 57,50.0438552 L57,45.9561448 C57,45.4280979 56.3284,45 55.5,45 Z" id="Path" fill="#CE2128"></path>
                                <path d="M5.5,48 C4.6716,48 4,48.6777926 4,49.5039894 C4,50.3301862 4.6716,51 5.5,51 C6.3284,51 7,50.3301862 7,49.5039894 L7,49.4878324 C7,48.6616356 6.3284,48 5.5,48 Z" id="Path" fill="#CE2128"></path>
                                <path d="M42.966744,65 L45.033256,65 C45.5671565,65 46,64.3284 46,63.5 C46,62.6716 45.5671565,62 45.033256,62 L42.966744,62 C42.4328435,62 42,62.6716 42,63.5 C42,64.3284 42.4328435,65 42.966744,65 Z" id="Path" fill="#08415C"></path>
                                <path d="M33.966744,65 L36.033256,65 C36.5671565,65 37,64.3284 37,63.5 C37,62.6716 36.5671565,62 36.033256,62 L33.966744,62 C33.4328435,62 33,62.6716 33,63.5 C33,64.3284 33.4328435,65 33.966744,65 Z" id="Path" fill="#CE2128"></path>
                                <path d="M24.966744,65 L27.033256,65 C27.5671565,65 28,64.3284 28,63.5 C28,62.6716 27.5671565,62 27.033256,62 L24.966744,62 C24.4328435,62 24,62.6716 24,63.5 C24,64.3284 24.4328435,65 24.966744,65 Z" id="Path" fill="#08415C"></path>
                                <path d="M15.966744,65 L18.033256,65 C18.5671565,65 19,64.3284 19,63.5 C19,62.6716 18.5671565,62 18.033256,62 L15.966744,62 C15.4328435,62 15,62.6716 15,63.5 C15,64.3284 15.4327146,65 15.966744,65 Z" id="Path" fill="#08415C"></path>
                                <path d="M17.5,44 C18.3284,44 19,43.5623045 19,43.0224192 L19,41.9775808 C19,41.4376955 18.3284,41 17.5,41 C16.6716,41 16,41.4376955 16,41.9775808 L16,43.0224192 C16,43.5623045 16.6716,44 17.5,44 Z" id="Path" fill="#08415C"></path>
                                <path d="M26.5,36 C27.3284,36 28,35.5623045 28,35.0224192 L28,33.9775808 C28,33.4376955 27.3284,33 26.5,33 C25.6716,33 25,33.4376955 25,33.9775808 L25,35.0224192 C25,35.5623045 25.6714,36 26.5,36 Z" id="Path" fill="#CE2128"></path>
                                <path d="M34.5,18 C35.3284,18 36,17.5623045 36,17.0224192 L36,15.9775808 C36,15.4376955 35.3284,15 34.5,15 C33.6716,15 33,15.4376955 33,15.9775808 L33,17.0224192 C33,17.5623045 33.6716,18 34.5,18 Z" id="Path" fill="#CE2128"></path>
                                <path d="M43.5,3 C44.3284,3 45,2.56230448 45,2.02241919 L45,0.977580813 C45,0.437695516 44.3284,0 43.5,0 C42.6716,0 42,0.437695516 42,0.977580813 L42,2.02241919 C42,2.56230448 42.6716,3 43.5,3 Z" id="Path" fill="#CE2128"></path>
                            </g>
                        </g>
                    </g>
                </g>
            </g>
        </g>
    </g>
</svg>