<?xml version="1.0" encoding="UTF-8"?>
<svg width="63px" height="64px" viewBox="0 0 63 64" version="1.1" xmlns="http://www.w3.org/2000/svg" xmlns:xlink="http://www.w3.org/1999/xlink">
    <!-- Generator: Sketch 52.5 (67469) - http://www.bohemiancoding.com/sketch -->
    <title>cloud-computing</title>
    <desc>Created with Sketch.</desc>
    <g id="Page-1" stroke="none" stroke-width="1" fill="none" fill-rule="evenodd">
        <g id="Homepage-08" transform="translate(-797.000000, -1596.000000)">
            <g id="THREE-BOXES" transform="translate(167.000000, 1060.000000)">
                <g id="UI/UX-text" transform="translate(0.000000, 364.000000)">
                    <g id="row-2" transform="translate(455.000000, 147.500000)">
                        <g id="sq-tab-2" transform="translate(140.333333, 25.000000)">
                            <g id="cloud-computing" transform="translate(34.666667, 0.000000)">
                                <path d="M41.0425627,33 C41.5713101,33 42,32.5522527 42,32 C42,31.447614 41.5713101,31 41.0425627,31 L36.9574373,31 C36.4286899,31 36,31.447614 36,32 C36,32.5522527 36.4286899,33 36.9574373,33 L41.0425627,33 Z" id="Path" fill="#CE2128"></path>
                                <path d="M35,32.0003172 C35,31.1140349 33.9242219,30.6653636 33.2925871,31.292464 C32.6640171,31.9255609 33.1166888,33 34.0003113,33 C34.560121,33 35,32.5392025 35,32.0003172 Z" id="Path" fill="#CE2128"></path>
                                <path d="M41.0425627,38 L36.9574373,38 C36.4286899,38 36,38.4477473 36,39 C36,39.552386 36.4286899,40 36.9574373,40 L41.0425627,40 C41.5713101,40 42,39.552386 42,39 C42,38.4474807 41.5713101,38 41.0425627,38 Z" id="Path" fill="#CE2128"></path>
                                <path d="M33.2927736,38.2930399 C32.9037427,38.682158 32.9010772,39.315175 33.2927736,39.7069601 C33.6847366,40.0992786 34.3184612,40.0960781 34.7072256,39.7069601 C35.0994551,39.3146416 35.0957234,38.6816246 34.7072256,38.2930399 C34.3184612,37.9039219 33.6846033,37.9007214 33.2927736,38.2930399 Z" id="Path" fill="#CE2128"></path>
                                <path d="M41.0425627,46 L36.9574373,46 C36.4286899,46 36,46.447614 36,47 C36,47.552386 36.4286899,48 36.9574373,48 L41.0425627,48 C41.5713101,48 42,47.552386 42,47 C42,46.447614 41.5713101,46 41.0425627,46 Z" id="Path" fill="#CE2128"></path>
                                <path d="M33,46.9996626 C33,47.8844415 34.0772245,48.336425 34.7081627,47.70602 C35.0974792,47.3173302 35.0970789,46.6814619 34.7081627,46.2931719 C34.0818942,45.6675639 33,46.1084876 33,46.9996626 Z" id="Path" fill="#CE2128"></path>
                                <path d="M62.0796126,28.3454172 C61.5806388,28.2411963 61.0900428,28.5600114 60.9850735,29.0589676 C59.8012119,34.682345 54.7592354,38.7639417 48.9963957,38.7639417 L45.9522858,38.7639417 C45.9522858,37.2738409 46.0673578,36.6102476 45.43939,35.8103182 C45.7595957,35.4024169 45.9522858,34.8904177 45.9522858,34.3333833 L45.9522858,29.5336835 C45.9522858,28.2103114 44.8743791,27.133649 43.5492032,27.133649 L33.7050041,27.133649 C33.1945724,27.133649 32.7807321,27.5468413 32.7807321,28.0567486 C32.7807321,28.566656 33.1945724,28.9798483 33.7050041,28.9798483 L43.5492032,28.9798483 C43.8551173,28.9798483 44.1037418,29.2284035 44.1037418,29.5336835 L44.1037418,34.3333833 C44.1037418,34.6387863 43.8549941,34.8872185 43.5492032,34.8872185 L19.5474535,34.8872185 C19.2416626,34.8872185 18.992915,34.6386633 18.992915,34.3333833 L18.992915,29.5336835 C18.992915,29.2282805 19.2417859,28.9798483 19.5474535,28.9798483 L29.3916526,28.9798483 C29.9020844,28.9798483 30.3159246,28.566656 30.3159246,28.0567486 C30.3159246,27.5468413 29.9020844,27.133649 29.3916526,27.133649 L19.5474535,27.133649 C18.2224008,27.133649 17.1443709,28.2103114 17.1443709,29.5336835 L17.1443709,34.3333833 C17.1443709,34.8904177 17.3370611,35.4024169 17.6572668,35.8103182 C17.0300382,36.6095093 17.1443709,37.2654737 17.1443709,38.7639417 L14.100261,38.7639417 C7.34464827,38.7639417 1.84854401,33.2750548 1.84854401,26.528257 C1.84854401,21.0898194 5.50423568,16.2516058 10.7384095,14.7622432 C11.1272395,14.6517469 11.398903,14.3014317 11.4091289,13.8978371 C11.5283898,9.175903 16.1005916,6.06883962 20.4628549,7.43626251 C20.848112,7.55697176 21.2667571,7.41411402 21.4975171,7.0838555 C26.3777275,0.100930202 36.7190524,0.100807155 41.5992628,7.0838555 C41.8302692,7.41460621 42.2490376,7.55758699 42.6340483,7.43626251 C46.9880569,6.07117752 51.5685134,9.16913541 51.6876511,13.8979601 C51.697877,14.3016778 51.9695405,14.651993 52.3583705,14.7624893 C57.113899,16.1153927 60.5681531,20.1540459 61.1580511,25.0510761 C61.2190367,25.557169 61.6785855,25.9168358 62.1860603,25.857404 C62.692796,25.7964957 63.0542748,25.3369146 62.9932891,24.8306987 C62.3404342,19.4113334 58.6413749,14.9054701 53.4934435,13.1817027 C52.9667489,7.95342965 47.9448546,4.29019319 42.7271901,5.49888526 C37.0757263,-1.83853885 26.0126758,-1.82734156 20.3694667,5.49876222 C15.1223565,4.28416388 10.1269509,7.98308401 9.60321324,13.1821949 C4.07815618,15.0442673 0,20.2554368 0,26.5283801 C0,34.2931469 6.32538643,40.6102641 14.100261,40.6102641 L17.1443709,40.6102641 C17.1443709,42.0993806 17.0291758,42.7642043 17.6572668,43.5640107 C17.3370611,43.971789 17.1443709,44.4839112 17.1443709,45.0409456 L17.1443709,49.8406454 C17.1443709,51.1640175 18.2224008,52.2406799 19.5474535,52.2406799 L30.6240564,52.2406799 L30.6240564,56.8593775 C29.630544,57.1649035 28.8453687,57.9489599 28.5394546,58.941212 L18.3905735,58.941212 C17.8801417,58.941212 17.4663015,59.3545274 17.4663015,59.8643117 C17.4663015,60.3742191 17.8801417,60.7874114 18.3905735,60.7874114 L28.5394546,60.7874114 C29.4474638,63.733406 33.6464825,63.7416502 34.5569557,60.7874114 L44.413968,60.7874114 C44.9243997,60.7874114 45.33824,60.3742191 45.33824,59.8643117 C45.33824,59.3545274 44.9243997,58.941212 44.413968,58.941212 L34.5569557,58.941212 C34.2511649,57.9490829 33.4659895,57.1647805 32.4724772,56.8593775 L32.4724772,52.2406799 L43.54908,52.2406799 C44.8742559,52.2406799 45.9521626,51.1640175 45.9521626,49.8406454 L45.9521626,45.0409456 C45.9521626,44.4839112 45.7594725,43.9716659 45.4392668,43.5640107 C46.0666186,42.7649426 45.9521626,42.1072556 45.9521626,40.6102641 C49.2431722,40.6102641 53.547653,41.0166888 57.9372674,37.4171908 C60.4134096,35.3866668 62.1382574,32.5531373 62.793946,29.4389372 C62.8990385,28.9398579 62.5792024,28.4503764 62.0796126,28.3454172 Z M32.8471388,59.8644348 C32.8471388,60.5799539 32.2645098,61.1618438 31.5482052,61.1618438 C30.8319005,61.1618438 30.2492716,60.5798308 30.2492716,59.8644348 C30.2492716,59.1490387 30.8319005,58.5670257 31.5482052,58.5670257 C32.2645098,58.5671487 32.8471388,59.1491617 32.8471388,59.8644348 Z M44.1037418,49.8407685 C44.1036186,50.1461715 43.8548709,50.3946037 43.54908,50.3946037 L19.5474535,50.3946037 C19.2416626,50.3946037 18.992915,50.1460484 18.992915,49.8407685 L18.992915,45.0410686 C18.992915,44.7355426 19.2417859,44.4872334 19.5474535,44.4872334 L43.5492032,44.4872334 C43.8551173,44.4872334 44.1037418,44.7356656 44.1037418,45.0410686 L44.1037418,49.8407685 Z M44.1036186,42.0870759 C44.1036186,42.3924789 43.8548709,42.6409111 43.54908,42.6409111 L19.5474535,42.6409111 C19.2416626,42.6409111 18.992915,42.3923559 18.992915,42.0870759 C18.992915,40.3546952 18.992915,39.0273857 18.992915,37.287376 C18.992915,36.981973 19.2417859,36.7335409 19.5474535,36.7335409 L43.5492032,36.7335409 C43.8551173,36.7335409 44.1037418,36.9820961 44.1037418,37.287376 C44.1036186,39.0186493 44.1036186,40.3476815 44.1036186,42.0870759 Z" id="Shape" fill="#08415C" fill-rule="nonzero"></path>
                            </g>
                        </g>
                    </g>
                </g>
            </g>
        </g>
    </g>
</svg>