<?xml version="1.0" encoding="UTF-8"?>
<svg width="59px" height="59px" viewBox="0 0 59 59" version="1.1" xmlns="http://www.w3.org/2000/svg" xmlns:xlink="http://www.w3.org/1999/xlink">
    <!-- Generator: Sketch 52.5 (67469) - http://www.bohemiancoding.com/sketch -->
    <title>shopping</title>
    <desc>Created with Sketch.</desc>
    <g id="Page-1" stroke="none" stroke-width="1" fill="none" fill-rule="evenodd">
        <g id="Homepage-08" transform="translate(-1176.000000, -1441.000000)">
            <g id="THREE-BOXES" transform="translate(167.000000, 1060.000000)">
                <g id="UI/UX-text" transform="translate(0.000000, 364.000000)">
                    <g id="row-1" transform="translate(453.000000, 16.000000)">
                        <g id="sq-tab-4" transform="translate(533.000000, 1.000000)">
                            <g id="shopping" transform="translate(23.000000, 0.000000)">
                                <path d="M53.2103287,1.31177455e-14 L5.79012141,1.31177455e-14 C2.59729454,1.31177455e-14 0,2.60111843 0,5.79899308 L0,36.6815838 C0,39.9074033 2.62115192,42.5319593 5.84278749,42.5319593 L18.4245867,42.5319593 L17.2609806,47.4123804 L14.8378894,47.4123804 C12.3202691,47.4123804 10.2721426,49.4631669 10.2721426,51.9840567 L10.2721426,53.5597819 C10.2721426,54.0443083 10.6642125,54.4373381 11.1481106,54.4373381 L19.7209833,54.4373381 L19.3383662,58.0291442 C19.3118082,58.2765907 19.3919326,58.5240372 19.5580334,58.7088335 C19.7241342,58.8940802 19.9609067,59 20.2093827,59 L55.2314471,58.9995493 C55.4794729,58.9995493 55.7162454,58.894531 55.8823462,58.7097348 C56.0484469,58.5253894 56.1285715,58.2788443 56.1029137,58.0318485 L55.4349093,51.5950833 C55.384944,51.1132612 54.9555127,50.7625992 54.4729651,50.8130801 C53.9917678,50.8631103 53.6420108,51.2944515 53.6919761,51.7762736 L54.2595997,57.2448874 L41.3933135,57.2448874 L39.4059556,38.6025623 C39.358691,38.1563472 38.982826,37.8183054 38.5349391,37.8183054 L28.8763342,37.8183054 L29.6577733,30.2907923 L33.3750105,30.2907923 L33.3750105,32.2203345 C33.3750105,32.7048609 33.7675306,33.0978908 34.2514286,33.0978908 C34.7353267,33.0978908 35.1278468,32.7048609 35.1278468,32.2203345 L35.1278468,30.2907923 L45.9923706,30.2907923 L45.9923706,32.2203345 C45.9923706,32.7048609 46.3844404,33.0978908 46.8687886,33.0978908 C47.3526867,33.0978908 47.7447567,32.7048609 47.7447567,32.2203345 L47.7447567,30.2907923 L51.4619938,30.2907923 L53.3836317,48.8073659 C53.430446,49.2585389 53.8108125,49.5938763 54.2541981,49.5938763 C54.2843573,49.5938763 54.3149667,49.5925241 54.3455761,49.5893691 C54.8272234,49.5393389 55.1765302,49.1079976 55.1265649,48.6257248 L54.4783666,42.3796151 C57.0752111,41.7738443 59,39.4255812 59,36.6815838 L59,5.79899308 C59.0004501,2.60111843 56.4027053,0 53.2103287,0 Z M20.2260378,42.5319593 L20.9899215,42.5319593 L20.4700125,47.4123804 L19.0624318,47.4123804 L20.2260378,42.5319593 Z M12.0245287,52.6826762 L12.0245287,51.9840567 C12.0245287,50.4308676 13.2862647,49.1670423 14.8378894,49.1670423 L20.2827552,49.1670423 L19.9082406,52.6826762 L12.0245287,52.6826762 Z M39.6305742,57.2448874 L21.184381,57.2448874 L23.0682073,39.5729674 L37.7467479,39.5729674 L39.6305742,57.2448874 Z M35.1278468,28.5356797 L35.1278468,26.4303558 C35.1278468,23.4312495 37.5644422,20.991039 40.5601086,20.991039 C43.555325,20.991039 45.9923706,23.4312495 45.9923706,26.4303558 L45.9923706,28.5356797 L35.1278468,28.5356797 Z M47.7452068,28.5356797 L47.7452068,26.4303558 C47.7452068,22.4635488 44.5217707,19.2363771 40.5601086,19.2363771 C36.5984466,19.2363771 33.3754606,22.4635488 33.3754606,26.4303558 L33.3754606,28.5356797 L28.8682317,28.5356797 C28.4194444,28.5356797 28.0431293,28.8755242 27.9967651,29.3226408 L27.3845778,35.2180885 L12.2824577,35.2180885 C11.7985596,35.2180885 11.4064896,35.6106676 11.4064896,36.0951941 C11.4064896,36.5797206 11.7985596,36.9727505 12.2824577,36.9727505 L27.2022721,36.9727505 L27.1144952,37.8183054 L22.2804663,37.8183054 C21.8325793,37.8183054 21.4567143,38.1563472 21.4089997,38.6025623 L21.1771788,40.7772974 L5.84278749,40.7772974 C3.68572758,40.7772974 1.91398555,39.0956525 1.76408972,36.9732012 L9.36151396,36.9732012 C9.84541202,36.9732012 10.237482,36.580622 10.237482,36.0960955 C10.237482,35.611569 9.84541202,35.2185392 9.36151396,35.2185392 L1.75238608,35.2185392 L1.75238608,5.79899308 C1.75238608,3.56881924 3.56374023,1.75466189 5.79012141,1.75466189 L53.2103287,1.75466189 C55.4367099,1.75466189 57.248064,3.56881924 57.248064,5.79899308 L57.248064,35.2180885 L53.7356394,35.2180885 L53.1239023,29.3226408 C53.077538,28.8755242 52.701223,28.5356797 52.2524356,28.5356797 L47.7452068,28.5356797 Z M54.2956107,40.6150374 L53.9174951,36.9727505 L57.2363604,36.9727505 C57.1134728,38.6927068 55.9138559,40.1431311 54.2956107,40.6150374 Z" id="Shape" fill="#08415C" fill-rule="nonzero"></path>
                                <path d="M27.91681,10.6684608 L20.8543428,10.6684608 L20.8543428,7.95481127 C20.8543428,6.32569213 19.5737263,5 17.9999999,5 C16.4262737,5 15.1456572,6.32569213 15.1456572,7.95481127 L15.1456572,10.6684608 L8.08318992,10.6684608 C6.93454023,10.6684608 6,11.6358954 6,12.8245112 L6,14.3007551 C6,15.2547144 6.60237894,16.0646273 7.43323106,16.3485383 L8.62990939,25.7882285 C8.86197352,27.6194773 10.3822846,29 12.1660806,29 L23.8339193,29 C25.6177152,29 27.1375775,27.6194773 27.3700905,25.7882285 L28.5667688,16.3485383 C29.3976209,16.065092 30,15.2547144 30,14.3007551 L30,12.8245112 C29.999551,11.6358954 29.0650108,10.6684608 27.91681,10.6684608 Z M27.91681,12.4774056 C28.1017431,12.4774056 28.2521134,12.6330687 28.2521134,12.8245112 L28.2521134,14.3007551 C28.2521134,14.4921975 28.1017431,14.6483253 27.91681,14.6483253 L20.8543428,14.6483253 L20.8543428,12.4774056 L27.91681,12.4774056 Z M16.8930949,7.95481127 C16.8930949,7.32286548 17.3895414,6.8089448 17.9999999,6.8089448 C18.6100097,6.8089448 19.1064562,7.32286548 19.1064562,7.95481127 L19.1064562,17.723485 C19.1064562,18.3554308 18.6100097,18.8693514 17.9999999,18.8693514 C17.3895414,18.8693514 16.8930949,18.3554308 16.8930949,17.723485 L16.8930949,7.95481127 Z M7.74743769,12.8245112 C7.74743769,12.6330687 7.89825687,12.4774056 8.08318992,12.4774056 L15.1456572,12.4774056 L15.1456572,14.6483253 L8.08318992,14.6483253 C7.89825687,14.6483253 7.74743769,14.4921975 7.74743769,14.3007551 L7.74743769,12.8245112 Z M25.6370165,25.5531075 C25.5189646,26.4866215 24.7433231,27.1910552 23.8339193,27.1910552 L12.1660806,27.1910552 C11.256228,27.1910552 10.4810354,26.4866215 10.3625346,25.5531075 L9.20984517,16.4572701 L15.1456572,16.4572701 L15.1456572,17.723485 C15.1456572,19.3530687 16.4262737,20.6782962 17.9999999,20.6782962 C19.5741752,20.6782962 20.8543428,19.3530687 20.8543428,17.723485 L20.8543428,16.4572701 L26.7906037,16.4572701 L25.6370165,25.5531075 Z" id="Shape" fill="#CE2128" fill-rule="nonzero"></path>
                                <path d="M27.698105,46.4997818 L27.698105,42.8488343 C27.698105,42.3799253 27.3181796,42 26.8492706,42 C26.3803616,42 26,42.3799253 26,42.8488343 L26,46.4997818 C26,48.9812921 28.0187079,51 30.5002181,51 C32.9812921,51 35,48.9812921 35,46.4997818 L35,42.8488343 C35,42.3799253 34.6200746,42 34.1511656,42 C33.6822566,42 33.301895,42.3799253 33.301895,42.8488343 L33.301895,46.4997818 C33.301895,48.0447826 32.0452189,49.3018949 30.5002181,49.3018949 C28.9552173,49.3018949 27.698105,48.0447826 27.698105,46.4997818 Z" id="Path" fill="#08415C"></path>
                                <path d="M38.0427938,10 L33.9572062,10 C33.4284309,10 33,10.2239918 33,10.5001284 C33,10.7762651 33.4284309,11 33.9572062,11 L38.0427938,11 C38.5715691,11 39,10.7762651 39,10.5001284 C39,10.2239918 38.5715691,10 38.0427938,10 Z" id="Path" fill="#08415C"></path>
                                <path d="M40.8825358,11 L53.1179176,11 C53.6051933,11 54,10.7762651 54,10.5001284 C54,10.2239918 53.6051933,10 53.1179176,10 L40.8825358,10 C40.3948066,10 40,10.2239918 40,10.5001284 C40,10.7762651 40.3948066,11 40.8825358,11 Z" id="Path" fill="#08415C"></path>
                                <path d="M38.0427938,13 L33.9572062,13 C33.4284309,13 33,13.2237349 33,13.4998715 C33,13.7760082 33.4284309,14 33.9572062,14 L38.0427938,14 C38.5715691,14 39,13.7760082 39,13.4998715 C39,13.2237349 38.5715691,13 38.0427938,13 Z" id="Path" fill="#08415C"></path>
                                <path d="M54,13.4998715 C54,13.2237349 53.6051933,13 53.1179176,13 L40.8825358,13 C40.3948066,13 40,13.2237349 40,13.4998715 C40,13.7760082 40.3948066,14 40.8825358,14 L53.1179176,14 C53.6051933,14 54,13.7760082 54,13.4998715 Z" id="Path" fill="#08415C"></path>
                            </g>
                        </g>
                    </g>
                </g>
            </g>
        </g>
    </g>
</svg>