<?xml version="1.0" encoding="UTF-8"?>
<svg width="54px" height="62px" viewBox="0 0 54 62" version="1.1" xmlns="http://www.w3.org/2000/svg" xmlns:xlink="http://www.w3.org/1999/xlink">
    <!-- Generator: Sketch 52.5 (67469) - http://www.bohemiancoding.com/sketch -->
    <title>brain</title>
    <desc>Created with Sketch.</desc>
    <g id="Page-1" stroke="none" stroke-width="1" fill="none" fill-rule="evenodd">
        <g id="Homepage-08" transform="translate(-624.000000, -1754.000000)">
            <g id="THREE-BOXES" transform="translate(167.000000, 1060.000000)">
                <g id="UI/UX-text" transform="translate(0.000000, 364.000000)">
                    <g id="row-3" transform="translate(457.000000, 329.000000)">
                        <g id="sq-tab-1" transform="translate(0.000000, 1.000000)">
                            <g id="brain">
                                <path d="M27,42 C26.4477333,42 26,42.4377716 26,42.9777507 L26,44.0222493 C26,44.5622284 26.4477333,45 27,45 C27.5522667,45 28,44.5622284 28,44.0222493 L28,42.9777507 C28,42.4377716 27.5522667,42 27,42 Z" id="Path" fill="#CE2128"></path>
                                <path d="M53.9783033,34.3735508 C53.855924,32.9498516 53.1831394,31.6763086 52.174686,30.7392852 C53.0958462,27.3205664 53.2656098,23.3612852 52.6188685,20.0338711 C51.8446839,16.0506133 50.0495066,13.4317187 47.5640618,12.6597461 C47.1061343,12.5174609 46.6591786,12.4294258 46.2250035,12.3916445 C46.2527347,12.1243906 46.2681678,11.8554414 46.2681678,11.5860078 C46.2681678,7.33852344 42.8274413,3.88287109 38.5983029,3.88287109 C38.1566524,3.88287109 37.7209098,3.92246875 37.2937278,3.99573047 C36.5413665,1.64457422 34.3444475,0 31.8325978,0 C29.804719,0 28.0205135,1.06320313 27.000003,2.66273047 C25.9796131,1.06320313 24.1954076,0 22.1675288,0 C19.6559202,0 17.4591218,1.64421094 16.7066399,3.995125 C16.2798196,3.92222656 15.8441976,3.88287109 15.4019442,3.88287109 C11.1726853,3.88287109 7.73207937,7.33852344 7.73207937,11.5860078 C7.73207937,11.8537461 7.74630671,12.1226953 7.77379683,12.3887383 C7.34179196,12.4278516 6.89604203,12.5169766 6.43618532,12.6597461 C3.95074061,13.4317187 2.15556324,16.0506133 1.38137868,20.0338711 C0.738013345,23.344332 0.902230659,27.2804844 1.81097214,30.6872148 C0.697381014,31.7389141 0,33.2301836 0,34.88275 C0,36.857668 0.995914104,38.660875 2.60444801,39.7117266 C2.16303862,40.6225938 1.9329897,41.6216172 1.9329897,42.6483711 C1.9329897,45.7110742 3.98052158,48.3007852 6.77245705,49.1139297 C6.76835764,49.2237617 6.76558452,49.3335938 6.76558452,49.4431836 C6.76558452,54.2259023 10.6398833,58.1170078 15.4019442,58.1170078 C16.1225954,58.1170078 16.8326363,58.0237656 17.5188043,57.8492695 C18.0340029,60.2195586 20.1386853,62 22.6507762,62 C24.4576489,62 26.0543669,61.0789609 27.0001236,59.6798437 C27.9458803,61.0788398 29.5424777,62 31.349471,62 C33.8615618,62 35.9663648,60.2195586 36.4813223,57.8495117 C37.1674902,58.0240078 37.8775312,58.11725 38.5981823,58.11725 C43.3603639,58.11725 47.2345421,54.2261445 47.2345421,49.4434258 C47.2345421,49.3346836 47.2318895,49.2255781 47.2277901,49.1165937 C49.7176959,48.3854297 51.6639484,46.1765586 52.0076955,43.5543945 C52.1817996,42.2261172 51.9652546,40.8934805 51.3949552,39.712332 C53.1498619,38.566543 54.1636205,36.5315625 53.9783033,34.3735508 Z M49.7923292,38.5183477 C49.542145,38.624668 49.352849,38.8382773 49.2766483,39.100082 C49.2004476,39.3618867 49.245541,39.6442773 49.3995098,39.8691484 C50.0853161,40.8711992 50.3746858,42.0958203 50.2145679,43.317293 C49.9335175,45.4618633 48.1825896,47.2283789 46.0512611,47.5176719 C45.0892273,47.648332 44.1542015,47.5075 43.308639,47.1117656 C43.5183115,46.6790977 43.6742094,46.2195469 43.7709072,45.7415898 C43.870378,45.2500703 43.5542416,44.7705391 43.064845,44.6707578 C42.5753279,44.5710977 42.0979885,44.8883633 41.9986382,45.3798828 C41.8452723,46.1381719 41.4746379,46.8296172 40.9270057,47.379625 C39.3953959,48.9178789 36.9031992,48.9178789 35.3715894,47.379625 C35.0184378,47.0249414 34.4458475,47.0249414 34.0928164,47.379625 C33.7396648,47.7343086 33.7396648,48.3093828 34.0928164,48.6640664 C35.2112304,49.787332 36.680264,50.3489648 38.1494181,50.3489648 C39.6185723,50.3489648 41.0876059,49.787332 42.2060198,48.6640664 C42.2226586,48.6473555 42.2385739,48.6300391 42.2549716,48.6130859 C43.2141116,49.116957 44.2841767,49.3798516 45.3747388,49.3798516 C45.391257,49.3798516 45.4077752,49.379125 45.4241728,49.3790039 C45.4244139,49.4004375 45.4262225,49.4218711 45.4262225,49.4433047 C45.4262225,53.224457 42.3632441,56.3007227 38.5984235,56.3007227 C36.6403551,56.3007227 34.7736793,55.4542773 33.4769412,53.9785078 C33.1464569,53.6023906 32.5750723,53.5665469 32.2005796,53.8984648 C31.826087,54.2303828 31.7903981,54.8042461 32.1208824,55.1803633 C32.8692648,56.0320156 33.7687224,56.7157109 34.7598136,57.2097734 C34.523495,58.8881328 33.0846041,60.1835937 31.349471,60.1835937 C29.4498794,60.1835937 27.9044039,58.6314141 27.9044039,56.723582 L27.9044039,47.5018086 C27.9044039,47.0002383 27.4995275,46.5936055 27.0001236,46.5936055 C26.5007197,46.5936055 26.0958432,47.0002383 26.0958432,47.5018086 L26.0958432,48.7332109 C24.8715682,47.4180117 23.1308888,46.5937266 21.2010339,46.5937266 C21.1801752,46.5937266 21.1595576,46.5954219 21.1388194,46.5956641 L21.1388194,45.5605547 C21.1388194,43.2666758 19.7856543,41.1924609 17.6914615,40.2762656 C17.233534,40.0759766 16.700732,40.2863164 16.5011875,40.7462305 C16.3017635,41.2060234 16.5111948,41.7412578 16.9690018,41.9415469 C18.403311,42.5690547 19.3301381,43.9897266 19.3301381,45.5605547 L19.3301381,46.8632812 C17.8277065,47.3009141 16.5061309,48.2569492 15.6148721,49.6035117 C15.3384035,50.0211641 15.4514988,50.5849766 15.8673472,50.8626445 C16.2833162,51.1403125 16.8444523,51.0267266 17.1210415,50.6090742 C18.032315,49.2322383 19.5574139,48.4102539 21.2009133,48.4102539 C23.8998888,48.4102539 26.0957226,50.6156133 26.0957226,53.3262969 L26.0957226,56.7237031 C26.0957226,58.6315352 24.5502472,60.1837148 22.6506556,60.1837148 C20.9154019,60.1837148 19.476511,58.8882539 19.2404335,57.2100156 C20.2315248,56.7159531 21.1311029,56.0322578 21.8793648,55.1806055 C22.2098491,54.8046094 22.1741602,54.230625 21.7996675,53.898707 C21.4252954,53.5667891 20.8536697,53.6026328 20.5233059,53.97875 C19.2265679,55.4545195 17.3598921,56.3009648 15.4018237,56.3009648 C11.6368825,56.3009648 8.57402467,53.2246992 8.57402467,49.4435469 C8.57402467,49.4222344 8.57583323,49.4008008 8.5759538,49.3794883 C8.59608911,49.3796094 8.61598328,49.3810625 8.63623916,49.3810625 C9.96155245,49.3810625 11.2433397,48.9930781 12.3429446,48.2588867 C12.7589136,47.9812187 12.8718884,47.4175273 12.5954197,46.9997539 C12.3189511,46.5821016 11.7576944,46.4685156 11.3417254,46.7461836 C10.539689,47.2816602 9.60418085,47.5646562 8.63623916,47.5646562 C5.93726371,47.5646562 3.74142985,45.3592969 3.74142985,42.6486133 C3.74142985,41.6517695 4.03851609,40.6906484 4.60049619,39.8692695 C4.75434442,39.6445195 4.79943787,39.3621289 4.72335775,39.1002031 C4.64715706,38.8383984 4.45786104,38.624668 4.2076768,38.5184687 C2.750218,37.8990742 1.80844015,36.4721055 1.80844015,34.8829922 C1.80844015,32.707543 3.57070172,30.9376367 5.73675461,30.9376367 C6.23615851,30.9376367 6.64103497,30.5310039 6.64103497,30.0294336 C6.64103497,29.5278633 6.23615851,29.1212305 5.73675461,29.1212305 C4.90783094,29.1212305 4.12014246,29.300207 3.40781068,29.6192891 C2.70054287,26.6147109 2.60022803,23.2427344 3.15630017,20.3820156 C3.78748786,17.1341602 5.17778877,14.9520508 6.97043416,14.3951406 C8.11018913,14.0411836 9.05654867,14.1283711 9.86413132,14.6615469 C11.5167941,15.7530859 12.2051323,18.3828789 12.4512171,19.6756758 C11.1876361,20.0136484 10.0253344,20.6726406 9.06800289,21.6146289 C8.71123414,21.9656797 8.70532618,22.5406328 9.05486068,22.8989492 C9.40427461,23.2571445 9.97686493,23.2631992 10.3336337,22.9121484 C11.43565,21.8277539 12.8923854,21.2305195 14.4354494,21.2305195 C16.209768,21.2305195 17.8717148,22.0356719 18.9808448,23.4045156 C18.5950185,23.8913125 18.3636433,24.5067109 18.3636433,25.1757539 L18.3636433,25.2382383 L15.4019442,25.2382383 C14.9025403,25.2382383 14.4976639,25.6448711 14.4976639,26.1464414 C14.4976639,26.6480117 14.9025403,27.0546445 15.4019442,27.0546445 L18.3636433,27.0546445 L18.3636433,30.0917969 L14.2245712,30.0917969 C13.8460997,28.9646562 12.7842335,28.1504219 11.5358443,28.1504219 C9.97131868,28.1504219 8.69857422,29.4288086 8.69857422,31 C8.69857422,32.5711914 9.97143925,33.8495781 11.5358443,33.8495781 C12.7842335,33.8495781 13.8460997,33.0353437 14.2245712,31.9082031 L18.3636433,31.9082031 L18.3636433,34.9453555 L15.4019442,34.9453555 C14.9025403,34.9453555 14.4976639,35.3519883 14.4976639,35.8535586 C14.4976639,36.3551289 14.9025403,36.7617617 15.4019442,36.7617617 L18.3636433,36.7617617 L18.3636433,36.8242461 C18.3636433,38.3955586 19.6365083,39.6738242 21.2009133,39.6738242 L32.7989721,39.6738242 C34.3634977,39.6738242 35.6362422,38.3954375 35.6362422,36.8242461 L35.6362422,36.7617617 L38.5979412,36.7617617 C39.0973451,36.7617617 39.5022216,36.3551289 39.5022216,35.8535586 C39.5022216,35.3519883 39.0973451,34.9453555 38.5979412,34.9453555 L35.6364833,34.9453555 L35.6364833,31.9082031 L39.7755554,31.9082031 C40.1540268,33.0353437 41.2158931,33.8495781 42.4642823,33.8495781 C44.0288079,33.8495781 45.3015524,32.5711914 45.3015524,31 C45.3015524,29.4288086 44.0286873,28.1504219 42.4642823,28.1504219 C41.2158931,28.1504219 40.1540268,28.9646562 39.7755554,30.0917969 L35.6364833,30.0917969 L35.6364833,27.0546445 L38.5981823,27.0546445 C39.0975862,27.0546445 39.5024627,26.6480117 39.5024627,26.1464414 C39.5024627,25.6448711 39.0975862,25.2382383 38.5981823,25.2382383 L35.6364833,25.2382383 L35.6364833,25.1757539 C35.6364833,23.6044414 34.3636183,22.3261758 32.7992132,22.3261758 L21.2011545,22.3261758 C20.9624245,22.3261758 20.730567,22.3563281 20.5088374,22.4122734 C19.059698,20.5262383 16.824317,19.4139922 14.43557,19.4139922 C14.3719086,19.4139922 14.308609,19.4170195 14.2451888,19.4185937 C13.9641385,17.8962031 13.1174909,14.63975 10.8624568,13.1467852 C10.4771128,12.8916406 10.0713924,12.6998281 9.64686289,12.5695312 C9.56644222,12.2744258 9.54076066,11.8456328 9.54076066,11.5860078 C9.54076066,8.34008984 12.1701668,5.69927734 15.4020648,5.69927734 C16.9908251,5.69927734 18.4780649,6.32726953 19.5898475,7.46736719 C19.939382,7.82580469 20.5118517,7.83173828 20.8686205,7.48080859 C21.2253892,7.12987891 21.2314177,6.55480469 20.8820038,6.19648828 C20.1717217,5.46810937 19.3438832,4.90078516 18.4410497,4.50953125 C18.968426,2.92247656 20.4621766,1.81640625 22.1675288,1.81640625 C24.3335817,1.81640625 26.0958432,3.58619141 26.0958432,5.76176172 L26.0958432,9.15928906 C26.0958432,11.6023555 24.1167955,13.5899883 21.6842813,13.5899883 C20.2509367,13.5899883 18.9015092,12.8861914 18.0746353,11.7072227 C17.7870741,11.2971992 17.2229237,11.1989922 16.8146713,11.4876797 C16.4062983,11.7764883 16.3085154,12.3430859 16.5960766,12.7532305 C17.761272,14.4145156 19.663275,15.4063945 21.6842813,15.4063945 C23.4071163,15.4063945 24.9682659,14.6989648 26.0958432,13.5585039 L26.0958432,19.35175 C26.0958432,19.8533203 26.5007197,20.2599531 27.0001236,20.2599531 C27.4995275,20.2599531 27.9044039,19.8533203 27.9044039,19.35175 L27.9044039,5.76176172 C27.9044039,3.5863125 29.6666655,1.81640625 31.8327184,1.81640625 C33.538794,1.81640625 35.0331475,2.92344531 35.5599209,4.51158984 C34.7043511,4.8825 33.9148541,5.41022656 33.2307358,6.08350781 C32.8740877,6.43455859 32.8681797,7.00951172 33.2177142,7.36782812 C33.5671281,7.72602344 34.1397185,7.73195703 34.4964872,7.38090625 C35.5985035,6.29639062 37.0552389,5.69915625 38.5983029,5.69915625 C41.8303215,5.69915625 44.4596071,8.33996875 44.4596071,11.5858867 C44.4596071,11.9162305 44.4319964,12.2454844 44.3779807,12.5688047 C43.7072458,12.7689727 43.0857038,13.1185703 42.5279437,13.6202617 C42.1558624,13.9548437 42.1243935,14.5290703 42.4576509,14.9027656 C42.7907878,15.2763398 43.3625341,15.3079453 43.7344948,14.9733633 C44.6252712,14.172207 45.7030529,13.9829375 47.0296924,14.3950195 C48.8223378,14.9519297 50.2125182,17.1340391 50.8438264,20.3818945 C51.4032745,23.2600508 51.2978957,26.6555195 50.5789326,29.6737812 C49.8069183,29.3200664 48.9483342,29.1211094 48.0488767,29.1211094 C47.5494728,29.1211094 47.1445963,29.5277422 47.1445963,30.0293125 C47.1445963,30.5308828 47.5494728,30.9375156 48.0488767,30.9375156 C50.1903331,30.9375156 52.003355,32.5153672 52.1764945,34.5296406 C52.3239525,36.24675 51.3658976,37.849668 49.7923292,38.5183477 Z M12.5646742,31 C12.5646742,31.5697461 12.1031295,32.0331719 11.5358443,32.0331719 C10.9685591,32.0331719 10.5071349,31.569625 10.5071349,31 C10.5071349,30.430375 10.9686796,29.9668281 11.5358443,29.9668281 C12.1032501,29.9668281 12.5646742,30.4302539 12.5646742,31 Z M20.1724451,36.8242461 L20.1724451,25.175875 C20.1724451,24.6061289 20.6339898,24.1427031 21.2011545,24.1427031 L32.7992132,24.1427031 C33.3664985,24.1427031 33.8279226,24.60625 33.8279226,25.175875 L33.8279226,36.8242461 C33.8279226,37.3939922 33.3663779,37.857418 32.7992132,37.857418 L21.2011545,37.857418 C20.6338693,37.857418 20.1724451,37.3938711 20.1724451,36.8242461 Z M41.4354524,31 C41.4354524,30.4302539 41.8969971,29.9668281 42.4642823,29.9668281 C43.0315675,29.9668281 43.4929917,30.430375 43.4929917,31 C43.4929917,31.569625 43.031447,32.0331719 42.4642823,32.0331719 C41.8969971,32.0331719 41.4354524,31.5697461 41.4354524,31 Z" id="Shape" fill="#08415C" fill-rule="nonzero"></path>
                                <path d="M33.071481,9.04038494 C32.3844502,8.88818623 31.6610594,9.17943863 31.4564045,9.69106342 C31.1535777,10.4485774 31,11.2366342 31,12.0334544 C31,12.5672453 31.5814137,13 32.2985714,13 C33.015729,13 33.5971427,12.5672453 33.5971427,12.0334544 C33.5971427,11.4234997 33.7143604,10.8210196 33.9456793,10.2425099 C34.1503341,9.7308851 33.7588582,9.19271252 33.071481,9.04038494 Z" id="Path" fill="#CE2128"></path>
                                <path d="M31.1469626,27 L23.8530374,27 C23.3819333,27 23,27.3819333 23,27.8530374 L23,35.1469626 C23,35.6180667 23.3819333,36 23.8530374,36 L31.1469626,36 C31.6180667,36 32,35.6180667 32,35.1469626 L32,27.8530374 C32,27.3818196 31.6180667,27 31.1469626,27 Z M30.2939251,34.2938114 L24.7060749,34.2938114 L24.7060749,28.7059612 L30.2939251,28.7059612 L30.2939251,34.2938114 Z" id="Shape" fill="#CE2128" fill-rule="nonzero"></path>
                            </g>
                        </g>
                    </g>
                </g>
            </g>
        </g>
    </g>
</svg>