<?xml version="1.0" encoding="UTF-8"?>
<svg width="62px" height="59px" viewBox="0 0 62 59" version="1.1" xmlns="http://www.w3.org/2000/svg" xmlns:xlink="http://www.w3.org/1999/xlink">
    <!-- Generator: Sketch 52.5 (67469) - http://www.bohemiancoding.com/sketch -->
    <title>api</title>
    <desc>Created with Sketch.</desc>
    <g id="Page-1" stroke="none" stroke-width="1" fill="none" fill-rule="evenodd">
        <g id="Homepage-08" transform="translate(-796.000000, -1440.000000)">
            <g id="THREE-BOXES" transform="translate(167.000000, 1060.000000)">
                <g id="UI/UX-text" transform="translate(0.000000, 364.000000)">
                    <g id="row-1" transform="translate(453.000000, 16.000000)">
                        <g id="sq-tab-2" transform="translate(176.333333, 0.000000)">
                            <g id="api">
                                <path d="M61.5,25.6858736 C61.5,23.4168215 60.7828293,21.2597584 59.4257431,19.4474907 C58.2520218,17.8796468 56.6319885,16.6570633 54.8123017,15.9535316 C54.7075882,11.3452603 50.9206848,7.62871744 46.2807159,7.62871744 C45.2400971,7.62871744 44.2269363,7.81598513 43.257988,8.18680291 C41.71521,5.83457249 39.6367646,3.85920071 37.2074127,2.44330849 C34.464386,0.84479548 31.326706,0 28.1350403,0 C24.6967163,0 21.3524018,0.970260223 18.4641724,2.8062268 C15.7979355,4.50092943 13.6231537,6.85920071 12.1501846,9.64637549 C9.0357742,10.0339219 6.16522977,11.5055762 4.02209473,13.8243495 C1.75097656,16.2815986 0.5,19.4781598 0.5,22.8248142 C0.5,27.7337361 3.17973334,32.0292751 7.15558621,34.3303904 C7.18583685,35.2713755 7.23191068,36.7964683 7.29427341,37.44842 C7.37339017,38.2718401 8.00492865,38.9433086 8.83053589,39.0817844 L11.4856033,39.5274164 C11.9905548,41.8285316 12.8841094,43.9874535 14.1481171,45.9600371 L12.589981,48.1440521 C12.1041108,48.8243495 12.1334305,49.7458178 12.6607208,50.3833643 C13.1437988,50.9684015 13.6482849,51.5236989 14.1606826,52.035316 C14.6721497,52.5464684 15.2287598,53.0501859 15.8146897,53.5325278 C16.4536743,54.0594796 17.3760834,54.0887547 18.0578842,53.6036246 L20.2452317,52.0478625 C22.2208252,53.3099443 24.382576,54.2021376 26.6876679,54.7063197 L27.1335144,57.357342 C27.2722016,58.1812268 27.9451599,58.8122677 28.7698364,58.8907992 C29.5265655,58.9632899 30.2767792,59 31,59 C31.7232208,59 32.4738999,58.9632899 33.2301636,58.8907992 C34.0548401,58.8122677 34.7277984,58.1812268 34.8664856,57.357342 L35.3123321,54.7063197 C37.617424,54.2021376 39.7791748,53.3099443 41.7547683,52.0478625 L43.9421158,53.6036246 C44.6239166,54.0887547 45.5463257,54.0594796 46.1853103,53.5329926 C46.7712402,53.0501859 47.3278503,52.5464684 47.8397827,52.035316 C48.3517151,51.5241636 48.8562012,50.9684015 49.3392792,50.3838289 C49.8665695,49.7458178 49.8958892,48.8248142 49.410019,48.1440521 L47.8518829,45.9600371 C49.1158906,43.9874535 50.0094452,41.8285316 50.5143967,39.5274164 L53.1694641,39.082249 C53.994606,38.9437733 54.6266098,38.2718401 54.7057266,37.44842 C54.7713471,36.760223 54.8062515,36.0780669 54.8123017,35.4158922 C58.7206726,33.9061339 61.5,30.1143123 61.5,25.6858736 Z M51.0561142,34.3294609 L18.5842437,34.3294609 C18.0909272,34.3294609 17.690689,34.7286245 17.690689,35.2216542 C17.690689,35.7142193 18.0909272,36.1138476 18.5842437,36.1138476 L19.6360322,36.1138476 C20.0930481,41.9744423 25.0150452,46.6031598 31,46.6031598 C36.9849548,46.6031598 41.9069519,41.9744423 42.3639678,36.1138476 L51.0561142,36.1138476 C51.724884,36.1138476 52.3792266,36.0497212 53.0135574,35.929368 C52.9981995,36.3726765 52.9698105,36.8234201 52.9265289,37.2778811 C52.9246674,37.295539 52.9027939,37.3173792 52.8730088,37.3224908 L49.6129302,37.8694238 C49.2434082,37.9312268 48.9516067,38.2174721 48.8827285,38.5850372 C48.4150085,41.0789962 47.4553681,43.3968402 46.0307998,45.4749071 C45.8195114,45.7834573 45.8232346,46.1914498 46.0405732,46.4962825 L47.9542695,49.179368 C47.9719543,49.2039963 47.9719543,49.2346654 47.9607849,49.2481413 C47.5135422,49.7890334 47.0476837,50.3025093 46.5757751,50.7736989 C46.1038666,51.2444239 45.5900727,51.7100372 45.0478897,52.1565985 C45.0343933,52.1677509 45.0032119,52.1677509 44.9790115,52.1505576 L42.291832,50.2393123 C41.9865341,50.0223048 41.577919,50.0185874 41.268898,50.2300186 C39.1881256,51.6524164 36.8662796,52.6101301 34.3685151,53.0771376 C34.0003891,53.1463755 33.713707,53.4372676 33.6518096,53.8062268 L33.104042,57.0618029 C33.0989228,57.0915427 33.0770493,57.1129182 33.0598297,57.114777 C32.3598785,57.1816915 31.6669082,57.2156134 31,57.2156134 C30.3330918,57.2156134 29.6401215,57.1816915 28.9401703,57.114777 C28.9224854,57.1129182 28.9006118,57.0915427 28.895958,57.0618029 L28.3477249,53.8062268 C28.2858276,53.4372676 27.9996109,53.1463755 27.6310196,53.0771376 C25.1332549,52.6101301 22.8118744,51.6524164 20.731102,50.2300186 C20.4216157,50.0185874 20.0130005,50.0223048 19.7077026,50.2393123 L17.0209885,52.1505576 C16.9963227,52.1677509 16.9656067,52.1677509 16.951645,52.1565985 C16.4094619,51.7100372 15.895668,51.2448885 15.4237595,50.7736989 C14.9518509,50.3025093 14.4859924,49.7890334 14.0387497,49.2481413 C14.0280457,49.2346654 14.0275803,49.2035317 14.0452652,49.1789033 L15.9589615,46.4962825 C16.1763,46.1914498 16.1804886,45.7834573 15.9687348,45.4744423 C14.5441665,43.3968402 13.5845261,41.0789962 13.1168061,38.5850372 C13.0479278,38.2170075 12.7561264,37.9312268 12.3866043,37.8694238 L9.12652588,37.3224908 C9.09674072,37.3173792 9.07486722,37.295539 9.07347113,37.2778811 C9.01762396,36.697026 8.98551175,35.8564127 8.97666937,35.2067844 C10.4752349,35.7918216 12.1050415,36.1133829 13.8088455,36.1133829 L14.7638321,36.1133829 C15.2571487,36.1133829 15.6573868,35.7142193 15.6573868,35.2211896 C15.6573868,34.7286245 15.2571487,34.3289963 14.7638321,34.3289963 L13.8088455,34.3289963 C7.45576471,34.3294609 2.28710938,29.1682156 2.28710938,22.8248142 C2.28710938,19.9279739 3.36961371,17.1612454 5.33543402,15.0343866 C7.28961942,12.9200743 9.94142917,11.6189591 12.8026657,11.3717472 C13.1140137,11.3447956 13.3885956,11.1570631 13.5272827,10.8773234 C14.8545837,8.19005573 16.8939361,5.9196097 19.4238129,4.31133835 C22.0248947,2.65845722 25.0369187,1.78438662 28.1350403,1.78438662 C31.0107041,1.78438662 33.8365708,2.54507432 36.3068772,3.98466546 C38.7022553,5.38011146 40.7192688,7.38011146 42.1401138,9.76765799 C42.3783951,10.1682156 42.8852081,10.3183085 43.3035965,10.1124535 C44.2450867,9.64823423 45.2466125,9.41310406 46.2807159,9.41310406 C50.0010681,9.41310406 53.0275193,12.4349442 53.0275193,16.1496282 C53.0275193,16.2216542 53.0219345,16.3043681 53.0158843,16.3921933 C53.013092,16.4381971 53.0098343,16.4842007 53.0075073,16.5302044 C52.9847031,16.9386617 53.2425308,17.3099443 53.6339263,17.4316914 C57.2700424,18.5622676 59.7128906,21.8796468 59.7128906,25.6858736 C59.7128906,30.4516729 55.8291855,34.3294609 51.0561142,34.3294609 Z M40.5689468,36.1138476 C40.1165847,40.9888476 35.9983215,44.8187732 31,44.8187732 C26.0012131,44.8187732 21.8834153,40.9888476 21.4310532,36.1138476 L40.5689468,36.1138476 Z" id="Shape" fill="#08415C" fill-rule="nonzero"></path>
                                <path d="M16.1469231,38.0316666 C15.6778955,38.1597869 15.402537,38.6400104 15.5319554,39.1047868 C17.3208684,45.5194281 23.2704496,50 30.0002135,50 C36.7299773,50 42.6795585,45.5198825 44.4680125,39.1047868 C44.5974311,38.6400104 44.3225314,38.1597869 43.853045,38.0316666 C43.3844765,37.9035464 42.8989274,38.1756882 42.7695089,38.6404647 C41.1907864,44.3013778 35.9401571,48.2553847 30.0002135,48.2553847 C24.0602698,48.2553847 18.8091816,44.3013778 17.230918,38.6404647 C17.1014995,38.1756882 16.6159505,37.9035464 16.1469231,38.0316666 Z" id="Path" fill="#08415C"></path>
                                <path d="M26.4485761,26.8182377 L24.7757793,22.093491 C24.6479105,21.7333436 24.2866814,21.5072152 23.9281923,21.5058336 L17.2950026,21.5058336 L19.5733492,15.0715383 C19.6377402,14.8900829 19.8089929,14.7684986 19.9998826,14.7684986 C20.1907724,14.7684986 20.3624818,14.8900829 20.4268728,15.0715383 L21.785478,18.9088118 C21.9485106,19.3688978 22.4503953,19.608382 22.906156,19.4439668 C23.3623732,19.2800124 23.5998437,18.7738717 23.4372678,18.3142462 L22.078206,14.4769727 C21.7653843,13.5936445 20.9301276,13 19.9998826,13 C19.0696377,13 18.2348377,13.5936445 17.922016,14.4769727 L13.5511892,26.8182377 C13.3886133,27.2778631 13.6260838,27.7840037 14.0823011,27.9484188 C14.1795726,27.9834203 14.2791276,28 14.3773124,28 C14.7371717,28 15.0746536,27.7743321 15.202979,27.4128032 L16.6684459,23.2743323 L23.331776,23.2743323 L24.797243,27.4128032 C24.9251117,27.7743321 25.2630504,28 25.6229095,28 C25.7210944,28 25.8206493,27.9834203 25.9179209,27.9484188 C26.3741382,27.7840037 26.6116087,27.2778631 26.4485761,26.8182377 Z" id="Path" fill="#CE2128"></path>
                                <path d="M33.9997534,13 L30.4584921,13 C29.3781657,13 28.5,13.8206939 28.5,14.8292909 L28.5,27.1157507 C28.5,27.60393 28.9235511,28 29.4467031,28 C29.9693621,28 30.3934063,27.60393 30.3934063,27.1157507 L30.3934063,14.8292909 C30.3934063,14.7956709 30.4224977,14.7684986 30.4584921,14.7684986 L33.9997534,14.7684986 C35.9883232,14.7684986 37.6065937,16.2795518 37.6065937,18.1369359 C37.6065937,19.9947806 35.9883232,21.5058336 33.9997534,21.5058336 L33.493859,21.5058336 C32.9712,21.5058336 32.5471559,21.9019036 32.5471559,22.3900829 C32.5471559,22.8782623 32.9712,23.2743323 33.493859,23.2743323 L33.9997534,23.2743323 C37.032655,23.2743323 39.5,20.9697575 39.5,18.1369359 C39.5,15.3045749 37.032655,13 33.9997534,13 Z" id="Path" fill="#CE2128"></path>
                                <path d="M42.5,13 C41.9479167,13 41.5,13.3956095 41.5,13.8842493 L41.5,27.1157507 C41.5,27.60393 41.9479167,28 42.5,28 C43.0526043,28 43.5,27.60393 43.5,27.1157507 L43.5,13.8842493 C43.5,13.3960701 43.0526043,13 42.5,13 Z" id="Path" fill="#CE2128"></path>
                            </g>
                        </g>
                    </g>
                </g>
            </g>
        </g>
    </g>
</svg>