<?xml version="1.0" encoding="UTF-8"?>
<svg width="61px" height="60px" viewBox="0 0 61 60" version="1.1" xmlns="http://www.w3.org/2000/svg" xmlns:xlink="http://www.w3.org/1999/xlink">
    <!-- Generator: Sketch 52.5 (67469) - http://www.bohemiancoding.com/sketch -->
    <title>tablet</title>
    <desc>Created with Sketch.</desc>
    <g id="Page-1" stroke="none" stroke-width="1" fill="none" fill-rule="evenodd">
        <g id="Homepage-08" transform="translate(-975.000000, -1440.000000)">
            <g id="THREE-BOXES" transform="translate(167.000000, 1060.000000)">
                <g id="UI/UX-text" transform="translate(0.000000, 364.000000)">
                    <g id="row-1" transform="translate(453.000000, 16.000000)">
                        <g id="sq-tab-3" transform="translate(355.666667, 0.000000)">
                            <g id="tablet">
                                <path d="M59.1210938,21 C59.1210938,21 59.1210938,21 59.120636,21 C58.6349487,21 58.2417298,21.4056671 58.2417298,21.9067296 L58.2417298,44.2996459 L1.75827023,44.2996459 L1.75827023,38.9523023 C1.75827023,38.451712 1.36505133,38.0455727 0.879363984,38.0455727 C0.87890625,38.0455727 0.87890625,38.0455727 0.87890625,38.0455727 C0.393219023,38.0455727 0,38.451712 0,38.9523023 L0,48.8842975 C0,50.0512397 0.920104922,51 2.05078125,51 L57.9492188,51 C59.0798951,51 60,50.0512397 60,48.8842975 L60,21.9067296 C60,21.4056671 59.606781,21 59.1210938,21 Z M57.9492188,49.1865407 L2.05078125,49.1865407 C1.8891907,49.1865407 1.7578125,49.0510036 1.7578125,48.8842975 L1.7578125,46.1131052 L58.2421875,46.1131052 L58.2421875,48.8842975 C58.2421875,49.0510036 58.1108093,49.1865407 57.9492188,49.1865407 Z" id="Shape" fill="#08415C" fill-rule="nonzero"></path>
                                <path d="M57.9492188,4.82278585 L42.7574157,4.82278585 C42.2717285,4.82278585 41.8785095,5.21892668 41.8785095,5.70719356 C41.8785095,6.1954602 42.2717285,6.59160127 42.7574157,6.59160127 L57.9492188,6.59160127 C58.1108093,6.59160127 58.2421875,6.72380171 58.2421875,6.88640384 L58.2421875,9.55160326 L51.0173034,9.55160326 C50.6767273,8.76623082 49.898529,8.21531852 48.9935303,8.21531852 C47.7767944,8.21531852 46.7866516,9.21119839 46.7866516,10.436011 C46.7866516,11.6608236 47.7767944,12.6567034 48.9935303,12.6567034 C49.898529,12.6567034 50.6767273,12.1057911 51.0173034,11.3204187 L58.2421875,11.3204187 L58.2421875,14.2624562 L1.7578125,14.2624562 L1.7578125,11.3204187 L8.98269656,11.3204187 C9.32327273,12.1057911 10.101471,12.6567034 11.006012,12.6567034 C12.2232056,12.6567034 13.2133484,11.6603628 13.2133484,10.436011 C13.2133484,9.21165911 12.2232056,8.21531852 11.006012,8.21531852 C10.101471,8.21531852 9.32327273,8.76623082 8.98269656,9.55160326 L1.7578125,9.55160326 L1.7578125,6.88640384 C1.7578125,6.72380171 1.8891907,6.59160127 2.05078125,6.59160127 L38.9300537,6.59160127 C39.4152832,6.59160127 39.80896,6.1954602 39.80896,5.70719356 C39.80896,5.21892668 39.4152832,4.82278585 38.9300537,4.82278585 L36.5625,4.82278585 L36.5625,2.06361799 C36.5625,0.925864262 35.6423951,0 34.5117188,0 L25.4882813,0 C24.3576049,0 23.4375,0.925864262 23.4375,2.06361799 L23.4375,4.82278585 L2.05078125,4.82278585 C0.920104922,4.82278585 0,5.74818951 0,6.88640384 L0,35.1155923 C0,35.6038592 0.393219023,36 0.87890625,36 L0.879363984,36 C1.36505133,36 1.75827023,35.6038592 1.75827023,35.1155923 L1.75827023,16.0312716 L58.2417298,16.0312716 L58.2417298,18.4896487 C58.2417298,18.9779154 58.6349487,19.3740564 59.120636,19.3740564 L59.1210938,19.3740564 C59.606781,19.3740564 60,18.9779154 60,18.4896487 L60,6.88640384 C60,5.74818951 59.0798951,4.82278585 57.9492188,4.82278585 Z M48.9935303,10.887888 C48.7463379,10.887888 48.5444641,10.6852112 48.5444641,10.436011 C48.5444641,10.1868107 48.7463379,9.98413394 48.9935303,9.98413394 C49.2416381,9.98413394 49.4430541,10.1868107 49.4430541,10.436011 C49.4430541,10.6852112 49.2416381,10.887888 48.9935303,10.887888 Z M11.0064697,9.98413394 C11.2536621,9.98413394 11.4555359,10.1868107 11.4555359,10.436011 C11.4555359,10.6852112 11.2536621,10.887888 11.0064697,10.887888 C10.7583619,10.887888 10.5569459,10.6852112 10.5569459,10.436011 C10.5569459,10.1868107 10.7583619,9.98413394 11.0064697,9.98413394 Z M25.1953125,2.06361799 C25.1953125,1.90101598 25.3266907,1.76881542 25.4882812,1.76881542 L34.5117188,1.76881542 C34.6733093,1.76881542 34.8046875,1.90101598 34.8046875,2.06361799 L34.8046875,4.82278585 L25.1953125,4.82278585 L25.1953125,2.06361799 Z" id="Shape" fill="#08415C" fill-rule="nonzero"></path>
                                <path d="M45.2836623,52 L16.5481572,52 C15.9611999,52 15.4377465,52.2944157 15.0961863,52.7528838 L10.9253422,54.5340251 C10.363333,54.7737565 10,55.3489167 10,55.9997559 C10,56.650595 10.363333,57.2262435 10.9253422,57.465975 L15.0961863,59.246628 C15.4377465,59.7050961 15.9611999,60 16.5481572,60 L45.2836623,60 C47.3325696,60 49,58.205676 49,55.9997559 C49,53.7938358 47.3325696,52 45.2836623,52 Z M14.6870399,54.9451328 L14.6870399,57.0548672 L12.2158319,55.9997559 L14.6870399,54.9451328 Z M45.2836623,58.1251144 L16.5481572,58.1251144 C16.4823853,58.1251144 16.4288606,58.0675008 16.4288606,57.9967043 L16.4288606,54.003784 C16.4288606,53.9324993 16.4823853,53.8748856 16.5481572,53.8748856 L45.2836623,53.8748856 C46.3723002,53.8748856 47.2581793,54.8279524 47.2581793,56.0002441 C47.2581793,57.1720476 46.3723002,58.1251144 45.2836623,58.1251144 Z" id="Shape" fill="#CE2128" fill-rule="nonzero"></path>
                                <path d="M27.109462,55 L20.890538,55 C20.3988868,55 20,55.2239583 20,55.5 C20,55.7763021 20.3988868,56 20.890538,56 L27.109462,56 C27.601577,56 28,55.7763021 28,55.5 C28,55.2239583 27.6011132,55 27.109462,55 Z" id="Path" fill="#CE2128"></path>
                            </g>
                        </g>
                    </g>
                </g>
            </g>
        </g>
    </g>
</svg>