<?xml version="1.0" encoding="UTF-8"?>
<svg width="49px" height="62px" viewBox="0 0 49 62" version="1.1" xmlns="http://www.w3.org/2000/svg" xmlns:xlink="http://www.w3.org/1999/xlink">
    <!-- Generator: Sketch 52.5 (67469) - http://www.bohemiancoding.com/sketch -->
    <title>smartphone</title>
    <desc>Created with Sketch.</desc>
    <g id="Page-1" stroke="none" stroke-width="1" fill="none" fill-rule="evenodd">
        <g id="Homepage-08" transform="translate(-803.000000, -1753.000000)">
            <g id="THREE-BOXES" transform="translate(167.000000, 1060.000000)">
                <g id="UI/UX-text" transform="translate(0.000000, 364.000000)">
                    <g id="row-3" transform="translate(457.000000, 329.000000)">
                        <g id="sq-tab-2" transform="translate(124.333333, 0.000000)">
                            <g id="smartphone" transform="translate(54.666667, 0.000000)">
                                <path d="M42.083812,49.490566 C41.5778319,49.490566 41.167624,49.8944764 41.167624,50.3926887 L41.167624,54.6627358 L8.3070153,54.6627358 L8.3070153,47.3587901 L9.35513435,47.7954175 C9.38518531,47.8079269 9.41584707,47.8186321 9.44675314,47.8277736 C9.45151732,47.829217 9.4562815,47.830059 9.46104568,47.8313821 C9.49500571,47.8408844 9.52933222,47.8482217 9.56390305,47.8537547 C9.57404219,47.8554387 9.58405918,47.8568821 9.59432049,47.8582052 C9.63353333,47.8632571 9.67286834,47.866625 9.71220334,47.866625 C9.75153834,47.866625 9.79087335,47.8631368 9.83008619,47.8582052 C9.84022534,47.8568821 9.85036449,47.8553184 9.86038148,47.8537547 C9.8949523,47.8481014 9.92940097,47.8408844 9.96348316,47.8312618 C9.96812518,47.8299387 9.97288936,47.8290967 9.97753138,47.8277736 C10.0084375,47.8185118 10.0390992,47.8079269 10.0691502,47.7952972 L18.8643104,44.1309953 C19.2033,43.989783 19.4235516,43.6624929 19.4235516,43.3002005 L19.4235516,31.6180731 C19.4235516,31.5781392 19.4204976,31.538566 19.4152448,31.4994741 C19.4140232,31.4904528 19.41158,31.4817925 19.4101141,31.4728915 C19.4048613,31.4414976 19.3986313,31.4104646 19.3900802,31.380033 C19.3862933,31.3663208 19.3814069,31.3529693 19.3768871,31.3394976 C19.3685803,31.3144788 19.3596627,31.2897005 19.3491571,31.2655236 C19.3430492,31.2513302 19.3364526,31.2374976 19.3296118,31.2236651 C19.3183732,31.2009316 19.3060352,31.1786792 19.2928421,31.156908 C19.2847796,31.1436769 19.2769615,31.1304458 19.2681661,31.1176958 C19.2533849,31.0959245 19.23726,31.0751156 19.2205243,31.0546675 C19.2114846,31.0434811 19.2029335,31.0320542 19.1934052,31.0213491 C19.1721496,30.997533 19.1490617,30.9754009 19.1251186,30.95375 C19.1185221,30.9478561 19.1127806,30.9412406 19.1060619,30.935467 C19.076866,30.9106887 19.0460821,30.8874741 19.0134658,30.866184 C19.0116335,30.8649811 19.0096789,30.8641392 19.0078465,30.8629363 C18.9968523,30.8558396 18.9847586,30.850066 18.9733979,30.8433302 C18.9485997,30.8288962 18.9235573,30.8149434 18.8976597,30.8029151 C18.8927733,30.8006297 18.8883756,30.7975024 18.8833671,30.7953373 L10.0884512,26.8966038 C9.8491429,26.7905142 9.57538594,26.7905142 9.33619979,26.8966038 L8.3070153,27.352717 L8.3070153,11.9021226 C8.3070153,11.4039104 7.8968074,11 7.39082732,11 C6.88484725,11 6.47463935,11.4039104 6.47463935,11.9021226 L6.47463935,28.1651085 L0.540306589,30.7954575 C0.534687303,30.7979835 0.529923125,30.8013514 0.524303839,30.8039976 C0.501948853,30.8144623 0.480326816,30.8266108 0.45870478,30.839 C0.443801456,30.8475401 0.428409498,30.8551179 0.413994807,30.8643797 C0.412895381,30.8651014 0.411673797,30.8655825 0.410574372,30.8663042 C0.38247794,30.8847075 0.356091727,30.9049151 0.330560622,30.9259646 C0.313458446,30.9400377 0.297700013,30.9551934 0.281697263,30.9704693 C0.265083721,30.9862264 0.248103704,31.0018632 0.232833904,31.0188231 C0.219762956,31.0333774 0.20803575,31.0488939 0.195942069,31.0641698 C0.182993278,31.080408 0.170166647,31.0966462 0.158439441,31.1137264 C0.147200868,31.1302052 0.136939563,31.1470448 0.126678258,31.1642453 C0.116294794,31.1816863 0.106522122,31.1993679 0.0973602423,31.2174104 C0.0883205209,31.2352123 0.0797694331,31.2532547 0.0719512957,31.271658 C0.0640109999,31.2905425 0.0571701297,31.3096675 0.0504514179,31.3291533 C0.0439770229,31.3477972 0.0373804694,31.3662005 0.0322498168,31.3853255 C0.0263862137,31.4068561 0.0223549866,31.4287476 0.0182016011,31.4507594 C0.014781166,31.4685613 0.0103834637,31.4860024 0.00794029579,31.5040448 C0.00305395992,31.5416934 0.00036647519,31.5799434 0.00036647519,31.618434 L0.00036647519,31.6227642 C0.00036647519,31.6246887 0,31.6264929 0,31.6284175 C0,31.6298608 0.00036647519,31.631184 0.00036647519,31.6325071 L0.00036647519,43.300441 C0.00036647519,43.6628538 0.220618065,43.9900236 0.559607616,44.1312358 L6.47463935,46.5953538 L6.47463935,57.4893868 C6.47463935,59.9765991 8.5295879,62 11.0555792,62 L38.4190601,62 C40.9450514,62 43,59.9765991 43,57.4893868 L43,50.3926887 C43,49.8944764 42.5899143,49.490566 42.083812,49.490566 Z M17.5911756,42.7023939 L10.6283913,45.6032594 L10.6283913,35.8806627 L17.5911756,32.9794363 L17.5911756,42.7023939 Z M9.71220334,28.7086675 L16.2176266,31.5924528 L9.71208118,34.3029104 L3.20629144,31.5924528 L9.71220334,28.7086675 Z M1.83298674,42.7025142 L1.83298674,32.9795566 L8.79589321,35.8805425 L8.79589321,45.6033797 L1.83298674,42.7025142 Z M41.167624,57.4893868 C41.167624,58.9817382 39.9346793,60.1957547 38.4190601,60.1957547 L11.0555792,60.1957547 C9.53996,60.1957547 8.3070153,58.9817382 8.3070153,57.4893868 L8.3070153,56.4669811 L41.167624,56.4669811 L41.167624,57.4893868 Z" id="Shape" fill="#08415C" fill-rule="nonzero"></path>
                                <path d="M27.1818182,57 L22.8181818,57 C22.3663273,57 22,57.4477333 22,58 C22,58.5522667 22.3663273,59 22.8181818,59 L27.1818182,59 C27.6336727,59 28,58.5522667 28,58 C28,57.4477333 27.6337818,57 27.1818182,57 Z" id="Path" fill="#CE2128"></path>
                                <g id="Group" transform="translate(6.000000, 0.000000)" fill="#08415C">
                                    <path d="M42.9308102,16.1466598 C42.9297139,16.138312 42.9275212,16.1303325 42.9261813,16.1219847 C42.9209433,16.0890844 42.9144873,16.0565524 42.9057167,16.024757 C42.9020623,16.0111304 42.8973116,15.9979949 42.8929263,15.9846138 C42.8845212,15.9585882 42.8755071,15.9329309 42.8647875,15.9078875 C42.8588187,15.8936471 42.8522408,15.8797749 42.8455411,15.8659028 C42.8342125,15.8423325 42.8217875,15.8194987 42.8085099,15.7970332 C42.8005921,15.7836522 42.792796,15.7703939 42.7842691,15.7575038 C42.7694079,15.7351611 42.7532068,15.7138005 42.7365184,15.6928082 C42.7275042,15.6815141 42.719221,15.6699744 42.7097195,15.6590486 C42.6885241,15.6347417 42.6653796,15.6120307 42.6416261,15.5900563 C42.6350482,15.5839182 42.6293229,15.5771662 42.6225014,15.5712737 C42.5933881,15.5459847 42.5626912,15.5222916 42.5301671,15.5005627 C42.5283399,15.499335 42.5263909,15.4984757 42.5245637,15.4973708 C42.5133569,15.4900051 42.5010538,15.483867 42.4894816,15.4769923 C42.4649972,15.4623836 42.4402691,15.4483887 42.4148102,15.4362353 C42.4098159,15.4339028 42.4054306,15.4305882 42.4003144,15.4283785 L36.482881,12.7435703 L36.482881,4.60358056 C36.4830028,2.06510486 34.4337422,0 31.9150142,0 L4.62889518,0 C2.11004533,0 0.0609065156,2.06510486 0.0609065156,4.60358056 L0.0609065156,7.79539642 C0.0609065156,8.30387724 0.469954674,8.71611253 0.974504249,8.71611253 C1.47905382,8.71611253 1.88810198,8.30387724 1.88810198,7.79539642 L1.88810198,4.60358056 C1.88810198,3.08047059 3.11756091,1.84143223 4.62889518,1.84143223 L8.5878187,1.84143223 L8.5878187,3.86700767 C8.5878187,5.32235294 9.76270538,6.50639386 11.2067989,6.50639386 L25.3371105,6.50639386 C26.781204,6.50639386 27.9560907,5.32235294 27.9560907,3.86700767 L27.9560907,1.84143223 L31.9150142,1.84143223 C33.4263484,1.84143223 34.6558074,3.08047059 34.6558074,4.60358056 L34.6558074,11.9145575 L31.4378725,10.4545473 C31.1992408,10.3462711 30.9262578,10.3462711 30.6877479,10.4545473 L19.7240878,15.4283785 C19.7182408,15.4310793 19.7131246,15.4347621 19.7073994,15.4374629 C19.6865694,15.4474066 19.6664703,15.4591918 19.6463711,15.4707315 C19.6300482,15.4801841 19.613238,15.4887775 19.5976459,15.4990895 C19.5967932,15.4997033 19.5959405,15.5000716 19.5950878,15.5005627 C19.574136,15.5145575 19.5550113,15.5305166 19.5353994,15.5461074 C19.5092096,15.5668542 19.4844816,15.5889514 19.4608499,15.612399 C19.4465977,15.6265166 19.4318584,15.640266 19.4185807,15.655243 C19.4044504,15.671202 19.3917819,15.6883887 19.3787479,15.7053299 C19.3670538,15.7206752 19.355238,15.7357749 19.3445184,15.751734 C19.3324589,15.7695345 19.3216176,15.7879488 19.310898,15.8066087 C19.3013966,15.8231816 19.2922606,15.8398772 19.2838555,15.8569412 C19.2742323,15.8763376 19.2652181,15.895734 19.2569348,15.9157442 C19.2496261,15.9335448 19.2432918,15.9517136 19.2370793,15.9698824 C19.230136,15.9902609 19.2230708,16.0103939 19.2175892,16.0313862 C19.2123513,16.0510281 19.2089405,16.0711611 19.2050425,16.0911714 C19.2010227,16.1115499 19.1961501,16.1315601 19.1935921,16.1523069 C19.1888414,16.1904859 19.1862833,16.229156 19.1862833,16.2680716 L19.1862833,16.2705269 C19.1862833,16.2731049 19.185796,16.2756829 19.185796,16.2782609 C19.185796,16.2802251 19.1862833,16.2820665 19.1862833,16.2839079 L19.1862833,31.1716419 C19.1862833,31.5415243 19.4059122,31.8754373 19.7438215,32.0195601 L21.6346034,32.8258619 C22.0995637,33.024 22.6354193,32.8049923 22.8320255,32.3367775 C23.0286317,31.8684399 22.8113173,31.3281637 22.3467224,31.1300256 L21.0134788,30.5615141 L21.0134788,17.6574936 L30.1492125,21.5533504 L30.1492125,34.4572481 L25.9372833,32.6612379 C25.4724448,32.462977 24.9365892,32.6821074 24.7398612,33.150445 C24.543255,33.6186598 24.7605694,34.1589361 25.2252861,34.3571969 L30.7067507,36.6945882 C30.7367167,36.7073555 30.7672918,36.7182813 30.7981105,36.7276113 C30.8028612,36.7290844 30.8076119,36.7299437 30.8123626,36.7312941 C30.8462266,36.7409923 30.8804561,36.7484808 30.9149292,36.7541279 C30.9250397,36.7558465 30.9350283,36.7573197 30.9452606,36.7586701 C30.9843626,36.7638261 31.0235864,36.7672634 31.0628102,36.7672634 C31.102034,36.7672634 31.1412578,36.7637033 31.1803598,36.7586701 C31.1904703,36.7573197 31.2004589,36.7557238 31.2105694,36.7541279 C31.2451643,36.7483581 31.2795156,36.7409923 31.3135014,36.7311714 C31.3181303,36.729821 31.3227592,36.7290844 31.3272663,36.7276113 C31.358085,36.7181586 31.3886601,36.7073555 31.4187479,36.6944655 L34.6559292,35.3140051 L34.6559292,47.0792839 C34.6559292,47.5877647 35.0649773,48 35.5695269,48 C36.0740765,48 36.4831246,47.5877647 36.4831246,47.0792839 L36.4831246,34.5349565 L42.3815552,32.0196829 C42.7195864,31.8755601 42.9392153,31.5415243 42.9392153,31.1717647 L42.9392153,16.2681944 C42.9390935,16.2271918 42.9359263,16.1866803 42.9308102,16.1466598 Z M26.1288952,3.86700767 C26.1288952,4.30698721 25.7736884,4.66496164 25.3371105,4.66496164 L11.2067989,4.66496164 C10.770221,4.66496164 10.4150142,4.30698721 10.4150142,3.86700767 L10.4150142,1.84143223 L26.1288952,1.84143223 L26.1288952,3.86700767 Z M31.0624448,19.943202 L22.3822918,16.2418005 L31.0628102,12.3038363 L39.7422323,16.2418005 C39.7462521,16.2436419 39.7440595,16.2427826 39.7421105,16.2418005 L31.0624448,19.943202 Z M41.1120198,30.5615141 C41.1014221,30.5658107 41.1116544,30.5611458 41.1014221,30.5658107 L31.9762861,34.4572481 L31.9762861,21.5534731 L41.1120198,17.6574936 L41.1120198,30.5615141 Z" id="Shape" fill-rule="nonzero"></path>
                                    <path d="M39.7421105,16.2418005 L39.7422323,16.2418005 C39.7384561,16.2402046 39.7402833,16.2410639 39.7421105,16.2418005 Z" id="Path"></path>
                                </g>
                                <circle id="Oval" fill="#CE2128" cx="20" cy="4" r="1"></circle>
                                <circle id="Oval" fill="#CE2128" cx="20" cy="4" r="1"></circle>
                            </g>
                        </g>
                    </g>
                </g>
            </g>
        </g>
    </g>
</svg>