<?xml version="1.0" encoding="UTF-8"?>
<svg width="60px" height="60px" viewBox="0 0 60 60" version="1.1" xmlns="http://www.w3.org/2000/svg" xmlns:xlink="http://www.w3.org/1999/xlink">
    <!-- Generator: Sketch 52.5 (67469) - http://www.bohemiancoding.com/sketch -->
    <title>big-data</title>
    <desc>Created with Sketch.</desc>
    <g id="Page-1" stroke="none" stroke-width="1" fill="none" fill-rule="evenodd">
        <g id="Homepage-08" transform="translate(-977.000000, -1755.000000)" fill-rule="nonzero">
            <g id="THREE-BOXES" transform="translate(167.000000, 1060.000000)">
                <g id="UI/UX-text" transform="translate(0.000000, 364.000000)">
                    <g id="row-3" transform="translate(457.000000, 329.000000)">
                        <g id="sq-tab-3" transform="translate(346.666667, 2.000000)">
                            <g id="big-data" transform="translate(6.333333, 0.000000)">
                                <path d="M51.2131641,8.78683594 C45.5470313,3.12046875 38.0132812,0 30,0 C21.9867188,0 14.4529688,3.12046875 8.78683594,8.78683594 C3.12046875,14.4529688 0,21.9867188 0,30 C0,38.0132812 3.12046875,45.5470313 8.78683594,51.2131641 C14.4529688,56.8795312 21.9867188,60 30,60 C38.0132812,60 45.5470313,56.8795312 51.2131641,51.2131641 C56.8795312,45.5470313 60,38.0132812 60,30 C60,21.9867188 56.8795312,14.4529688 51.2131641,8.78683594 Z M58.0669922,29.0425781 L52.3185938,29.0425781 C52.0880859,23.6036719 49.9044141,18.6619922 46.4516016,14.9025 L50.5140234,10.8399609 C55.0039453,15.6440625 57.8303906,22.0202344 58.0669922,29.0425781 Z M30,1.91484375 C37.3994531,1.91484375 44.1383203,4.7925 49.1600391,9.48597656 L45.0975,13.5485156 C41.1185156,9.89402344 35.8155469,7.65960937 30,7.65960937 C24.1844531,7.65960937 18.8814844,9.89402344 14.9025,13.5485156 L10.8399609,9.48597656 C15.8616797,4.79261719 22.6005469,1.91484375 30,1.91484375 Z M9.48597656,10.8399609 L13.5485156,14.9025 C10.0957031,18.6619922 7.91191406,23.6036719 7.68140625,29.0425781 L1.93300781,29.0425781 C2.16960938,22.0202344 4.9959375,15.6440625 9.48597656,10.8399609 Z M16.9164844,45.6714844 C16.5108984,45.3324609 15.9070313,45.3861328 15.5677734,45.7917187 C15.2286328,46.1973047 15.2824219,46.8011719 15.6880078,47.1403125 C19.4519531,50.2880859 24.1617188,52.1083594 29.0425781,52.3194141 L29.0425781,58.066875 C14.3160937,57.5710547 2.42894531,45.6839062 1.93300781,30.9574219 L7.68046875,30.9574219 C7.89164063,35.8383984 9.71179688,40.5480469 12.8595703,44.3119922 C13.1985938,44.7176953 13.8024609,44.7714844 14.2081641,44.4322266 C14.61375,44.0928516 14.6676563,43.4891016 14.3283984,43.0835156 C11.2628906,39.4180078 9.57445312,34.7714062 9.57445312,30 C9.57445312,18.7373437 18.7373437,9.57445313 30,9.57445313 C41.2626562,9.57445313 50.4255469,18.7373437 50.4255469,30 C50.4255469,41.2626562 41.2626562,50.4255469 30,50.4255469 C25.2285937,50.4255469 20.5819922,48.7371094 16.9164844,45.6714844 Z M30.9574219,58.0669922 L30.9574219,52.3185938 C39.5016797,51.9563672 46.8183984,46.7730469 50.251875,39.4249219 L55.5638672,41.6252344 C51.2599219,51.0522656 41.8910156,57.6986719 30.9574219,58.0669922 Z M56.2981641,39.8567578 L50.9882812,37.6572656 C51.7584375,35.5529297 52.2192188,33.3011719 52.3184766,30.9574219 L58.066875,30.9574219 C57.961875,34.0785937 57.3453516,37.0719141 56.2981641,39.8567578 Z" id="Shape" fill="#08415C"></path>
                                <path d="M30,13 C20.6262104,13 13,20.6262104 13,30 C13,39.3737896 20.6262104,47 30,47 C39.3737896,47 47,39.3737896 47,30 C47,20.6262104 39.3737896,13 30,13 Z M45.0807608,29.0555812 L36.2864535,29.0555812 C36.2387124,26.5428725 36.0005848,24.1321193 35.5935715,21.9678167 C37.385424,21.3419804 39.0708127,20.4158258 40.5752937,19.2175583 C43.1622151,21.7551202 44.8425175,25.2130569 45.0807608,29.0555812 Z M39.1177447,17.9581407 C37.914391,18.8711173 36.5887369,19.5928983 35.1866738,20.1067222 C35.0321221,19.4941794 34.8630052,18.9075301 34.6783985,18.3537099 C34.2619064,17.1043491 33.7880787,16.0653729 33.2650071,15.2453354 C35.424917,15.7228622 37.4123579,16.6635818 39.1177447,17.9581407 Z M25.602962,29.0555812 C25.6486224,26.7250517 25.8631684,24.4946282 26.2286828,22.4920443 C27.4572363,22.7721332 28.721509,22.9166281 30,22.9166281 C31.278491,22.9166281 32.5428793,22.7720176 33.7714328,22.4920443 C34.1369472,24.4947438 34.3514932,26.7250517 34.3971536,29.0555812 L25.602962,29.0555812 Z M34.397038,30.9444188 C34.3513776,33.2749483 34.1368316,35.5053718 33.7713172,37.5079557 C32.5426481,37.2278668 31.2783754,37.0833719 29.9998844,37.0833719 C28.7213934,37.0833719 27.4571207,37.2279824 26.2285672,37.5079557 C25.8630528,35.5052562 25.6485068,33.2749483 25.6028464,30.9444188 L34.397038,30.9444188 Z M30,14.8889531 C30.7408543,14.8889531 31.8882595,15.9560191 32.886546,18.9511097 C33.0643325,19.4847005 33.2273228,20.0514674 33.3755168,20.6451681 C32.2760839,20.8976296 31.1443997,21.0279062 30,21.0279062 C28.8556003,21.0279062 27.7238005,20.8978608 26.6244832,20.6451681 C26.7726772,20.0513518 26.9356675,19.4845849 27.113454,18.9511097 C28.1117405,15.9560191 29.2591457,14.8889531 30,14.8889531 Z M26.7362645,15.244873 C26.2126149,16.0652573 25.7382092,17.1033088 25.3213703,18.3535944 C25.1368792,18.9074145 24.9677623,19.4940638 24.813095,20.1066066 C23.4110319,19.5927827 22.0853778,18.8710017 20.8820242,17.9580251 C22.5878733,16.6633507 24.5760077,15.7223998 26.7362645,15.244873 Z M19.4245907,19.2174427 C20.9291873,20.4155946 22.614576,21.3418648 24.4063129,21.9677011 C23.9992996,24.1320038 23.7610564,26.5428725 23.7134309,29.0555812 L14.9191236,29.0555812 C15.1574825,25.2130569 16.8377849,21.7551202 19.4245907,19.2174427 Z M14.9192392,30.9444188 L23.7135465,30.9444188 C23.7612876,33.4571275 23.9994152,35.8678807 24.4064285,38.0322989 C22.6146916,38.6581352 20.9291873,39.5842898 19.4247063,40.7825573 C16.8377849,38.2448798 15.1573669,34.7869431 14.9192392,30.9444188 Z M20.8821397,42.0418593 C22.0854934,41.1288827 23.4111475,40.4071017 24.8132106,39.8932778 C24.9678779,40.5058206 25.1369948,41.0924699 25.3216015,41.6462901 C25.7383248,42.8963444 26.2127305,43.9346271 26.7362645,44.7550114 C24.5758921,44.2776002 22.5878733,43.3366493 20.8821397,42.0418593 Z M30,45.1110469 C29.2591457,45.1110469 28.1117405,44.0439809 27.113454,41.0488903 C26.9356675,40.5152995 26.7726772,39.9485326 26.6244832,39.3548319 C27.7239161,39.1022548 28.8556003,38.9720938 30,38.9720938 C31.1443997,38.9720938 32.2761995,39.1021392 33.3755168,39.3548319 C33.2273228,39.9486482 33.0643325,40.5154151 32.886546,41.0488903 C31.8882595,44.0439809 30.7408543,45.1110469 30,45.1110469 Z M33.2637355,44.755127 C33.7873851,43.9347427 34.2617908,42.8966912 34.6786297,41.6464056 C34.8631208,41.0925855 35.0322377,40.5059362 35.186905,39.8933934 C36.5889681,40.4072173 37.9146222,41.1289983 39.1179758,42.0419749 C37.4121267,43.3366493 35.4241079,44.2776002 33.2637355,44.755127 Z M40.5754093,40.7825573 C39.0708127,39.5844054 37.385424,38.6581352 35.5936871,38.0322989 C36.0007004,35.8679962 36.2389436,33.4571275 36.2865691,30.9445344 L45.0808764,30.9445344 C44.8425175,34.7869431 43.1622151,38.2448798 40.5754093,40.7825573 Z" id="Shape" fill="#CE2128"></path>
                            </g>
                        </g>
                    </g>
                </g>
            </g>
        </g>
    </g>
</svg>