<?xml version="1.0" encoding="UTF-8"?>
<svg width="58px" height="61px" viewBox="0 0 58 61" version="1.1" xmlns="http://www.w3.org/2000/svg" xmlns:xlink="http://www.w3.org/1999/xlink">
    <!-- Generator: Sketch 52.5 (67469) - http://www.bohemiancoding.com/sketch -->
    <title>content</title>
    <desc>Created with Sketch.</desc>
    <g id="Page-1" stroke="none" stroke-width="1" fill="none" fill-rule="evenodd">
        <g id="Homepage-08" transform="translate(-622.000000, -1597.000000)">
            <g id="THREE-BOXES" transform="translate(167.000000, 1060.000000)">
                <g id="UI/UX-text" transform="translate(0.000000, 364.000000)">
                    <g id="row-2" transform="translate(455.000000, 147.500000)">
                        <g id="sq-tab-1" transform="translate(0.000000, 26.000000)">
                            <g id="content">
                                <path d="M57.5664812,23.3597653 L48.5339721,17.981938 C48.5367416,17.9530989 48.5381263,17.9238019 48.5381263,17.8940471 L48.5381263,0.885775961 C48.5381263,0.396424725 48.1384046,1.04083788e-16 47.6449838,1.04083788e-16 L43.7146953,1.04083788e-16 C43.2217361,1.04083788e-16 42.8215528,0.396424725 42.8215528,0.885775961 C42.8215528,1.37512708 43.2217361,1.77155192 43.7146953,1.77155192 L46.7518413,1.77155192 L46.7518413,16.920838 L38.7647936,12.1655717 L42.8815573,12.1655717 C43.3745165,12.1655717 43.7746998,11.7691469 43.7746998,11.2797957 C43.7746998,10.7904446 43.3745165,10.3940197 42.8815573,10.3940197 L35.9339705,10.3940197 C35.8905826,10.3940197 35.8481179,10.3981397 35.8061149,10.4040906 L32.4163277,8.38626102 L42.8810957,8.38626102 C43.3745165,8.38626102 43.7742381,7.98937844 43.7742381,7.50002732 C43.7742381,7.01113394 43.3745165,6.61425136 42.8810957,6.61425136 L29.5425783,6.61425136 C29.5107298,6.61425136 29.4798044,6.61608242 29.4488791,6.61928681 L24.8917754,3.90611161 C24.474514,3.65754512 23.9160115,3.79624793 23.6658393,4.20961006 L23.3542779,4.72459604 L14.2982286,4.72459604 C13.8052694,4.72459604 13.4050861,5.12102088 13.4050861,5.610372 L13.4050861,15.0595641 C13.4050861,15.5484576 13.8052694,15.94534 14.2982286,15.94534 L16.5622409,15.94534 L10.4279446,26.0798069 L10.4279446,1.77155192 L39.5863923,1.77155192 C40.0798131,1.77155192 40.4795348,1.37512708 40.4795348,0.885775961 C40.4795348,0.396424725 40.0798131,0 39.5863923,0 L9.53480212,0 C9.04138132,0 8.64119808,0.396424725 8.64119808,0.885775961 L8.64119808,29.0310201 L0.127496338,43.0963178 C-0.126368389,43.5156309 0.0107185661,44.0599138 0.433518827,44.3116848 L26.573745,59.8743331 C26.7740674,59.9938098 27.0233164,60.030431 27.2499484,59.974126 L37.707793,57.3840896 C37.9348865,57.3277844 38.1365937,57.1794686 38.257064,56.9803406 L44.2215018,47.1273995 L47.6449838,47.1273995 C48.1384046,47.1273995 48.5385879,46.7305169 48.5385879,46.2411658 L48.5385879,39.9954155 L57.8725036,24.5751322 C58.1263684,24.1553614 57.9892814,23.6115362 57.5664812,23.3597653 Z M17.6330888,14.1737882 L15.1918327,14.1737882 L15.1918327,6.49614796 L22.2820453,6.49614796 L17.6344735,14.1737882 C17.634012,14.1737882 17.6335504,14.1737882 17.6330888,14.1737882 Z M28.9088395,57.7370267 L31.2623967,53.8492257 L35.1829922,56.1833712 L34.5363294,56.3431313 L28.9088395,57.7370267 Z M46.7518413,45.3553898 L45.2941958,45.3553898 L46.7518413,42.9470864 L46.7518413,45.3553898 Z M37.185293,55.3090394 L31.4161004,51.874426 C30.9933002,51.6226551 30.4444907,51.7586114 30.1906258,52.1779244 L26.7274486,57.8995334 L2.119181,43.2482959 L24.7380718,5.88091134 L55.8812806,24.4226964 L37.185293,55.3090394 Z" id="Shape" fill="#08415C" fill-rule="nonzero"></path>
                                <path d="M31.4167579,16.453176 L37.6990399,19.8884419 C37.8374826,19.9640265 37.9896809,20 38.1401042,20 C38.4316326,20 38.7160614,19.8645943 38.8771342,19.6204596 C39.1216275,19.2498113 38.9898407,18.769626 38.5829434,18.5469137 L32.3006614,15.1116479 C31.8942076,14.8893399 31.3666167,15.0093862 31.122567,15.3796302 C30.8785173,15.7502783 31.0103041,16.2308679 31.4167579,16.453176 Z" id="Path" fill="#08415C"></path>
                                <path d="M40.4427522,21.6183152 L49.6200299,26.8785279 C50.0805908,27.1423037 50.6953006,26.9595511 50.9192171,26.4941173 C51.1101354,26.0962029 50.9517439,25.6100631 50.5590651,25.3849984 L41.3817874,20.1243356 C40.949982,19.8767644 40.3894835,20.0104528 40.1302118,20.4227714 C39.8709401,20.8355401 40.0109469,21.370744 40.4427522,21.6183152 Z" id="Path" fill="#CE2128"></path>
                                <path d="M22.4269381,17.6054925 L29.6672609,21.8767143 C29.8090854,21.9602448 29.9650014,22 30.1190992,22 C30.4177489,22 30.7091255,21.8503598 30.8741328,21.5805608 C31.1245985,21.1713954 30.9895926,20.6402844 30.5727558,20.3946066 L23.332433,16.1233847 C22.9160508,15.8777069 22.375572,16.0103729 22.125561,16.4195383 C21.8755499,16.8287036 22.0105559,17.3598145 22.4269381,17.6054925 Z" id="Path" fill="#08415C"></path>
                                <path d="M47.5589314,30.3636535 L33.3812997,22.1259609 C32.9496468,21.8751177 32.3893461,22.010573 32.1301659,22.4287971 C31.8709856,22.8465652 32.0109431,23.3888428 32.4425959,23.639686 L46.6202276,31.8769224 C47.080626,32.1441845 47.69559,31.9590165 47.9189564,31.4874313 C48.1102785,31.0842578 47.9519429,30.5916928 47.5589314,30.3636535 Z" id="Path" fill="#CE2128"></path>
                                <path d="M45.5728422,34.2932788 L21.3379869,19.131506 C20.9198691,18.8698746 20.3771375,19.0106798 20.1260843,19.4468906 C19.8750311,19.8826258 20.0105999,20.4482251 20.4287176,20.7098563 L44.663573,35.8716291 C45.1095348,36.1503855 45.7052157,35.9572541 45.921578,35.4653871 C46.1069009,35.0443986 45.9530738,34.5311255 45.5728422,34.2932788 Z" id="Path" fill="#CE2128"></path>
                                <path d="M42.580093,38.3514117 L24.3157064,27.126886 C23.9042373,26.8742366 23.371167,27.0106673 23.1239265,27.4314434 C22.8771347,27.8522196 23.0104023,28.3984017 23.4218715,28.6510512 L41.686258,39.8760362 C42.1246499,40.1452227 42.7102195,39.9587215 42.9229092,39.4837405 C43.1050863,39.0772046 42.9538703,38.581093 42.580093,38.3514117 Z" id="Path" fill="#CE2128"></path>
                                <path d="M14.4469175,29.7198701 L29.6052132,38.8679667 C29.7536747,38.957424 29.9168871,39 30.0781962,39 C30.3908218,39 30.695834,38.8397422 30.8685631,38.5507995 C31.1302741,38.1126017 30.9889502,37.5438057 30.5530826,37.2806956 L15.3947868,28.1321207 C14.9584434,27.8690107 14.3931477,28.0110901 14.1314368,28.4497662 C13.869726,28.887964 14.0110498,29.45676 14.4469175,29.7198701 Z" id="Path" fill="#08415C"></path>
                                <path d="M39.584864,42.5488616 L33.3012383,39.111799 C32.8946979,38.8893747 32.366994,39.0090794 32.1228922,39.3799214 C31.8783465,39.7503591 32.0101614,40.2312 32.4171458,40.4536244 L38.7007715,43.8906871 C39.1343851,44.1280745 39.7135722,43.9634805 39.9239437,43.5453227 C40.1036914,43.1878261 39.9545673,42.7510656 39.584864,42.5488616 Z" id="Path" fill="#08415C"></path>
                                <path d="M11.4621187,33.5892074 L17.557299,36.8775228 C17.7108101,36.9606481 17.879574,37 18.0463697,37 C18.3701209,37 18.6855076,36.8518778 18.8641119,36.5843732 C19.1347245,36.1793582 18.9885937,35.6536345 18.5374087,35.4104486 L12.4422284,32.1221332 C11.9915354,31.8789473 11.40652,32.0102677 11.1359075,32.4152827 C10.8652949,32.8207399 11.0114257,33.3464637 11.4621187,33.5892074 Z" id="Path" fill="#08415C"></path>
                                <path d="M38.5509352,47.3589884 L22.4077448,38.126338 C21.9674977,37.8747797 21.3971451,38.0106212 21.1326128,38.4295803 C20.8685605,38.8485393 21.0111487,39.3923628 21.4509157,39.6439211 L37.5945861,48.8765715 C38.0636388,49.1445956 38.6896825,48.9588997 38.9177276,48.48597 C39.112166,48.0816469 38.9508542,47.5876777 38.5509352,47.3589884 Z" id="Path" fill="#08415C"></path>
                                <path d="M35.5732014,51.2932679 L11.3380057,36.1313978 C10.9194256,35.8697647 10.3771428,36.0110465 10.1260861,36.4467844 C9.87502938,36.8825223 10.0106,37.4481253 10.4287237,37.7097583 L34.6639194,52.8716283 C35.1094311,53.1503865 35.7051203,52.9572537 35.9214857,52.4653837 C36.1068112,52.0448681 35.9534383,51.5311161 35.5732014,51.2932679 Z" id="Path" fill="#08415C"></path>
                                <path d="M17.5885266,46.2695778 L8.28459011,40.1329571 C7.88285214,39.8682193 7.36238885,40.0111776 7.12099565,40.4520864 C6.88004042,40.8929949 7.0101563,41.4653099 7.41189427,41.7300476 L16.7158308,47.8666684 C16.8525181,47.9571607 17.0027865,48 17.1513024,48 C17.4391344,48 17.7199567,47.8387506 17.8789871,47.5475391 C18.1199423,47.1066305 17.9898265,46.5343155 17.5885266,46.2695778 Z" id="Path" fill="#08415C"></path>
                                <path d="M27.5393761,51.4126032 L21.442873,48.1222104 C20.9915899,47.8788708 20.4069399,48.0102741 20.1362685,48.4155451 C19.865105,48.820816 20.0112675,49.3468719 20.4625505,49.5902113 L26.5590536,52.8806041 C27.0398644,53.1398714 27.6820936,52.9602425 27.9153632,52.5027643 C28.1151678,52.1116513 27.9498122,51.6338209 27.5393761,51.4126032 Z" id="Path" fill="#CE2128"></path>
                            </g>
                        </g>
                    </g>
                </g>
            </g>
        </g>
    </g>
</svg>