<?xml version="1.0" encoding="UTF-8"?>
<svg width="42px" height="78px" viewBox="0 0 42 78" version="1.1" xmlns="http://www.w3.org/2000/svg" xmlns:xlink="http://www.w3.org/1999/xlink">
    <!-- Generator: Sketch 52.5 (67469) - http://www.bohemiancoding.com/sketch -->
    <title>data</title>
    <desc>Created with Sketch.</desc>
    <g id="Page-1" stroke="none" stroke-width="1" fill="none" fill-rule="evenodd">
        <g id="Homepage-08" transform="translate(-1185.000000, -1589.000000)">
            <g id="THREE-BOXES" transform="translate(167.000000, 1060.000000)">
                <g id="UI/UX-text" transform="translate(0.000000, 364.000000)">
                    <g id="row-2" transform="translate(455.000000, 147.500000)">
                        <g id="sq-tab-4" transform="translate(539.000000, 18.000000)">
                            <g id="data" transform="translate(45.000000, 38.500000) scale(-1, 1) translate(-45.000000, -38.500000) translate(24.000000, 0.000000)">
                                <path d="M42,26.0175781 L42,14.8886719 C42,13.025332 39.8087742,11.6220371 35.3010753,10.5984785 C31.7372473,9.78937695 27.0967742,9.31880469 22.1290323,9.25669336 L22.1290323,8.113875 C23.9354839,7.62149609 25.1774194,6.02509961 25.1774194,4.13574219 C25.1774194,1.85521875 23.3392043,0 21.0564516,0 C18.7736989,0 16.8883656,1.85521875 16.8883656,4.13574219 C16.8883656,6.02509961 18.2150538,7.62149609 19.8709677,8.113875 L19.8709677,9.25669336 C15.0537634,9.31880469 10.2627527,9.78937695 6.69892473,10.5984785 C2.19122581,11.6220371 2.13926845e-15,13.025332 2.13926845e-15,14.8886719 L2.13926845e-15,17.5581055 C2.13926845e-15,18.1810234 0.543139785,18.6860352 1.16666667,18.6860352 C1.74593548,18.6860352 2.24150538,18.2499023 2.3063871,17.6884941 C3.39055914,18.2556172 4.87877419,18.7505527 6.76486022,19.1787148 C10.5975484,20.048875 15.6812043,20.5281699 21.0706022,20.5281699 C26.46,20.5281699 31.5412473,20.048875 35.374086,19.1787148 C37.2555054,18.7514551 38.7330323,18.257873 39.8164516,17.6925547 L39.817957,26.004043 C39.8147957,26.0165254 39.2569032,27.2963496 33.6203226,28.3684844 C30.1224301,29.0344141 25.6671183,29.4012168 21.0752688,29.4012168 C16.4834194,29.4012168 11.9904731,29.0344141 8.49227957,28.368334 C2.85780645,27.2969512 2.40860215,26.0175781 2.25806452,26.0175781 L2.25806452,22.0698242 C2.25806452,21.4469063 1.75255914,20.9418945 1.12903226,20.9418945 C0.505505376,20.9418945 2.13926845e-15,21.4469063 2.13926845e-15,22.0698242 L2.13926845e-15,26.0175781 C2.13926845e-15,27.4210234 1.23756989,28.5647441 3.76027957,29.4765625 C1.23741935,30.3883809 0,31.5321016 0,32.9355469 L0,44.0644531 C0,45.4678984 1.23756989,46.6116191 3.76027957,47.5234375 C1.23741935,48.4352559 0,49.5789766 0,50.9824219 L0,62.1113281 C0,63.9748184 2.19122581,65.3781133 6.69892473,66.4015215 C10.2627527,67.210623 15.0537634,67.6811953 19.8709677,67.7433066 L19.8709677,68.886125 C18.2150538,69.3785039 16.8978495,70.9749004 16.8978495,72.8642578 C16.8978495,75.1447812 18.7736989,77 21.0564516,77 C23.3392043,77 25.1679355,75.1447812 25.1679355,72.8642578 C25.1679355,70.9749004 23.9354839,69.3785039 22.1290323,68.886125 L22.1290323,67.7433066 C27.0967742,67.6811953 31.7372473,67.210623 35.3010753,66.4015215 C39.8087742,65.3781133 42,63.974668 42,62.1113281 L42,60.7578125 C42,60.1348945 41.532129,59.6298828 40.9086022,59.6298828 C40.2850753,59.6298828 39.7983871,60.1348945 39.7983871,60.7578125 L39.8090753,62.097793 C39.8063656,62.1087715 39.324043,63.245123 34.503828,64.2829687 C30.8736129,65.0645488 26.1051828,65.4951172 21.0730108,65.4951172 C16.0408387,65.4951172 11.2335699,65.0646992 7.60335484,64.2829687 C2.78825806,63.2463262 2.40860215,62.1113281 2.25806452,62.1113281 L2.25806452,53.7867559 C3.46236559,54.3520742 4.85544086,54.8456562 6.73655914,55.2727656 C10.5692473,56.1429258 15.6669032,56.6222207 21.0564516,56.6222207 C26.446,56.6222207 31.4965376,56.1429258 35.3292258,55.2727656 C37.2104946,54.8456563 38.688172,54.3520742 39.7419355,53.7867559 L39.7419355,55.8701172 C39.7419355,56.4930352 40.2474409,56.9980469 40.8709677,56.9980469 C41.4944946,56.9980469 42,56.4930352 42,55.8701172 L42,50.9824219 C42,49.5789766 40.7625806,48.4352559 38.2397204,47.5234375 C40.7625806,46.6116191 42,45.4678984 42,44.0644531 L42,32.9355469 C42,31.5321016 40.7625806,30.3883809 38.2397204,29.4765625 C40.7625806,28.5647441 42,27.4210234 42,26.0175781 Z M19.1935484,4.13574219 C19.1935484,3.09909961 20.0376129,2.25585938 21.0752688,2.25585938 C22.1129247,2.25585938 22.9569892,3.09909961 22.9569892,4.13574219 C22.9569892,5.17238477 22.1129247,6.015625 21.0752688,6.015625 C20.0376129,6.015625 19.1935484,5.17238477 19.1935484,4.13574219 Z M34.5083441,17.0603125 C30.8779785,17.842043 26.1074409,18.2724609 21.0752688,18.2724609 C16.0430968,18.2724609 11.2725591,17.842043 7.64219355,17.0603125 C3.10754839,16.0839766 2.40784946,15.0205645 2.33845161,14.8886719 C2.40769892,14.7569297 3.06991398,13.6933672 7.60455914,12.7170313 C10.962,11.9941035 15.3548387,11.5724082 19.8709677,11.5130039 L19.8709677,14.8886719 C19.8709677,15.5115898 20.3764731,16.0166016 21,16.0166016 C21.6235269,16.0166016 22.1290323,15.5115898 22.1290323,14.8886719 L22.1290323,11.5130039 C26.7956989,11.5724082 31.1131183,11.9941035 34.4707097,12.7170313 C39.0053548,13.6933672 39.723871,14.7567793 39.7932688,14.8886719 C39.723871,15.0204141 39.0428387,16.0839766 34.5083441,17.0603125 Z M21.0752688,70.984375 C22.1129247,70.984375 22.9569892,71.8276152 22.9569892,72.8642578 C22.9569892,73.9009004 22.1129247,74.7441406 21.0752688,74.7441406 C20.0376129,74.7441406 19.1935484,73.9009004 19.1935484,72.8642578 C19.1935484,71.8276152 20.0376129,70.984375 21.0752688,70.984375 Z M39.812086,50.9824219 C39.7429892,51.1140137 39.0434409,52.1777266 34.5084946,53.1540625 C30.8782796,53.9356426 26.1075914,54.3662109 21.0752688,54.3662109 C16.0429462,54.3662109 11.2722581,53.935793 7.64204301,53.1540625 C3.10709677,52.1775762 2.40769892,51.1140137 2.33845161,50.9824219 C2.41146237,50.8443633 3.18763441,49.675377 8.32668817,48.6713691 C11.9252903,49.3372988 16.4394624,49.7041016 21.0751183,49.7041016 C25.7109247,49.7041016 30.2252473,49.3372988 33.8236989,48.6713691 C38.9629032,49.675377 39.7390753,50.8443633 39.812086,50.9824219 Z M39.8144946,32.9353965 C39.6874409,33.3107715 37.8864086,34.7906152 30.9619785,35.7123594 C30.3440215,35.794623 29.9095699,36.3618965 29.9920645,36.9794004 C30.0676344,37.546373 30.5525161,37.9584434 31.1098065,37.9584434 C31.1594839,37.9584434 31.2097634,37.9551348 31.2603441,37.9483672 C35.168,37.4283164 38.0241505,36.6908008 39.8176559,35.744543 L39.8185591,44.050918 C39.8153978,44.0634004 39.2572043,45.3432246 33.6206237,46.4153594 C30.1227312,47.0812891 25.6672688,47.4480918 21.0754194,47.4480918 C16.4835699,47.4480918 11.9904731,47.0812891 8.49243011,46.415209 C2.85780645,45.3438262 2.40860215,44.0644531 2.25806452,44.0644531 L2.25806452,35.7398809 C3.46236559,36.3051992 4.85544086,36.7987813 6.73655914,37.2258906 C10.5692473,38.0960508 15.6669032,38.5753457 21.0564516,38.5753457 C22.9612043,38.5753457 24.8554194,38.5150391 26.6677419,38.3960801 C27.289914,38.3553242 27.765914,37.8182793 27.7249677,37.1965645 C27.6840215,36.5748496 27.1487097,36.1045781 26.5266882,36.1450332 C24.7634409,36.260834 22.9295914,36.3194863 21.0740645,36.3194863 C16.0417419,36.3194863 11.2716559,35.8890684 7.64144086,35.1073379 C3.10649462,34.1308516 2.40739785,33.0672891 2.33815054,32.9356973 C2.41116129,32.7976387 3.18748387,31.6286523 8.32653763,30.6246445 C11.9251398,31.2905742 16.4393118,31.657377 21.0751183,31.657377 C25.7110753,31.657377 30.2255484,31.2905742 33.824,30.6246445 C38.3995914,31.5190176 39.704,32.600627 39.8144946,32.9353965 Z" id="Shape" fill="#08415C" fill-rule="nonzero"></path>
                                <circle id="Oval" fill="#CE2128" cx="8" cy="26" r="1"></circle>
                                <circle id="Oval" fill="#CE2128" cx="8" cy="22" r="1"></circle>
                                <circle id="Oval" fill="#CE2128" cx="8" cy="43" r="1"></circle>
                                <circle id="Oval" fill="#CE2128" cx="8" cy="40" r="1"></circle>
                                <circle id="Oval" fill="#CE2128" cx="8" cy="61" r="1"></circle>
                                <circle id="Oval" fill="#CE2128" cx="8" cy="58" r="1"></circle>
                            </g>
                        </g>
                    </g>
                </g>
            </g>
        </g>
    </g>
</svg>