<?xml version="1.0" encoding="UTF-8"?>
<svg width="59px" height="57px" viewBox="0 0 59 57" version="1.1" xmlns="http://www.w3.org/2000/svg" xmlns:xlink="http://www.w3.org/1999/xlink">
    <!-- Generator: Sketch 52.5 (67469) - http://www.bohemiancoding.com/sketch -->
    <title>analysis</title>
    <desc>Created with Sketch.</desc>
    <g id="Page-1" stroke="none" stroke-width="1" fill="none" fill-rule="evenodd">
        <g id="Homepage-08" transform="translate(-620.000000, -1442.000000)">
            <g id="THREE-BOXES" transform="translate(167.000000, 1060.000000)">
                <g id="UI/UX-text" transform="translate(0.000000, 364.000000)">
                    <g id="row-1" transform="translate(453.000000, 16.000000)">
                        <g id="sq-tab-1" transform="translate(0.000000, 2.000000)">
                            <g id="analysis">
                                <path d="M38.0760804,14.8151437 C39.6883297,14.8151437 41,13.5108331 41,11.90763 C41,10.3044269 39.6883297,9 38.0760804,9 C36.4638311,9 35.1521608,10.3044269 35.1521608,11.90763 C35.1521608,12.5624021 35.3711039,13.1671649 35.7398686,13.6537664 L30.9357517,20.3295342 C30.6490907,20.2359122 30.3432487,20.1845074 30.0253601,20.1845074 C29.257071,20.1845074 28.5574355,20.4811901 28.0351065,20.9647678 L24.8329467,19.1579225 C24.875636,18.9606767 24.8985595,18.7562204 24.8985595,18.5465305 C24.8985595,16.9433274 23.5868891,15.6390168 21.9746399,15.6390168 C20.3623906,15.6390168 19.0507203,16.9433274 19.0507203,18.5465305 C19.0507203,18.7562204 19.0736438,18.9606767 19.116333,19.1579225 L15.9141732,20.9647678 C15.3918442,20.4811901 14.6922087,20.1846237 13.9239196,20.1846237 C12.3116703,20.1846237 11,21.4890506 11,23.0922537 C11,24.6954568 12.3116703,25.9998837 13.9239196,25.9998837 C15.5361689,25.9998837 16.8478392,24.6954568 16.8478392,23.0922537 C16.8478392,22.8825638 16.8249157,22.6781074 16.7822265,22.4808617 L19.9843863,20.6740164 C20.5067153,21.1575941 21.2063508,21.4542768 21.9746399,21.4542768 C22.742929,21.4542768 23.4424475,21.1575941 23.9648935,20.6741327 L27.1670533,22.480978 C27.124364,22.6782237 27.1014405,22.8826801 27.1014405,23.09237 C27.1014405,24.6955731 28.4131109,26 30.0253601,26 C31.6377264,26 32.9493967,24.6955731 32.9493967,23.09237 C32.9493967,22.4374816 32.7303366,21.8326025 32.3615719,21.346001 L37.1656888,14.6702332 C37.4522329,14.7637389 37.7581918,14.8151437 38.0760804,14.8151437 Z M38.0760804,10.7445082 C38.7209801,10.7445082 39.2456482,11.2662325 39.2456482,11.90763 C39.2456482,12.5489112 38.7209801,13.0706355 38.0760804,13.0706355 C37.4311807,13.0706355 36.9065125,12.5489112 36.9065125,11.90763 C36.9063956,11.2662325 37.4310637,10.7445082 38.0760804,10.7445082 Z M13.9235687,24.2551429 C13.278669,24.2551429 12.7540009,23.7334186 12.7540009,23.0920211 C12.7540009,22.4506236 13.278669,21.9288993 13.9235687,21.9288993 C14.5684685,21.9288993 15.0931366,22.4506236 15.0931366,23.0920211 C15.0931366,23.7334186 14.5684685,24.2551429 13.9235687,24.2551429 Z M21.974406,19.709536 C21.3295062,19.709536 20.8048381,19.1878117 20.8048381,18.5464142 C20.8048381,17.905133 21.3295062,17.3834087 21.974406,17.3834087 C22.6193057,17.3834087 23.1439738,17.905133 23.1439738,18.5464142 C23.1440908,19.1878117 22.6193057,19.709536 21.974406,19.709536 Z M30.0252432,24.2551429 C29.3803435,24.2551429 28.8556753,23.7334186 28.8556753,23.0920211 C28.8556753,22.4506236 29.3803435,21.9288993 30.0252432,21.9288993 C30.6702598,21.9288993 31.194928,22.4506236 31.194928,23.0920211 C31.194928,23.7334186 30.6701429,24.2551429 30.0252432,24.2551429 Z" id="Shape" fill="#CE2128" fill-rule="nonzero"></path>
                                <path d="M48.1379229,42.3665616 L42.1049928,42.3665616 L9.24468444,42.3665616 L2.43852863,42.3665616 C2.04461689,42.3665616 1.72415411,42.0490128 1.72415411,41.658683 L1.72415411,6.41635452 C1.72415411,6.02602471 2.04461689,5.70847597 2.43852863,5.70847597 L6.50247481,5.70847597 C6.97857123,5.70847597 7.36455186,5.32611905 7.36455186,4.85423799 C7.36455186,4.38235692 6.97857123,4 6.50247481,4 L2.43852863,4 C1.09391831,4 0,5.08397106 0,6.41635452 L0,41.658683 C0,42.9910665 1.09391831,44.0750376 2.43852863,44.0750376 L8.38260739,44.0750376 L8.38260739,45.9550445 C8.38260739,47.0260312 9.26192599,47.8973539 10.3427407,47.8973539 L18.9720171,47.8973539 L14.90991,55.7561156 C14.6928965,56.176059 14.8603693,56.6907658 15.2841664,56.9059199 C15.4099147,56.9698169 15.5441688,57 15.6764689,57 C15.9896903,57 16.291877,56.8302914 16.4444072,56.5349528 L20.9091617,47.8973539 L30.4405155,47.8973539 L34.90527,56.5349528 C35.0579152,56.8302914 35.359987,57 35.6732083,57 C35.8055084,57 35.9397625,56.9695891 36.0655108,56.9059199 C36.4893079,56.6907658 36.6568957,56.176059 36.4397672,55.7561156 L32.3776601,47.8973539 L41.0069365,47.8973539 C42.0877512,47.8973539 42.9670698,47.0261451 42.9670698,45.9550445 L42.9670698,44.0750376 L48.1379229,44.0750376 C48.6140194,44.0750376 49,43.6926806 49,43.2207996 C49,42.7489185 48.6140194,42.3665616 48.1379229,42.3665616 Z M41.2429157,45.9550445 C41.2429157,46.0839775 41.1370527,46.1888779 41.0069365,46.1888779 L10.3427407,46.1888779 C10.2126246,46.1888779 10.1067615,46.0839775 10.1067615,45.9550445 L10.1067615,44.0750376 L41.2429157,44.0750376 L41.2429157,45.9550445 Z" id="Shape" fill="#08415C" fill-rule="nonzero"></path>
                                <path d="M9.85675586,5.45252425 L21.5854009,5.45252425 L29.3819934,5.45252425 L48.5765233,5.45252425 C48.9680036,5.45252425 49.2864883,5.7655857 49.2864883,6.15039975 L49.2864883,14.1578333 C49.2864883,14.6230462 49.6700864,15 50.1432441,15 C50.6164018,15 51,14.6230462 51,14.1578333 L51,6.15039975 C51,4.83684423 49.9128339,3.7681908 48.5765233,3.7681908 L30.2388635,3.7681908 L30.2388635,2.11282788 C30.2388635,0.947830579 29.2746134,0 28.0893202,0 L22.8781884,0 C21.6930094,0 20.728645,0.947830579 20.728645,2.11282788 L20.728645,3.7681908 L9.85675586,3.7681908 C9.38359816,3.7681908 9,4.14514463 9,4.61035753 C9,5.07557043 9.38359816,5.45252425 9.85675586,5.45252425 Z M22.4421567,2.11282788 C22.4421567,1.87657204 22.6377255,1.68433345 22.8781884,1.68433345 L28.0893202,1.68433345 C28.3296688,1.68433345 28.5253518,1.87657204 28.5253518,2.11282788 L28.5253518,3.7681908 L22.442271,3.7681908 L22.442271,2.11282788 L22.4421567,2.11282788 Z" id="Shape" fill="#08415C" fill-rule="nonzero"></path>
                                <path d="M11.8255003,30 C11.369604,30 11,30.3717516 11,30.8305443 L11,38.1694557 C11,38.6282484 11.369604,39 11.8255003,39 L15.1744997,39 C15.630396,39 16,38.6282484 16,38.1694557 L16,30.8305443 C16,30.3717516 15.630396,30 15.1744997,30 L11.8255003,30 Z M14.3489995,37.339022 L12.6510005,37.339022 L12.6510005,31.6611994 L14.3489995,31.6611994 L14.3489995,37.339022 Z" id="Shape" fill="#08415C" fill-rule="nonzero"></path>
                                <path d="M19.8255003,25 C19.369604,25 19,25.3929566 19,25.8779191 L19,38.1220809 C19,38.6070434 19.369604,39 19.8255003,39 L23.1744997,39 C23.630396,39 24,38.6070434 24,38.1220809 L24,25.8779191 C24,25.3929566 23.630396,25 23.1744997,25 L19.8255003,25 Z M22.3491096,37.2441618 L20.6511106,37.2441618 L20.6511106,26.7558382 L22.3491096,26.7558382 L22.3491096,37.2441618 Z" id="Shape" fill="#08415C" fill-rule="nonzero"></path>
                                <path d="M27.8255003,30 C27.369604,30 27,30.3717516 27,30.8305443 L27,38.1694557 C27,38.6282484 27.369604,39 27.8255003,39 L31.1744997,39 C31.630396,39 32,38.6282484 32,38.1694557 L32,30.8305443 C32,30.3717516 31.630396,30 31.1744997,30 L27.8255003,30 Z M30.3489995,37.339022 L28.6510005,37.339022 L28.6510005,31.6611994 L30.3489995,31.6611994 L30.3489995,37.339022 Z" id="Shape" fill="#08415C" fill-rule="nonzero"></path>
                                <path d="M35.8255003,35 C35.369604,35 35,35.3627522 35,35.8104384 L35,38.1895616 C35,38.6372478 35.369604,39 35.8255003,39 L39.1744997,39 C39.630396,39 40,38.6372478 40,38.1895616 C40,37.7418754 39.630396,37.3791231 39.1744997,37.3791231 L36.6510005,37.3791231 L36.6510005,35.8104384 C36.6510005,35.3627522 36.2813965,35 35.8255003,35 Z" id="Path" fill="#08415C"></path>
                                <path d="M58.5582468,43.1531361 L53.5890146,34.7053851 C54.8479822,33.3883358 55.76475,31.7790623 56.2544319,29.9853633 C57.0371146,27.1185508 56.6354368,24.1241027 55.1234283,21.5537085 C52.0021679,16.2473112 45.0645066,14.4231203 39.6583718,17.486487 C34.2521215,20.5498537 32.3932935,27.359086 35.5145539,32.6652566 C37.0265624,35.2356508 39.4679271,37.0742376 42.3888106,37.8425447 C43.3642478,38.0990627 44.3538904,38.2259048 45.3372964,38.2259048 C46.1967806,38.2259048 47.0512987,38.1288746 47.8869918,37.9368545 L52.8551846,46.3848321 C53.4641688,47.4205391 54.5731136,48.0001134 55.7120861,48 C56.2702542,48 56.8356982,47.8606891 57.3529825,47.5677847 C58.3688416,46.9922912 59,45.9191777 59,44.7672838 C59,44.2028988 58.8473209,43.6448617 58.5582468,43.1531361 Z M42.8371468,36.2001721 C40.3632135,35.5495255 38.2953468,33.9921676 37.0146668,31.8151086 C34.3710773,27.320886 35.9455664,21.5537085 40.524439,18.9589434 C42.0307884,18.1053947 43.676882,17.7000442 45.3027646,17.7000442 C48.6190894,17.7000442 51.8491423,19.3882114 53.6230844,22.4038565 C54.9036489,24.5809156 55.2438854,27.1170772 54.580967,29.5453267 C53.9180485,31.9735761 52.3313173,34.0029362 50.1131967,35.2599084 C47.8951916,36.5168806 45.3111955,36.850592 42.8371468,36.2001721 Z M56.4871463,46.0951017 C55.7418827,46.5174552 54.7856171,46.2660381 54.355644,45.5349108 L49.5757015,37.4070422 C50.0547583,37.2151355 50.5238828,36.9906964 50.9796104,36.7324781 C51.4356844,36.4740331 51.8676209,36.186343 52.2765746,35.8748488 L57.0579029,44.0030574 C57.1951063,44.2366781 57.2676346,44.5010174 57.2676346,44.7673971 C57.2676346,45.3135322 56.9685129,45.8223742 56.4871463,46.0951017 Z" id="Shape" fill="#08415C" fill-rule="nonzero"></path>
                                <path d="M52.6380465,29.3728733 C53.2327196,27.4575233 53.0910987,25.4069669 52.2392392,23.5989735 C52.0409026,23.1780817 51.5391085,22.9977315 51.1182888,23.195937 C50.6973569,23.3942548 50.5169895,23.896001 50.7153262,24.3167806 C51.3872675,25.7429617 51.4987898,27.3610596 51.0292283,28.8732608 C50.5570836,30.3937719 49.5370985,31.669811 48.1571649,32.466451 C46.6969307,33.3095824 44.9955704,33.5332794 43.3669859,33.0970028 C41.7382891,32.6606138 40.3768864,31.6161327 39.5338993,30.1560377 C37.7934557,27.1418544 38.8300624,23.2738716 41.8445329,21.5335938 C44.0485857,20.2613729 46.7838575,20.4313916 48.813383,21.9667261 C49.1844501,22.2474704 49.7126366,22.1743646 49.9932953,21.8033329 C50.2739541,21.4324135 50.2008413,20.904165 49.8297743,20.623533 C47.2589221,18.6784241 43.7937579,18.4631494 41.0021074,20.0747341 C39.152163,21.1426854 37.8288328,22.8671293 37.2759384,24.9302631 C36.723044,26.9933968 37.0068474,29.1483902 38.0749006,30.9981583 C39.1429537,32.8480387 40.8675619,34.1711305 42.9308923,34.7240845 C43.6199045,34.908702 44.3191367,35 45.0137644,35 C46.3994257,35 47.76723,34.6366046 48.9993658,33.9251985 C50.747671,32.9160911 52.0398918,31.2994531 52.6380465,29.3728733 Z" id="Path" fill="#08415C"></path>
                            </g>
                        </g>
                    </g>
                </g>
            </g>
        </g>
    </g>
</svg>